G04 #@! TF.GenerationSoftware,KiCad,Pcbnew,5.1.5-5.1.5*
G04 #@! TF.CreationDate,2020-10-27T19:01:29+01:00*
G04 #@! TF.ProjectId,theresynth-frontpanel,74686572-6573-4796-9e74-682d66726f6e,rev?*
G04 #@! TF.SameCoordinates,Original*
G04 #@! TF.FileFunction,Legend,Top*
G04 #@! TF.FilePolarity,Positive*
%FSLAX46Y46*%
G04 Gerber Fmt 4.6, Leading zero omitted, Abs format (unit mm)*
G04 Created by KiCad (PCBNEW 5.1.5-5.1.5) date 2020-10-27 19:01:29*
%MOMM*%
%LPD*%
G04 APERTURE LIST*
%ADD10C,0.100000*%
%ADD11C,0.500000*%
%ADD12C,0.360000*%
%ADD13C,0.150000*%
G04 APERTURE END LIST*
D10*
X82611304Y-144583360D02*
X83379530Y-144789400D01*
X100372881Y-140647935D02*
X99810675Y-141210142D01*
X103980622Y-153547979D02*
X101225544Y-151956723D01*
X90800000Y-137370000D02*
X90594001Y-136601794D01*
X85533032Y-139523522D02*
X86095239Y-140085729D01*
X86657445Y-140647935D02*
X87219651Y-141210142D01*
X102883560Y-144995440D02*
X102115354Y-145201460D01*
X103651766Y-150221887D02*
X104420174Y-150427907D01*
X87219651Y-153801165D02*
X86657445Y-154363372D01*
X97967344Y-139795212D02*
X99557529Y-137040134D01*
X102400000Y-147500000D02*
G75*
G03X102400000Y-147500000I-8880000J0D01*
G01*
X101498446Y-139523522D02*
X100936280Y-140085729D01*
X103980622Y-141463268D02*
X101225544Y-143053472D01*
X104420174Y-144583360D02*
X103651766Y-144789400D01*
X84147777Y-144995440D02*
X84916023Y-145201460D01*
X102115354Y-149809807D02*
X102883560Y-150015847D01*
X83379530Y-150221887D02*
X82611304Y-150427907D01*
X96025357Y-138137196D02*
X95819337Y-138905402D01*
X81418960Y-147505088D02*
X84599248Y-147505088D01*
X91210990Y-138906413D02*
X91004950Y-138138207D01*
X93515708Y-135421509D02*
X93515708Y-138603008D01*
X85804823Y-143054563D02*
X83049664Y-141463268D01*
X99557529Y-157971132D02*
X97967344Y-155215973D01*
X100936280Y-154925578D02*
X101498446Y-155487764D01*
X86095239Y-154925578D02*
X85533032Y-155487764D01*
X96437437Y-136601794D02*
X96231397Y-137370000D01*
X85804823Y-151956723D02*
X83049685Y-153547979D01*
X84916023Y-149809807D02*
X84147777Y-150015847D01*
X89064073Y-139795212D02*
X87472818Y-137040134D01*
X102418960Y-147505088D02*
X105599248Y-147505088D01*
X99810675Y-153801165D02*
X100372881Y-154363372D01*
X87472818Y-157971132D02*
X89064073Y-155215973D01*
D11*
X101700000Y-147500000D02*
G75*
G03X101700000Y-147500000I-8180000J0D01*
G01*
D10*
X107218960Y-147505088D02*
X110399248Y-147505088D01*
D11*
X127500000Y-147500000D02*
G75*
G03X127500000Y-147500000I-8180000J0D01*
G01*
D10*
X129780622Y-153547979D02*
X127025544Y-151956723D01*
X125357529Y-157971132D02*
X123767344Y-155215973D01*
X111604823Y-151956723D02*
X108849685Y-153547979D01*
X128218960Y-147505088D02*
X131399248Y-147505088D01*
X123767344Y-139795212D02*
X125357529Y-137040134D01*
X114864073Y-139795212D02*
X113272818Y-137040134D01*
X117010990Y-138906413D02*
X116804950Y-138138207D01*
X109179530Y-150221887D02*
X108411304Y-150427907D01*
X109947777Y-144995440D02*
X110716023Y-145201460D01*
X113272818Y-157971132D02*
X114864073Y-155215973D01*
X130220174Y-144583360D02*
X129451766Y-144789400D01*
X128683560Y-144995440D02*
X127915354Y-145201460D01*
X127915354Y-149809807D02*
X128683560Y-150015847D01*
X122237437Y-136601794D02*
X122031397Y-137370000D01*
X121825357Y-138137196D02*
X121619337Y-138905402D01*
X119315708Y-135421509D02*
X119315708Y-138603008D01*
X111895239Y-154925578D02*
X111333032Y-155487764D01*
X110716023Y-149809807D02*
X109947777Y-150015847D01*
X125610675Y-153801165D02*
X126172881Y-154363372D01*
X113019651Y-153801165D02*
X112457445Y-154363372D01*
X126736280Y-154925578D02*
X127298446Y-155487764D01*
X111604823Y-143054563D02*
X108849664Y-141463268D01*
X112457445Y-140647935D02*
X113019651Y-141210142D01*
X129451766Y-150221887D02*
X130220174Y-150427907D01*
X129780622Y-141463268D02*
X127025544Y-143053472D01*
X111333032Y-139523522D02*
X111895239Y-140085729D01*
X127298446Y-139523522D02*
X126736280Y-140085729D01*
X126172881Y-140647935D02*
X125610675Y-141210142D01*
X128200000Y-147500000D02*
G75*
G03X128200000Y-147500000I-8880000J0D01*
G01*
X108411304Y-144583360D02*
X109179530Y-144789400D01*
X116600000Y-137370000D02*
X116394001Y-136601794D01*
D11*
X242410000Y-147500000D02*
G75*
G03X242410000Y-147500000I-8180000J0D01*
G01*
D10*
X244710622Y-153537979D02*
X241955544Y-151946723D01*
X240287529Y-157961132D02*
X238697344Y-155205973D01*
X226534823Y-151946723D02*
X223779685Y-153537979D01*
X243148960Y-147495088D02*
X246329248Y-147495088D01*
X238697344Y-139785212D02*
X240287529Y-137030134D01*
X229794073Y-139785212D02*
X228202818Y-137030134D01*
X231940990Y-138896413D02*
X231734950Y-138128207D01*
X224109530Y-150211887D02*
X223341304Y-150417907D01*
X224877777Y-144985440D02*
X225646023Y-145191460D01*
X228202818Y-157961132D02*
X229794073Y-155205973D01*
X245150174Y-144573360D02*
X244381766Y-144779400D01*
X243613560Y-144985440D02*
X242845354Y-145191460D01*
X242845354Y-149799807D02*
X243613560Y-150005847D01*
X237167437Y-136591794D02*
X236961397Y-137360000D01*
X236755357Y-138127196D02*
X236549337Y-138895402D01*
X234245708Y-135411509D02*
X234245708Y-138593008D01*
X226825239Y-154915578D02*
X226263032Y-155477764D01*
X225646023Y-149799807D02*
X224877777Y-150005847D01*
X240540675Y-153791165D02*
X241102881Y-154353372D01*
X227949651Y-153791165D02*
X227387445Y-154353372D01*
X241666280Y-154915578D02*
X242228446Y-155477764D01*
X226534823Y-143044563D02*
X223779664Y-141453268D01*
X227387445Y-140637935D02*
X227949651Y-141200142D01*
X244381766Y-150211887D02*
X245150174Y-150417907D01*
X222161000Y-147495088D02*
X225342478Y-147495088D01*
X244710622Y-141453268D02*
X241955544Y-143043472D01*
X226263032Y-139513522D02*
X226825239Y-140075729D01*
X242228446Y-139513522D02*
X241666280Y-140075729D01*
X241102881Y-140637935D02*
X240540675Y-141200142D01*
X243110000Y-147500000D02*
G75*
G03X243110000Y-147500000I-8880000J0D01*
G01*
X223341304Y-144573360D02*
X224109530Y-144779400D01*
X231530000Y-137360000D02*
X231324001Y-136591794D01*
D11*
X216630000Y-147490000D02*
G75*
G03X216630000Y-147490000I-8180000J0D01*
G01*
D10*
X218960622Y-153537979D02*
X216205544Y-151946723D01*
X214537529Y-157961132D02*
X212947344Y-155205973D01*
X200784823Y-151946723D02*
X198029685Y-153537979D01*
X217398960Y-147495088D02*
X220579248Y-147495088D01*
X212947344Y-139785212D02*
X214537529Y-137030134D01*
X204044073Y-139785212D02*
X202452818Y-137030134D01*
X206190990Y-138896413D02*
X205984950Y-138128207D01*
X198359530Y-150211887D02*
X197591304Y-150417907D01*
X199127777Y-144985440D02*
X199896023Y-145191460D01*
X202452818Y-157961132D02*
X204044073Y-155205973D01*
X219400174Y-144573360D02*
X218631766Y-144779400D01*
X217863560Y-144985440D02*
X217095354Y-145191460D01*
X217095354Y-149799807D02*
X217863560Y-150005847D01*
X211417437Y-136591794D02*
X211211397Y-137360000D01*
X211005357Y-138127196D02*
X210799337Y-138895402D01*
X208495708Y-135411509D02*
X208495708Y-138593008D01*
X201075239Y-154915578D02*
X200513032Y-155477764D01*
X199896023Y-149799807D02*
X199127777Y-150005847D01*
X214790675Y-153791165D02*
X215352881Y-154353372D01*
X202199651Y-153791165D02*
X201637445Y-154353372D01*
X215916280Y-154915578D02*
X216478446Y-155477764D01*
X200784823Y-143044563D02*
X198029664Y-141453268D01*
X201637445Y-140637935D02*
X202199651Y-141200142D01*
X218631766Y-150211887D02*
X219400174Y-150417907D01*
X196411000Y-147495088D02*
X199592478Y-147495088D01*
X218960622Y-141453268D02*
X216205544Y-143043472D01*
X200513032Y-139513522D02*
X201075239Y-140075729D01*
X216478446Y-139513522D02*
X215916280Y-140075729D01*
X215352881Y-140637935D02*
X214790675Y-141200142D01*
X217330000Y-147490000D02*
G75*
G03X217330000Y-147490000I-8880000J0D01*
G01*
X197591304Y-144573360D02*
X198359530Y-144779400D01*
X205780000Y-137360000D02*
X205574001Y-136591794D01*
D11*
X190900000Y-147500000D02*
G75*
G03X190900000Y-147500000I-8180000J0D01*
G01*
D10*
X191600000Y-147500000D02*
G75*
G03X191600000Y-147500000I-8880000J0D01*
G01*
X193180622Y-153547979D02*
X190425544Y-151956723D01*
X188757529Y-157971132D02*
X187167344Y-155215973D01*
X175004823Y-151956723D02*
X172249685Y-153547979D01*
X191618960Y-147505088D02*
X194799248Y-147505088D01*
X187167344Y-139795212D02*
X188757529Y-137040134D01*
X178264073Y-139795212D02*
X176672818Y-137040134D01*
X180410990Y-138906413D02*
X180204950Y-138138207D01*
X172579530Y-150221887D02*
X171811304Y-150427907D01*
X173347777Y-144995440D02*
X174116023Y-145201460D01*
X176672818Y-157971132D02*
X178264073Y-155215973D01*
X193620174Y-144583360D02*
X192851766Y-144789400D01*
X192083560Y-144995440D02*
X191315354Y-145201460D01*
X191315354Y-149809807D02*
X192083560Y-150015847D01*
X185637437Y-136601794D02*
X185431397Y-137370000D01*
X185225357Y-138137196D02*
X185019337Y-138905402D01*
X182715708Y-135421509D02*
X182715708Y-138603008D01*
X175295239Y-154925578D02*
X174733032Y-155487764D01*
X174116023Y-149809807D02*
X173347777Y-150015847D01*
X189010675Y-153801165D02*
X189572881Y-154363372D01*
X176419651Y-153801165D02*
X175857445Y-154363372D01*
X190136280Y-154925578D02*
X190698446Y-155487764D01*
X175004823Y-143054563D02*
X172249664Y-141463268D01*
X175857445Y-140647935D02*
X176419651Y-141210142D01*
X192851766Y-150221887D02*
X193620174Y-150427907D01*
X170631000Y-147505088D02*
X173812478Y-147505088D01*
X193180622Y-141463268D02*
X190425544Y-143053472D01*
X174733032Y-139523522D02*
X175295239Y-140085729D01*
X190698446Y-139523522D02*
X190136280Y-140085729D01*
X189572881Y-140647935D02*
X189010675Y-141210142D01*
X171811304Y-144583360D02*
X172579530Y-144789400D01*
X180000000Y-137370000D02*
X179794001Y-136601794D01*
X182892126Y-160970000D02*
X181900000Y-159977874D01*
X204504330Y-159978110D02*
X203512204Y-160970236D01*
X197559447Y-160970236D02*
X197559447Y-160970236D01*
X203512204Y-160970236D02*
X182892126Y-160970236D01*
X203512204Y-160970236D02*
X204504330Y-161962362D01*
X233707874Y-160993858D02*
X234700000Y-160001732D01*
X218912204Y-160993858D02*
X218912204Y-160993858D01*
X212959447Y-160993858D02*
X233707874Y-160993858D01*
X212959447Y-160993858D02*
X211967321Y-161985984D01*
X211967321Y-160001732D02*
X212959447Y-160993858D01*
X145076378Y-159860000D02*
X145169531Y-159867042D01*
X145169531Y-159867042D02*
X145251985Y-159885958D01*
X145251985Y-159885958D02*
X145324669Y-159913849D01*
X145324669Y-159913849D02*
X145389984Y-159949266D01*
X145389984Y-159949266D02*
X145448999Y-159991168D01*
X145448999Y-159991168D02*
X145502609Y-160039011D01*
X145502609Y-160039011D02*
X145550937Y-160091948D01*
X145550937Y-160091948D02*
X145594580Y-160149849D01*
X145594580Y-160149849D02*
X145633161Y-160211444D01*
X145633161Y-160211444D02*
X145667500Y-160277420D01*
X145667500Y-160277420D02*
X145697604Y-160347572D01*
X145697604Y-160347572D02*
X145723608Y-160422250D01*
X145723608Y-160422250D02*
X145745310Y-160501230D01*
X145745310Y-160501230D02*
X145762934Y-160586720D01*
X145762934Y-160586720D02*
X145775440Y-160675069D01*
X145775440Y-160675069D02*
X145782984Y-160769313D01*
X145782984Y-160769313D02*
X145785039Y-160852126D01*
X144367716Y-162269449D02*
X144367716Y-159860000D01*
X143942352Y-161942590D02*
X143942494Y-161943865D01*
X143233858Y-161943724D02*
X143233971Y-161942590D01*
X146918897Y-162251732D02*
X146824848Y-162244544D01*
X146824848Y-162244544D02*
X146743281Y-162225766D01*
X146743281Y-162225766D02*
X146670599Y-162197876D01*
X146670599Y-162197876D02*
X146605282Y-162162458D01*
X146605282Y-162162458D02*
X146546035Y-162120370D01*
X146546035Y-162120370D02*
X146492658Y-162072711D01*
X146492658Y-162072711D02*
X146444132Y-162019537D01*
X146444132Y-162019537D02*
X146400327Y-161961349D01*
X146400327Y-161961349D02*
X146361459Y-161899143D01*
X146361459Y-161899143D02*
X146327047Y-161832776D01*
X146327047Y-161832776D02*
X146297096Y-161762689D01*
X146297096Y-161762689D02*
X146271128Y-161687760D01*
X146271128Y-161687760D02*
X146249614Y-161609055D01*
X146249614Y-161609055D02*
X146232366Y-161525189D01*
X146232366Y-161525189D02*
X146219271Y-161431572D01*
X146219271Y-161431572D02*
X146212097Y-161338568D01*
X146212097Y-161338568D02*
X146210236Y-161259606D01*
X145076378Y-162269449D02*
X145076378Y-159860000D01*
X138415193Y-159860955D02*
X138319677Y-159867513D01*
X138319677Y-159867513D02*
X138236290Y-159884301D01*
X138236290Y-159884301D02*
X138158300Y-159910080D01*
X138158300Y-159910080D02*
X138089758Y-159941742D01*
X138089758Y-159941742D02*
X138026587Y-159979595D01*
X138026587Y-159979595D02*
X137968723Y-160023091D01*
X137968723Y-160023091D02*
X137916590Y-160071427D01*
X137916590Y-160071427D02*
X137869218Y-160125393D01*
X137869218Y-160125393D02*
X137827625Y-160184033D01*
X137827625Y-160184033D02*
X137791626Y-160248073D01*
X137791626Y-160248073D02*
X137761419Y-160318732D01*
X144367716Y-159860000D02*
X144460869Y-159867042D01*
X144460869Y-159867042D02*
X144543323Y-159885958D01*
X144543323Y-159885958D02*
X144616007Y-159913849D01*
X144616007Y-159913849D02*
X144681323Y-159949266D01*
X144681323Y-159949266D02*
X144740338Y-159991168D01*
X144740338Y-159991168D02*
X144793948Y-160039011D01*
X144793948Y-160039011D02*
X144842276Y-160091948D01*
X144842276Y-160091948D02*
X144885919Y-160149849D01*
X144885919Y-160149849D02*
X144924500Y-160211444D01*
X144924500Y-160211444D02*
X144958839Y-160277420D01*
X144958839Y-160277420D02*
X144988943Y-160347572D01*
X144988943Y-160347572D02*
X145014947Y-160422250D01*
X145014947Y-160422250D02*
X145036649Y-160501230D01*
X145036649Y-160501230D02*
X145054273Y-160586720D01*
X145054273Y-160586720D02*
X145066779Y-160675069D01*
X145066779Y-160675069D02*
X145074323Y-160769313D01*
X145074323Y-160769313D02*
X145076378Y-160852126D01*
X143942494Y-161943865D02*
X143942494Y-159860044D01*
X146918897Y-160852126D02*
X146210236Y-160852126D01*
X139395799Y-161061067D02*
X139395799Y-161061067D01*
X139123622Y-161277323D02*
X139123622Y-159860000D01*
X139996667Y-160020335D02*
X139934352Y-160058877D01*
X139934352Y-160058877D02*
X139875429Y-160100449D01*
X139875429Y-160100449D02*
X139818737Y-160145795D01*
X139818737Y-160145795D02*
X139766155Y-160193277D01*
X139766155Y-160193277D02*
X139715826Y-160244471D01*
X139715826Y-160244471D02*
X139665413Y-160302536D01*
X139665413Y-160302536D02*
X139622019Y-160359233D01*
X139622019Y-160359233D02*
X139581632Y-160419096D01*
X139581632Y-160419096D02*
X139543974Y-160482972D01*
X139543974Y-160482972D02*
X139510055Y-160549616D01*
X139510055Y-160549616D02*
X139479079Y-160621438D01*
X139479079Y-160621438D02*
X139452789Y-160695290D01*
X139452789Y-160695290D02*
X139430355Y-160774816D01*
X139430355Y-160774816D02*
X139413117Y-160857599D01*
X139413117Y-160857599D02*
X139401161Y-160947479D01*
X139401161Y-160947479D02*
X139395938Y-161042532D01*
X139395938Y-161042532D02*
X139395799Y-161061067D01*
X141198401Y-160020335D02*
X141131067Y-159984254D01*
X141131067Y-159984254D02*
X141061547Y-159952505D01*
X141061547Y-159952505D02*
X140988861Y-159924801D01*
X140988861Y-159924801D02*
X140911379Y-159901007D01*
X140911379Y-159901007D02*
X140828009Y-159881617D01*
X140828009Y-159881617D02*
X140741322Y-159867953D01*
X140741322Y-159867953D02*
X140646755Y-159860337D01*
X140646755Y-159860337D02*
X140545270Y-159860465D01*
X140545270Y-159860465D02*
X140450717Y-159868322D01*
X140450717Y-159868322D02*
X140364057Y-159882207D01*
X140364057Y-159882207D02*
X140280726Y-159901811D01*
X140280726Y-159901811D02*
X140200962Y-159926618D01*
X140200962Y-159926618D02*
X140127236Y-159955156D01*
X140127236Y-159955156D02*
X140057853Y-159987318D01*
X140057853Y-159987318D02*
X139996667Y-160020335D01*
X139395799Y-161061067D02*
X139399693Y-161157919D01*
X139399693Y-161157919D02*
X139410460Y-161248388D01*
X139410460Y-161248388D02*
X139426796Y-161332385D01*
X139426796Y-161332385D02*
X139447962Y-161411375D01*
X139447962Y-161411375D02*
X139474135Y-161487896D01*
X139474135Y-161487896D02*
X139503795Y-161558983D01*
X139503795Y-161558983D02*
X139536891Y-161626053D01*
X139536891Y-161626053D02*
X139573754Y-161690389D01*
X139573754Y-161690389D02*
X139613826Y-161751358D01*
X139613826Y-161751358D02*
X139656820Y-161808902D01*
X139656820Y-161808902D02*
X139702658Y-161863199D01*
X139702658Y-161863199D02*
X139751556Y-161914619D01*
X139751556Y-161914619D02*
X139803373Y-161963032D01*
X139803373Y-161963032D02*
X139859688Y-162009645D01*
X139859688Y-162009645D02*
X139917809Y-162052108D01*
X139917809Y-162052108D02*
X139982033Y-162093212D01*
X139982033Y-162093212D02*
X139996667Y-162101800D01*
X138414960Y-159860000D02*
X138414960Y-162269449D01*
X146210236Y-159860000D02*
X146918897Y-159860000D01*
X146210236Y-161259606D02*
X146210236Y-159860000D01*
X145785039Y-160852126D02*
X145785039Y-162269449D01*
X138414960Y-162269449D02*
X138513420Y-162261557D01*
X138513420Y-162261557D02*
X138595027Y-162242090D01*
X138595027Y-162242090D02*
X138668501Y-162213130D01*
X138668501Y-162213130D02*
X138733249Y-162177216D01*
X138733249Y-162177216D02*
X138791724Y-162134931D01*
X138791724Y-162134931D02*
X138844607Y-162087016D01*
X138844607Y-162087016D02*
X138892078Y-162034389D01*
X138892078Y-162034389D02*
X138934869Y-161977098D01*
X138934869Y-161977098D02*
X138973685Y-161914580D01*
X138973685Y-161914580D02*
X139007951Y-161848049D01*
X139007951Y-161848049D02*
X139039797Y-161772428D01*
X139039797Y-161772428D02*
X139066530Y-161692913D01*
X139066530Y-161692913D02*
X139087607Y-161612323D01*
X139087607Y-161612323D02*
X139104016Y-161527823D01*
X139104016Y-161527823D02*
X139115680Y-161438700D01*
X139115680Y-161438700D02*
X139122362Y-161342277D01*
X139122362Y-161342277D02*
X139123622Y-161277323D01*
X137967985Y-161089648D02*
X138025098Y-161132787D01*
X138025098Y-161132787D02*
X138087693Y-161170558D01*
X138087693Y-161170558D02*
X138156283Y-161202489D01*
X138156283Y-161202489D02*
X138231359Y-161227710D01*
X138231359Y-161227710D02*
X138314328Y-161245067D01*
X138314328Y-161245067D02*
X138407665Y-161252380D01*
X138407665Y-161252380D02*
X138502977Y-161246880D01*
X138502977Y-161246880D02*
X138588030Y-161230645D01*
X138588030Y-161230645D02*
X138665749Y-161205765D01*
X138665749Y-161205765D02*
X138734974Y-161174573D01*
X138734974Y-161174573D02*
X138763058Y-161159209D01*
X143411067Y-162226524D02*
X143482291Y-162255465D01*
X143482291Y-162255465D02*
X143569891Y-162270009D01*
X143569891Y-162270009D02*
X143664018Y-162262842D01*
X143664018Y-162262842D02*
X143740783Y-162238446D01*
X143740783Y-162238446D02*
X143765256Y-162226524D01*
X143233971Y-161942590D02*
X143246897Y-162030386D01*
X143246897Y-162030386D02*
X143277468Y-162100010D01*
X143277468Y-162100010D02*
X143320542Y-162157364D01*
X143320542Y-162157364D02*
X143374603Y-162204155D01*
X143374603Y-162204155D02*
X143411067Y-162226524D01*
X139996667Y-162101800D02*
X140062317Y-162137042D01*
X140062317Y-162137042D02*
X140133513Y-162169621D01*
X140133513Y-162169621D02*
X140208236Y-162198025D01*
X140208236Y-162198025D02*
X140286937Y-162221997D01*
X140286937Y-162221997D02*
X140368849Y-162240860D01*
X140368849Y-162240860D02*
X140459783Y-162254886D01*
X140459783Y-162254886D02*
X140554990Y-162262047D01*
X140554990Y-162262047D02*
X140657080Y-162261325D01*
X140657080Y-162261325D02*
X140749025Y-162253221D01*
X140749025Y-162253221D02*
X140835195Y-162239083D01*
X140835195Y-162239083D02*
X140916109Y-162219831D01*
X140916109Y-162219831D02*
X140993225Y-162195812D01*
X140993225Y-162195812D02*
X141066115Y-162167697D01*
X141066115Y-162167697D02*
X141134976Y-162135928D01*
X141134976Y-162135928D02*
X141198401Y-162101800D01*
X143233858Y-159860000D02*
X143233858Y-161943724D01*
X143765256Y-162226524D02*
X143825133Y-162186261D01*
X143825133Y-162186261D02*
X143874805Y-162135170D01*
X143874805Y-162135170D02*
X143913104Y-162073044D01*
X143913104Y-162073044D02*
X143937442Y-161997018D01*
X143937442Y-161997018D02*
X143942352Y-161942590D01*
X141799269Y-161061067D02*
X141795367Y-160964206D01*
X141795367Y-160964206D02*
X141784114Y-160870689D01*
X141784114Y-160870689D02*
X141767638Y-160787050D01*
X141767638Y-160787050D02*
X141746246Y-160707973D01*
X141746246Y-160707973D02*
X141719401Y-160630244D01*
X141719401Y-160630244D02*
X141689112Y-160558441D01*
X141689112Y-160558441D02*
X141655730Y-160491518D01*
X141655730Y-160491518D02*
X141619070Y-160428116D01*
X141619070Y-160428116D02*
X141578955Y-160367532D01*
X141578955Y-160367532D02*
X141535769Y-160310125D01*
X141535769Y-160310125D02*
X141489336Y-160255520D01*
X141489336Y-160255520D02*
X141440234Y-160204276D01*
X141440234Y-160204276D02*
X141387754Y-160155647D01*
X141387754Y-160155647D02*
X141332439Y-160110209D01*
X141332439Y-160110209D02*
X141274166Y-160067911D01*
X141274166Y-160067911D02*
X141212759Y-160028756D01*
X141212759Y-160028756D02*
X141198401Y-160020335D01*
X141198401Y-162101800D02*
X141261749Y-162062561D01*
X141261749Y-162062561D02*
X141320622Y-162020933D01*
X141320622Y-162020933D02*
X141376321Y-161976330D01*
X141376321Y-161976330D02*
X141429458Y-161928316D01*
X141429458Y-161928316D02*
X141479232Y-161877655D01*
X141479232Y-161877655D02*
X141529646Y-161819588D01*
X141529646Y-161819588D02*
X141574016Y-161761533D01*
X141574016Y-161761533D02*
X141614238Y-161701744D01*
X141614238Y-161701744D02*
X141651742Y-161637953D01*
X141651742Y-161637953D02*
X141685652Y-161571133D01*
X141685652Y-161571133D02*
X141715867Y-161500971D01*
X141715867Y-161500971D02*
X141743011Y-161424507D01*
X141743011Y-161424507D02*
X141765143Y-161345523D01*
X141765143Y-161345523D02*
X141782512Y-161261182D01*
X141782512Y-161261182D02*
X141794131Y-161172173D01*
X141794131Y-161172173D02*
X141799181Y-161075516D01*
X141799181Y-161075516D02*
X141799269Y-161061067D01*
X137761419Y-160318732D02*
X137738230Y-160396061D01*
X137738230Y-160396061D02*
X137723478Y-160481605D01*
X137723478Y-160481605D02*
X137719754Y-160578056D01*
X137719754Y-160578056D02*
X137728736Y-160669979D01*
X137728736Y-160669979D02*
X137747815Y-160753291D01*
X137747815Y-160753291D02*
X137774382Y-160827660D01*
X137774382Y-160827660D02*
X137807521Y-160895547D01*
X137807521Y-160895547D02*
X137846902Y-160958119D01*
X137846902Y-160958119D02*
X137890951Y-161014131D01*
X137890951Y-161014131D02*
X137940197Y-161065046D01*
X137940197Y-161065046D02*
X137967985Y-161089648D01*
X142100000Y-162269449D02*
X142808661Y-162269449D01*
X142100000Y-159860000D02*
X142100000Y-162269449D01*
X209483072Y-132160000D02*
X209483072Y-132160000D01*
X209483072Y-134569449D02*
X209483072Y-132160000D01*
X211042124Y-134551732D02*
X210948075Y-134544544D01*
X210948075Y-134544544D02*
X210866508Y-134525766D01*
X210866508Y-134525766D02*
X210793826Y-134497876D01*
X210793826Y-134497876D02*
X210728509Y-134462458D01*
X210728509Y-134462458D02*
X210669262Y-134420370D01*
X210669262Y-134420370D02*
X210615885Y-134372711D01*
X210615885Y-134372711D02*
X210567359Y-134319537D01*
X210567359Y-134319537D02*
X210523554Y-134261349D01*
X210523554Y-134261349D02*
X210484686Y-134199143D01*
X210484686Y-134199143D02*
X210450274Y-134132776D01*
X210450274Y-134132776D02*
X210420323Y-134062689D01*
X210420323Y-134062689D02*
X210394355Y-133987760D01*
X210394355Y-133987760D02*
X210372841Y-133909055D01*
X210372841Y-133909055D02*
X210355593Y-133825189D01*
X210355593Y-133825189D02*
X210342498Y-133731572D01*
X210342498Y-133731572D02*
X210335324Y-133638568D01*
X210335324Y-133638568D02*
X210333463Y-133559606D01*
X209978578Y-132656617D02*
X209969636Y-132750795D01*
X209969636Y-132750795D02*
X209947590Y-132829471D01*
X209947590Y-132829471D02*
X209915512Y-132898701D01*
X209915512Y-132898701D02*
X209872660Y-132962826D01*
X209872660Y-132962826D02*
X209824061Y-133016127D01*
X209824061Y-133016127D02*
X209769074Y-133061294D01*
X209769074Y-133061294D02*
X209704294Y-133100116D01*
X209704294Y-133100116D02*
X209632959Y-133129048D01*
X209632959Y-133129048D02*
X209551206Y-133147476D01*
X209551206Y-133147476D02*
X209483072Y-133152126D01*
X209483072Y-132160000D02*
X209578007Y-132169126D01*
X209578007Y-132169126D02*
X209656635Y-132191386D01*
X209656635Y-132191386D02*
X209725155Y-132223328D01*
X209725155Y-132223328D02*
X209786788Y-132264382D01*
X209786788Y-132264382D02*
X209839435Y-132311794D01*
X209839435Y-132311794D02*
X209885203Y-132366661D01*
X209885203Y-132366661D02*
X209923507Y-132429125D01*
X209923507Y-132429125D02*
X209953386Y-132500095D01*
X209953386Y-132500095D02*
X209972925Y-132581511D01*
X209972925Y-132581511D02*
X209978578Y-132656617D01*
X209057875Y-133152126D02*
X208349214Y-133152126D01*
X91762798Y-133188884D02*
X91766692Y-133285736D01*
X91766692Y-133285736D02*
X91777459Y-133376205D01*
X91777459Y-133376205D02*
X91793795Y-133460202D01*
X91793795Y-133460202D02*
X91814961Y-133539192D01*
X91814961Y-133539192D02*
X91841134Y-133615713D01*
X91841134Y-133615713D02*
X91870794Y-133686800D01*
X91870794Y-133686800D02*
X91903891Y-133753870D01*
X91903891Y-133753870D02*
X91940754Y-133818206D01*
X91940754Y-133818206D02*
X91980826Y-133879175D01*
X91980826Y-133879175D02*
X92023820Y-133936719D01*
X92023820Y-133936719D02*
X92069658Y-133991016D01*
X92069658Y-133991016D02*
X92118556Y-134042436D01*
X92118556Y-134042436D02*
X92170373Y-134090849D01*
X92170373Y-134090849D02*
X92226688Y-134137462D01*
X92226688Y-134137462D02*
X92284808Y-134179925D01*
X92284808Y-134179925D02*
X92349032Y-134221029D01*
X92349032Y-134221029D02*
X92363666Y-134229617D01*
X91477559Y-132974960D02*
X90768897Y-132974960D01*
X90768897Y-134392283D02*
X90768897Y-131982834D01*
X181951574Y-133169842D02*
X181242913Y-133169842D01*
X181242913Y-132177716D02*
X181951574Y-132177716D01*
X181242913Y-133577323D02*
X181242913Y-132177716D01*
X121031889Y-133074960D02*
X120323228Y-133074960D01*
X120323228Y-132082834D02*
X121031889Y-132082834D01*
X120323228Y-133482441D02*
X120323228Y-132082834D01*
X117323413Y-133317038D02*
X117380526Y-133360177D01*
X117380526Y-133360177D02*
X117443122Y-133397948D01*
X117443122Y-133397948D02*
X117511712Y-133429878D01*
X117511712Y-133429878D02*
X117586788Y-133455099D01*
X117586788Y-133455099D02*
X117669757Y-133472456D01*
X117669757Y-133472456D02*
X117763094Y-133479769D01*
X117763094Y-133479769D02*
X117858406Y-133474269D01*
X117858406Y-133474269D02*
X117943459Y-133458034D01*
X117943459Y-133458034D02*
X118021178Y-133433153D01*
X118021178Y-133433153D02*
X118090403Y-133401961D01*
X118090403Y-133401961D02*
X118118487Y-133386597D01*
X117116847Y-132546122D02*
X117093658Y-132623451D01*
X117093658Y-132623451D02*
X117078906Y-132708995D01*
X117078906Y-132708995D02*
X117075182Y-132805446D01*
X117075182Y-132805446D02*
X117084164Y-132897369D01*
X117084164Y-132897369D02*
X117103243Y-132980681D01*
X117103243Y-132980681D02*
X117129810Y-133055050D01*
X117129810Y-133055050D02*
X117162949Y-133122937D01*
X117162949Y-133122937D02*
X117202330Y-133185509D01*
X117202330Y-133185509D02*
X117246379Y-133241521D01*
X117246379Y-133241521D02*
X117295625Y-133292436D01*
X117295625Y-133292436D02*
X117323413Y-133317038D01*
X117770621Y-132088344D02*
X117675105Y-132094902D01*
X117675105Y-132094902D02*
X117591719Y-132111690D01*
X117591719Y-132111690D02*
X117513729Y-132137469D01*
X117513729Y-132137469D02*
X117445187Y-132169131D01*
X117445187Y-132169131D02*
X117382016Y-132206984D01*
X117382016Y-132206984D02*
X117324152Y-132250480D01*
X117324152Y-132250480D02*
X117272019Y-132298816D01*
X117272019Y-132298816D02*
X117224647Y-132352782D01*
X117224647Y-132352782D02*
X117183054Y-132411423D01*
X117183054Y-132411423D02*
X117147054Y-132475463D01*
X117147054Y-132475463D02*
X117116847Y-132546122D01*
X65247639Y-160824960D02*
X64538976Y-160824960D01*
X64538976Y-159832834D02*
X65247639Y-159832834D01*
X64538976Y-162242283D02*
X64538976Y-159832834D01*
X64113779Y-160824960D02*
X63405118Y-160824960D01*
X186628740Y-134587165D02*
X186727200Y-134579273D01*
X186727200Y-134579273D02*
X186808807Y-134559806D01*
X186808807Y-134559806D02*
X186882281Y-134530846D01*
X186882281Y-134530846D02*
X186947029Y-134494932D01*
X186947029Y-134494932D02*
X187005504Y-134452647D01*
X187005504Y-134452647D02*
X187058387Y-134404732D01*
X187058387Y-134404732D02*
X187105858Y-134352105D01*
X187105858Y-134352105D02*
X187148649Y-134294814D01*
X187148649Y-134294814D02*
X187187465Y-134232296D01*
X187187465Y-134232296D02*
X187221731Y-134165765D01*
X187221731Y-134165765D02*
X187251594Y-134095361D01*
X187251594Y-134095361D02*
X187277396Y-134020275D01*
X187277396Y-134020275D02*
X187300056Y-133935833D01*
X187300056Y-133935833D02*
X187317239Y-133848944D01*
X187317239Y-133848944D02*
X187329139Y-133759557D01*
X187329139Y-133759557D02*
X187335943Y-133664872D01*
X187335943Y-133664872D02*
X187337401Y-133595039D01*
X186203543Y-134587165D02*
X186203543Y-132177716D01*
X185778346Y-134161968D02*
X185778346Y-134587165D01*
X61913181Y-159837149D02*
X61815949Y-159841020D01*
X61815949Y-159841020D02*
X61725506Y-159851713D01*
X61725506Y-159851713D02*
X61640874Y-159868129D01*
X61640874Y-159868129D02*
X61561557Y-159889404D01*
X61561557Y-159889404D02*
X61486645Y-159915039D01*
X61486645Y-159915039D02*
X61414255Y-159945283D01*
X61414255Y-159945283D02*
X61344355Y-159980026D01*
X61344355Y-159980026D02*
X61280000Y-160017286D01*
X61280000Y-160017286D02*
X61218244Y-160058335D01*
X61218244Y-160058335D02*
X61161175Y-160101454D01*
X61161175Y-160101454D02*
X61107161Y-160147518D01*
X61107161Y-160147518D02*
X61055182Y-160197449D01*
X61055182Y-160197449D02*
X61003899Y-160253116D01*
X61003899Y-160253116D02*
X60957257Y-160310501D01*
X60957257Y-160310501D02*
X60915417Y-160368854D01*
X60915417Y-160368854D02*
X60876584Y-160430516D01*
X60876584Y-160430516D02*
X60840844Y-160495841D01*
X60840844Y-160495841D02*
X60808391Y-160565224D01*
X60808391Y-160565224D02*
X60779620Y-160638876D01*
X60779620Y-160638876D02*
X60755399Y-160715689D01*
X60755399Y-160715689D02*
X60735671Y-160797608D01*
X60735671Y-160797608D02*
X60721188Y-160885118D01*
X60721188Y-160885118D02*
X60712960Y-160978001D01*
X60712960Y-160978001D02*
X60711446Y-161038884D01*
X63114916Y-161038884D02*
X63111036Y-160941652D01*
X63111036Y-160941652D02*
X63100346Y-160851209D01*
X63100346Y-160851209D02*
X63083930Y-160766577D01*
X63083930Y-160766577D02*
X63062789Y-160687703D01*
X63062789Y-160687703D02*
X63037017Y-160612348D01*
X63037017Y-160612348D02*
X63006867Y-160540166D01*
X63006867Y-160540166D02*
X62973747Y-160473261D01*
X62973747Y-160473261D02*
X62936912Y-160409168D01*
X62936912Y-160409168D02*
X62896850Y-160348375D01*
X62896850Y-160348375D02*
X62853840Y-160290929D01*
X62853840Y-160290929D02*
X62805747Y-160234201D01*
X62805747Y-160234201D02*
X62753322Y-160179623D01*
X62753322Y-160179623D02*
X62698941Y-160129601D01*
X62698941Y-160129601D02*
X62642991Y-160084056D01*
X62642991Y-160084056D02*
X62584706Y-160042130D01*
X62584706Y-160042130D02*
X62523102Y-160003207D01*
X62523102Y-160003207D02*
X62458243Y-159967578D01*
X62458243Y-159967578D02*
X62389774Y-159935358D01*
X62389774Y-159935358D02*
X62316863Y-159906630D01*
X62316863Y-159906630D02*
X62239937Y-159882103D01*
X62239937Y-159882103D02*
X62158118Y-159862127D01*
X62158118Y-159862127D02*
X62069052Y-159847162D01*
X62069052Y-159847162D02*
X61976459Y-159838784D01*
X61976459Y-159838784D02*
X61913181Y-159837149D01*
X62514049Y-162079617D02*
X62577397Y-162040378D01*
X62577397Y-162040378D02*
X62636270Y-161998750D01*
X62636270Y-161998750D02*
X62691969Y-161954147D01*
X62691969Y-161954147D02*
X62745106Y-161906133D01*
X62745106Y-161906133D02*
X62794880Y-161855472D01*
X62794880Y-161855472D02*
X62845294Y-161797405D01*
X62845294Y-161797405D02*
X62889664Y-161739350D01*
X62889664Y-161739350D02*
X62929885Y-161679561D01*
X62929885Y-161679561D02*
X62967389Y-161615770D01*
X62967389Y-161615770D02*
X63001299Y-161548950D01*
X63001299Y-161548950D02*
X63031514Y-161478788D01*
X63031514Y-161478788D02*
X63058658Y-161402324D01*
X63058658Y-161402324D02*
X63080790Y-161323340D01*
X63080790Y-161323340D02*
X63098159Y-161238999D01*
X63098159Y-161238999D02*
X63109778Y-161149990D01*
X63109778Y-161149990D02*
X63114828Y-161053333D01*
X63114828Y-161053333D02*
X63114916Y-161038884D01*
X61312314Y-162079617D02*
X61377964Y-162114859D01*
X61377964Y-162114859D02*
X61449160Y-162147438D01*
X61449160Y-162147438D02*
X61523883Y-162175841D01*
X61523883Y-162175841D02*
X61602584Y-162199813D01*
X61602584Y-162199813D02*
X61684496Y-162218676D01*
X61684496Y-162218676D02*
X61775430Y-162232702D01*
X61775430Y-162232702D02*
X61870637Y-162239863D01*
X61870637Y-162239863D02*
X61972728Y-162239141D01*
X61972728Y-162239141D02*
X62064673Y-162231037D01*
X62064673Y-162231037D02*
X62150843Y-162216899D01*
X62150843Y-162216899D02*
X62231757Y-162197647D01*
X62231757Y-162197647D02*
X62308873Y-162173628D01*
X62308873Y-162173628D02*
X62381763Y-162145514D01*
X62381763Y-162145514D02*
X62450624Y-162113745D01*
X62450624Y-162113745D02*
X62514049Y-162079617D01*
X180109055Y-134587165D02*
X180207515Y-134579273D01*
X180207515Y-134579273D02*
X180289122Y-134559806D01*
X180289122Y-134559806D02*
X180362596Y-134530846D01*
X180362596Y-134530846D02*
X180427344Y-134494932D01*
X180427344Y-134494932D02*
X180485819Y-134452647D01*
X180485819Y-134452647D02*
X180538702Y-134404732D01*
X180538702Y-134404732D02*
X180586173Y-134352105D01*
X180586173Y-134352105D02*
X180628964Y-134294814D01*
X180628964Y-134294814D02*
X180667780Y-134232296D01*
X180667780Y-134232296D02*
X180702046Y-134165765D01*
X180702046Y-134165765D02*
X180731909Y-134095361D01*
X180731909Y-134095361D02*
X180757711Y-134020275D01*
X180757711Y-134020275D02*
X180780371Y-133935833D01*
X180780371Y-133935833D02*
X180797554Y-133848944D01*
X180797554Y-133848944D02*
X180809454Y-133759557D01*
X180809454Y-133759557D02*
X180816258Y-133664872D01*
X180816258Y-133664872D02*
X180817716Y-133595039D01*
X177420611Y-133385760D02*
X177420611Y-133385760D01*
X109326378Y-159860000D02*
X109419531Y-159867042D01*
X109419531Y-159867042D02*
X109501985Y-159885958D01*
X109501985Y-159885958D02*
X109574669Y-159913849D01*
X109574669Y-159913849D02*
X109639984Y-159949266D01*
X109639984Y-159949266D02*
X109698999Y-159991168D01*
X109698999Y-159991168D02*
X109752609Y-160039011D01*
X109752609Y-160039011D02*
X109800937Y-160091948D01*
X109800937Y-160091948D02*
X109844580Y-160149849D01*
X109844580Y-160149849D02*
X109883161Y-160211444D01*
X109883161Y-160211444D02*
X109917500Y-160277420D01*
X109917500Y-160277420D02*
X109947604Y-160347572D01*
X109947604Y-160347572D02*
X109973608Y-160422250D01*
X109973608Y-160422250D02*
X109995310Y-160501230D01*
X109995310Y-160501230D02*
X110012934Y-160586720D01*
X110012934Y-160586720D02*
X110025440Y-160675069D01*
X110025440Y-160675069D02*
X110032984Y-160769313D01*
X110032984Y-160769313D02*
X110035039Y-160852126D01*
X108617716Y-162269449D02*
X108617716Y-159860000D01*
X233312204Y-132160000D02*
X233312204Y-134243724D01*
X233843604Y-134526524D02*
X233903480Y-134486261D01*
X233903480Y-134486261D02*
X233953152Y-134435170D01*
X233953152Y-134435170D02*
X233991451Y-134373044D01*
X233991451Y-134373044D02*
X234015789Y-134297018D01*
X234015789Y-134297018D02*
X234020700Y-134242590D01*
X233489412Y-134526524D02*
X233560636Y-134555465D01*
X233560636Y-134555465D02*
X233648238Y-134570009D01*
X233648238Y-134570009D02*
X233742365Y-134562842D01*
X233742365Y-134562842D02*
X233819131Y-134538446D01*
X233819131Y-134538446D02*
X233843604Y-134526524D01*
X74655118Y-148169055D02*
X74655118Y-147885590D01*
X77199677Y-147460393D02*
X77199677Y-148310787D01*
X74796850Y-147460393D02*
X74796850Y-148310787D01*
X93759447Y-160970236D02*
X92767321Y-159978110D01*
X185069685Y-132177716D02*
X185164620Y-132186842D01*
X185164620Y-132186842D02*
X185243249Y-132209102D01*
X185243249Y-132209102D02*
X185311769Y-132241044D01*
X185311769Y-132241044D02*
X185373402Y-132282098D01*
X185373402Y-132282098D02*
X185426050Y-132329510D01*
X185426050Y-132329510D02*
X185471818Y-132384377D01*
X185471818Y-132384377D02*
X185510123Y-132446840D01*
X185510123Y-132446840D02*
X185540002Y-132517810D01*
X185540002Y-132517810D02*
X185559541Y-132599225D01*
X185559541Y-132599225D02*
X185565194Y-132674331D01*
X183510629Y-134587165D02*
X183510629Y-132177716D01*
X117772047Y-134492283D02*
X118480708Y-134492283D01*
X117772047Y-132082834D02*
X117772047Y-134492283D01*
X121031889Y-134474567D02*
X120937840Y-134467379D01*
X120937840Y-134467379D02*
X120856273Y-134448601D01*
X120856273Y-134448601D02*
X120783591Y-134420711D01*
X120783591Y-134420711D02*
X120718274Y-134385293D01*
X120718274Y-134385293D02*
X120659027Y-134343205D01*
X120659027Y-134343205D02*
X120605650Y-134295546D01*
X120605650Y-134295546D02*
X120557124Y-134242372D01*
X120557124Y-134242372D02*
X120513319Y-134184184D01*
X120513319Y-134184184D02*
X120474451Y-134121978D01*
X120474451Y-134121978D02*
X120440039Y-134055611D01*
X120440039Y-134055611D02*
X120410088Y-133985524D01*
X120410088Y-133985524D02*
X120384120Y-133910595D01*
X120384120Y-133910595D02*
X120362606Y-133831890D01*
X120362606Y-133831890D02*
X120345358Y-133748024D01*
X120345358Y-133748024D02*
X120332263Y-133654407D01*
X120332263Y-133654407D02*
X120325089Y-133561403D01*
X120325089Y-133561403D02*
X120323228Y-133482441D01*
X60711446Y-161038884D02*
X60715340Y-161135736D01*
X60715340Y-161135736D02*
X60726107Y-161226205D01*
X60726107Y-161226205D02*
X60742443Y-161310202D01*
X60742443Y-161310202D02*
X60763609Y-161389192D01*
X60763609Y-161389192D02*
X60789782Y-161465713D01*
X60789782Y-161465713D02*
X60819442Y-161536800D01*
X60819442Y-161536800D02*
X60852539Y-161603870D01*
X60852539Y-161603870D02*
X60889402Y-161668206D01*
X60889402Y-161668206D02*
X60929474Y-161729175D01*
X60929474Y-161729175D02*
X60972468Y-161786719D01*
X60972468Y-161786719D02*
X61018306Y-161841016D01*
X61018306Y-161841016D02*
X61067204Y-161892436D01*
X61067204Y-161892436D02*
X61119021Y-161940849D01*
X61119021Y-161940849D02*
X61175336Y-161987462D01*
X61175336Y-161987462D02*
X61233456Y-162029925D01*
X61233456Y-162029925D02*
X61297680Y-162071029D01*
X61297680Y-162071029D02*
X61312314Y-162079617D01*
X64619685Y-144674960D02*
X64619685Y-146092283D01*
X63911023Y-146092283D02*
X63911023Y-143682834D01*
X63911023Y-143682834D02*
X64004176Y-143689876D01*
X64004176Y-143689876D02*
X64086630Y-143708792D01*
X64086630Y-143708792D02*
X64159314Y-143736683D01*
X64159314Y-143736683D02*
X64224630Y-143772100D01*
X64224630Y-143772100D02*
X64283645Y-143814002D01*
X64283645Y-143814002D02*
X64337255Y-143861845D01*
X64337255Y-143861845D02*
X64385583Y-143914782D01*
X64385583Y-143914782D02*
X64429226Y-143972683D01*
X64429226Y-143972683D02*
X64467807Y-144034278D01*
X64467807Y-144034278D02*
X64502146Y-144100254D01*
X64502146Y-144100254D02*
X64532250Y-144170406D01*
X64532250Y-144170406D02*
X64558254Y-144245084D01*
X64558254Y-144245084D02*
X64579956Y-144324064D01*
X64579956Y-144324064D02*
X64597580Y-144409554D01*
X64597580Y-144409554D02*
X64610086Y-144497903D01*
X64610086Y-144497903D02*
X64617630Y-144592147D01*
X64617630Y-144592147D02*
X64619685Y-144674960D01*
X61216135Y-144888884D02*
X61216135Y-144888884D01*
X108192352Y-161942590D02*
X108192494Y-161943865D01*
X107483858Y-161943724D02*
X107483971Y-161942590D01*
X111168897Y-162251732D02*
X111074848Y-162244544D01*
X111074848Y-162244544D02*
X110993281Y-162225766D01*
X110993281Y-162225766D02*
X110920599Y-162197876D01*
X110920599Y-162197876D02*
X110855282Y-162162458D01*
X110855282Y-162162458D02*
X110796035Y-162120370D01*
X110796035Y-162120370D02*
X110742658Y-162072711D01*
X110742658Y-162072711D02*
X110694132Y-162019537D01*
X110694132Y-162019537D02*
X110650327Y-161961349D01*
X110650327Y-161961349D02*
X110611459Y-161899143D01*
X110611459Y-161899143D02*
X110577047Y-161832776D01*
X110577047Y-161832776D02*
X110547096Y-161762689D01*
X110547096Y-161762689D02*
X110521128Y-161687760D01*
X110521128Y-161687760D02*
X110499614Y-161609055D01*
X110499614Y-161609055D02*
X110482366Y-161525189D01*
X110482366Y-161525189D02*
X110469271Y-161431572D01*
X110469271Y-161431572D02*
X110462097Y-161338568D01*
X110462097Y-161338568D02*
X110460236Y-161259606D01*
X109326378Y-162269449D02*
X109326378Y-159860000D01*
X102665193Y-159860955D02*
X102569677Y-159867513D01*
X102569677Y-159867513D02*
X102486290Y-159884301D01*
X102486290Y-159884301D02*
X102408300Y-159910080D01*
X102408300Y-159910080D02*
X102339758Y-159941742D01*
X102339758Y-159941742D02*
X102276587Y-159979595D01*
X102276587Y-159979595D02*
X102218723Y-160023091D01*
X102218723Y-160023091D02*
X102166590Y-160071427D01*
X102166590Y-160071427D02*
X102119218Y-160125393D01*
X102119218Y-160125393D02*
X102077625Y-160184033D01*
X102077625Y-160184033D02*
X102041626Y-160248073D01*
X102041626Y-160248073D02*
X102011419Y-160318732D01*
X211042124Y-133152126D02*
X210333463Y-133152126D01*
X210333463Y-132160000D02*
X211042124Y-132160000D01*
X210333463Y-133559606D02*
X210333463Y-132160000D01*
X235154724Y-132160000D02*
X235154724Y-132160000D01*
X235154724Y-133152126D02*
X235154724Y-132160000D01*
X236288582Y-134551732D02*
X236194533Y-134544544D01*
X236194533Y-134544544D02*
X236112967Y-134525766D01*
X236112967Y-134525766D02*
X236040284Y-134497876D01*
X236040284Y-134497876D02*
X235974967Y-134462458D01*
X235974967Y-134462458D02*
X235915720Y-134420370D01*
X235915720Y-134420370D02*
X235862343Y-134372711D01*
X235862343Y-134372711D02*
X235813817Y-134319537D01*
X235813817Y-134319537D02*
X235770012Y-134261349D01*
X235770012Y-134261349D02*
X235731144Y-134199143D01*
X235731144Y-134199143D02*
X235696732Y-134132776D01*
X235696732Y-134132776D02*
X235666781Y-134062689D01*
X235666781Y-134062689D02*
X235640813Y-133987760D01*
X235640813Y-133987760D02*
X235619299Y-133909055D01*
X235619299Y-133909055D02*
X235602051Y-133825189D01*
X235602051Y-133825189D02*
X235588956Y-133731572D01*
X235588956Y-133731572D02*
X235581782Y-133638568D01*
X235581782Y-133638568D02*
X235579921Y-133559606D01*
X234020842Y-134243865D02*
X234020842Y-132160044D01*
X234020700Y-134242590D02*
X234020842Y-134243865D01*
X233312204Y-134243724D02*
X233312318Y-134242590D01*
X77348031Y-148027323D02*
X77064566Y-148027323D01*
X77348031Y-148169055D02*
X77348031Y-147885590D01*
X75363779Y-148594252D02*
X74938582Y-148169055D01*
X75363779Y-147460393D02*
X75363779Y-148594252D01*
X74938582Y-147885590D02*
X75363779Y-147460393D01*
X74938582Y-148169055D02*
X74938582Y-147885590D01*
X74655118Y-148027323D02*
X74938582Y-148027323D01*
X236288582Y-133152126D02*
X235579921Y-133152126D01*
X235579921Y-132160000D02*
X236288582Y-132160000D01*
X235579921Y-133559606D02*
X235579921Y-132160000D01*
X93565401Y-132148151D02*
X93498067Y-132112070D01*
X93498067Y-132112070D02*
X93428547Y-132080321D01*
X93428547Y-132080321D02*
X93355861Y-132052617D01*
X93355861Y-132052617D02*
X93278378Y-132028823D01*
X93278378Y-132028823D02*
X93195008Y-132009434D01*
X93195008Y-132009434D02*
X93108321Y-131995770D01*
X93108321Y-131995770D02*
X93013754Y-131988154D01*
X93013754Y-131988154D02*
X92912269Y-131988282D01*
X92912269Y-131988282D02*
X92817716Y-131996139D01*
X92817716Y-131996139D02*
X92731056Y-132010023D01*
X92731056Y-132010023D02*
X92647725Y-132029627D01*
X92647725Y-132029627D02*
X92567961Y-132054434D01*
X92567961Y-132054434D02*
X92494235Y-132082972D01*
X92494235Y-132082972D02*
X92424852Y-132115134D01*
X92424852Y-132115134D02*
X92363666Y-132148151D01*
X94166268Y-133188884D02*
X94162366Y-133092022D01*
X94162366Y-133092022D02*
X94151113Y-132998505D01*
X94151113Y-132998505D02*
X94134637Y-132914866D01*
X94134637Y-132914866D02*
X94113245Y-132835789D01*
X94113245Y-132835789D02*
X94086400Y-132758060D01*
X94086400Y-132758060D02*
X94056111Y-132686257D01*
X94056111Y-132686257D02*
X94022729Y-132619334D01*
X94022729Y-132619334D02*
X93986069Y-132555932D01*
X93986069Y-132555932D02*
X93945955Y-132495348D01*
X93945955Y-132495348D02*
X93902769Y-132437941D01*
X93902769Y-132437941D02*
X93856336Y-132383336D01*
X93856336Y-132383336D02*
X93807234Y-132332092D01*
X93807234Y-132332092D02*
X93754754Y-132283463D01*
X93754754Y-132283463D02*
X93699439Y-132238025D01*
X93699439Y-132238025D02*
X93641166Y-132195727D01*
X93641166Y-132195727D02*
X93579759Y-132156572D01*
X93579759Y-132156572D02*
X93565401Y-132148151D01*
X93565401Y-134229617D02*
X93628749Y-134190378D01*
X93628749Y-134190378D02*
X93687622Y-134148750D01*
X93687622Y-134148750D02*
X93743321Y-134104147D01*
X93743321Y-134104147D02*
X93796458Y-134056133D01*
X93796458Y-134056133D02*
X93846232Y-134005472D01*
X93846232Y-134005472D02*
X93896646Y-133947405D01*
X93896646Y-133947405D02*
X93941016Y-133889350D01*
X93941016Y-133889350D02*
X93981237Y-133829561D01*
X93981237Y-133829561D02*
X94018741Y-133765770D01*
X94018741Y-133765770D02*
X94052651Y-133698950D01*
X94052651Y-133698950D02*
X94082866Y-133628788D01*
X94082866Y-133628788D02*
X94110010Y-133552324D01*
X94110010Y-133552324D02*
X94132142Y-133473340D01*
X94132142Y-133473340D02*
X94149511Y-133388999D01*
X94149511Y-133388999D02*
X94161130Y-133299990D01*
X94161130Y-133299990D02*
X94166180Y-133203333D01*
X94166180Y-133203333D02*
X94166268Y-133188884D01*
X92363666Y-134229617D02*
X92429316Y-134264859D01*
X92429316Y-134264859D02*
X92500512Y-134297438D01*
X92500512Y-134297438D02*
X92575235Y-134325841D01*
X92575235Y-134325841D02*
X92653936Y-134349813D01*
X92653936Y-134349813D02*
X92735848Y-134368676D01*
X92735848Y-134368676D02*
X92826782Y-134382702D01*
X92826782Y-134382702D02*
X92921989Y-134389863D01*
X92921989Y-134389863D02*
X93024079Y-134389141D01*
X93024079Y-134389141D02*
X93116024Y-134381037D01*
X93116024Y-134381037D02*
X93202194Y-134366899D01*
X93202194Y-134366899D02*
X93283108Y-134347647D01*
X93283108Y-134347647D02*
X93360225Y-134323628D01*
X93360225Y-134323628D02*
X93433115Y-134295514D01*
X93433115Y-134295514D02*
X93501976Y-134263745D01*
X93501976Y-134263745D02*
X93565401Y-134229617D01*
X206908390Y-133726846D02*
X206918354Y-133817620D01*
X206918354Y-133817620D02*
X206915772Y-133915092D01*
X206915772Y-133915092D02*
X206901517Y-134002801D01*
X206901517Y-134002801D02*
X206878380Y-134081890D01*
X206878380Y-134081890D02*
X206848594Y-134152558D01*
X206848594Y-134152558D02*
X206811545Y-134219039D01*
X206811545Y-134219039D02*
X206770043Y-134277848D01*
X206770043Y-134277848D02*
X206722221Y-134332558D01*
X206722221Y-134332558D02*
X206670085Y-134381026D01*
X206670085Y-134381026D02*
X206612963Y-134424084D01*
X206612963Y-134424084D02*
X206550124Y-134461861D01*
X206550124Y-134461861D02*
X206480422Y-134494105D01*
X206480422Y-134494105D02*
X206461184Y-134501433D01*
X206223227Y-133152126D02*
X206317708Y-133158515D01*
X206317708Y-133158515D02*
X206406119Y-133176480D01*
X206406119Y-133176480D02*
X206481621Y-133201761D01*
X206481621Y-133201761D02*
X206551922Y-133234555D01*
X206551922Y-133234555D02*
X206614462Y-133272453D01*
X206614462Y-133272453D02*
X206671504Y-133315694D01*
X206671504Y-133315694D02*
X206723246Y-133363956D01*
X206723246Y-133363956D02*
X206770506Y-133418069D01*
X206770506Y-133418069D02*
X206811915Y-133476746D01*
X206811915Y-133476746D02*
X206847992Y-133541347D01*
X206847992Y-133541347D02*
X206877770Y-133611647D01*
X206877770Y-133611647D02*
X206901192Y-133691399D01*
X206901192Y-133691399D02*
X206908390Y-133726846D01*
X97228910Y-132994847D02*
X97228910Y-132994847D01*
X205735247Y-132742660D02*
X205756616Y-132823496D01*
X205756616Y-132823496D02*
X205787537Y-132892769D01*
X205787537Y-132892769D02*
X205826944Y-132954152D01*
X205826944Y-132954152D02*
X205873514Y-133007664D01*
X205873514Y-133007664D02*
X205927214Y-133053992D01*
X205927214Y-133053992D02*
X205988681Y-133093136D01*
X205988681Y-133093136D02*
X206058356Y-133123957D01*
X206058356Y-133123957D02*
X206138045Y-133144794D01*
X206138045Y-133144794D02*
X206223227Y-133152126D01*
X208349214Y-133152126D02*
X208349214Y-134569448D01*
X209057875Y-134569448D02*
X209057875Y-132160000D01*
X209057875Y-132160000D02*
X208964121Y-132167133D01*
X208964121Y-132167133D02*
X208882538Y-132185872D01*
X208882538Y-132185872D02*
X208809577Y-132213849D01*
X208809577Y-132213849D02*
X208744260Y-132249266D01*
X208744260Y-132249266D02*
X208684897Y-132291444D01*
X208684897Y-132291444D02*
X208631636Y-132339011D01*
X208631636Y-132339011D02*
X208583110Y-132392186D01*
X208583110Y-132392186D02*
X208539575Y-132449980D01*
X208539575Y-132449980D02*
X208500599Y-132512297D01*
X208500599Y-132512297D02*
X208466313Y-132578335D01*
X208466313Y-132578335D02*
X208436012Y-132649195D01*
X208436012Y-132649195D02*
X208410106Y-132723963D01*
X208410106Y-132723963D02*
X208388592Y-132802670D01*
X208388592Y-132802670D02*
X208371344Y-132886533D01*
X208371344Y-132886533D02*
X208358762Y-132975459D01*
X208358762Y-132975459D02*
X208351291Y-133068706D01*
X208351291Y-133068706D02*
X208349214Y-133152126D01*
X187337401Y-133595039D02*
X187337401Y-132177716D01*
X188471260Y-134569449D02*
X188377211Y-134562261D01*
X188377211Y-134562261D02*
X188295644Y-134543483D01*
X188295644Y-134543483D02*
X188222961Y-134515593D01*
X188222961Y-134515593D02*
X188157644Y-134480175D01*
X188157644Y-134480175D02*
X188098397Y-134438087D01*
X188098397Y-134438087D02*
X188045020Y-134390428D01*
X188045020Y-134390428D02*
X187996494Y-134337254D01*
X187996494Y-134337254D02*
X187952689Y-134279066D01*
X187952689Y-134279066D02*
X187913821Y-134216860D01*
X187913821Y-134216860D02*
X187879409Y-134150493D01*
X187879409Y-134150493D02*
X187849458Y-134080406D01*
X187849458Y-134080406D02*
X187823490Y-134005477D01*
X187823490Y-134005477D02*
X187801976Y-133926772D01*
X187801976Y-133926772D02*
X187784728Y-133842906D01*
X187784728Y-133842906D02*
X187771633Y-133749289D01*
X187771633Y-133749289D02*
X187764459Y-133656285D01*
X187764459Y-133656285D02*
X187762598Y-133577323D01*
X186628740Y-132177716D02*
X186628740Y-134587165D01*
X183085433Y-134161970D02*
X183085433Y-134587167D01*
X182376771Y-132177718D02*
X182376771Y-132177718D01*
X182376771Y-134587167D02*
X182376771Y-132177718D01*
X178021478Y-134426493D02*
X178087128Y-134461735D01*
X178087128Y-134461735D02*
X178158324Y-134494314D01*
X178158324Y-134494314D02*
X178233047Y-134522717D01*
X178233047Y-134522717D02*
X178311748Y-134546689D01*
X178311748Y-134546689D02*
X178393660Y-134565552D01*
X178393660Y-134565552D02*
X178484594Y-134579578D01*
X178484594Y-134579578D02*
X178579801Y-134586739D01*
X178579801Y-134586739D02*
X178681892Y-134586017D01*
X178681892Y-134586017D02*
X178773837Y-134577913D01*
X178773837Y-134577913D02*
X178860007Y-134563775D01*
X178860007Y-134563775D02*
X178940921Y-134544523D01*
X178940921Y-134544523D02*
X179018037Y-134520504D01*
X179018037Y-134520504D02*
X179090927Y-134492390D01*
X179090927Y-134492390D02*
X179159788Y-134460621D01*
X179159788Y-134460621D02*
X179223213Y-134426493D01*
X177420611Y-133385760D02*
X177424505Y-133482612D01*
X177424505Y-133482612D02*
X177435272Y-133573081D01*
X177435272Y-133573081D02*
X177451608Y-133657078D01*
X177451608Y-133657078D02*
X177472774Y-133736068D01*
X177472774Y-133736068D02*
X177498947Y-133812589D01*
X177498947Y-133812589D02*
X177528607Y-133883676D01*
X177528607Y-133883676D02*
X177561703Y-133950746D01*
X177561703Y-133950746D02*
X177598566Y-134015082D01*
X177598566Y-134015082D02*
X177638638Y-134076051D01*
X177638638Y-134076051D02*
X177681632Y-134133595D01*
X177681632Y-134133595D02*
X177727470Y-134187892D01*
X177727470Y-134187892D02*
X177776368Y-134239312D01*
X177776368Y-134239312D02*
X177828185Y-134287725D01*
X177828185Y-134287725D02*
X177884500Y-134334338D01*
X177884500Y-134334338D02*
X177942620Y-134376801D01*
X177942620Y-134376801D02*
X178006844Y-134417905D01*
X178006844Y-134417905D02*
X178021478Y-134426493D01*
X108617716Y-159860000D02*
X108710869Y-159867042D01*
X108710869Y-159867042D02*
X108793323Y-159885958D01*
X108793323Y-159885958D02*
X108866007Y-159913849D01*
X108866007Y-159913849D02*
X108931323Y-159949266D01*
X108931323Y-159949266D02*
X108990338Y-159991168D01*
X108990338Y-159991168D02*
X109043948Y-160039011D01*
X109043948Y-160039011D02*
X109092276Y-160091948D01*
X109092276Y-160091948D02*
X109135919Y-160149849D01*
X109135919Y-160149849D02*
X109174500Y-160211444D01*
X109174500Y-160211444D02*
X109208839Y-160277420D01*
X109208839Y-160277420D02*
X109238943Y-160347572D01*
X109238943Y-160347572D02*
X109264947Y-160422250D01*
X109264947Y-160422250D02*
X109286649Y-160501230D01*
X109286649Y-160501230D02*
X109304273Y-160586720D01*
X109304273Y-160586720D02*
X109316779Y-160675069D01*
X109316779Y-160675069D02*
X109324323Y-160769313D01*
X109324323Y-160769313D02*
X109326378Y-160852126D01*
X108192494Y-161943865D02*
X108192494Y-159860044D01*
X188471260Y-133169842D02*
X187762598Y-133169842D01*
X187762598Y-132177716D02*
X188471260Y-132177716D01*
X187762598Y-133577323D02*
X187762598Y-132177716D01*
X233312318Y-134242590D02*
X233325243Y-134330386D01*
X233325243Y-134330386D02*
X233355814Y-134400010D01*
X233355814Y-134400010D02*
X233398887Y-134457364D01*
X233398887Y-134457364D02*
X233452948Y-134504155D01*
X233452948Y-134504155D02*
X233489412Y-134526524D01*
X232887008Y-132160000D02*
X232178346Y-132160000D01*
X232461811Y-134569449D02*
X232461811Y-132160000D01*
X76639370Y-148594252D02*
X77064566Y-148169055D01*
X76639370Y-147460393D02*
X76639370Y-148594252D01*
X77064566Y-147885590D02*
X76639370Y-147460393D01*
X77064566Y-148169055D02*
X77064566Y-147885590D01*
X111168897Y-160852126D02*
X110460236Y-160852126D01*
X95162598Y-132974960D02*
X95162598Y-131982835D01*
X96296456Y-134374567D02*
X96202407Y-134367379D01*
X96202407Y-134367379D02*
X96120841Y-134348601D01*
X96120841Y-134348601D02*
X96048158Y-134320711D01*
X96048158Y-134320711D02*
X95982841Y-134285293D01*
X95982841Y-134285293D02*
X95923594Y-134243205D01*
X95923594Y-134243205D02*
X95870217Y-134195546D01*
X95870217Y-134195546D02*
X95821691Y-134142372D01*
X95821691Y-134142372D02*
X95777886Y-134084184D01*
X95777886Y-134084184D02*
X95739018Y-134021978D01*
X95739018Y-134021978D02*
X95704606Y-133955611D01*
X95704606Y-133955611D02*
X95674655Y-133885524D01*
X95674655Y-133885524D02*
X95648687Y-133810595D01*
X95648687Y-133810595D02*
X95627173Y-133731890D01*
X95627173Y-133731890D02*
X95609925Y-133648024D01*
X95609925Y-133648024D02*
X95596830Y-133554407D01*
X95596830Y-133554407D02*
X95589656Y-133461403D01*
X95589656Y-133461403D02*
X95587795Y-133382441D01*
X95162598Y-132974960D02*
X95162598Y-134392283D01*
X94453937Y-134392283D02*
X94453937Y-131982834D01*
X100704330Y-159978110D02*
X99712204Y-160970236D01*
X119712204Y-160993858D02*
X120704330Y-160001732D01*
X119712204Y-160993858D02*
X119712204Y-160993858D01*
X113759447Y-160993858D02*
X119712204Y-160993858D01*
X113759447Y-160993858D02*
X112767321Y-161985984D01*
X112767321Y-160001732D02*
X113759447Y-160993858D01*
X151661023Y-153600157D02*
X151661023Y-152182834D01*
X207616143Y-161200157D02*
X207616143Y-159782834D01*
X206907480Y-159782834D02*
X206907480Y-162192283D01*
X206907480Y-162192283D02*
X207005940Y-162184391D01*
X207005940Y-162184391D02*
X207087547Y-162164924D01*
X207087547Y-162164924D02*
X207161021Y-162135964D01*
X207161021Y-162135964D02*
X207225770Y-162100050D01*
X207225770Y-162100050D02*
X207284245Y-162057765D01*
X207284245Y-162057765D02*
X207337128Y-162009850D01*
X207337128Y-162009850D02*
X207384599Y-161957223D01*
X207384599Y-161957223D02*
X207427390Y-161899932D01*
X207427390Y-161899932D02*
X207466206Y-161837414D01*
X207466206Y-161837414D02*
X207500472Y-161770883D01*
X207500472Y-161770883D02*
X207532318Y-161695262D01*
X207532318Y-161695262D02*
X207559051Y-161615747D01*
X207559051Y-161615747D02*
X207580128Y-161535157D01*
X207580128Y-161535157D02*
X207596537Y-161450657D01*
X207596537Y-161450657D02*
X207608201Y-161361534D01*
X207608201Y-161361534D02*
X207614883Y-161265111D01*
X207614883Y-161265111D02*
X207616143Y-161200157D01*
X206198820Y-159782834D02*
X206198820Y-162192283D01*
X119898031Y-132082835D02*
X119898031Y-132082835D01*
X119898031Y-133074960D02*
X119898031Y-132082835D01*
X119898031Y-133074960D02*
X119898031Y-134492283D01*
X119189370Y-134492283D02*
X119189370Y-132082834D01*
X119189370Y-132082834D02*
X119282523Y-132089876D01*
X119282523Y-132089876D02*
X119364977Y-132108792D01*
X119364977Y-132108792D02*
X119437661Y-132136683D01*
X119437661Y-132136683D02*
X119502977Y-132172100D01*
X119502977Y-132172100D02*
X119561992Y-132214002D01*
X119561992Y-132214002D02*
X119615602Y-132261845D01*
X119615602Y-132261845D02*
X119663930Y-132314782D01*
X119663930Y-132314782D02*
X119707573Y-132372683D01*
X119707573Y-132372683D02*
X119746154Y-132434278D01*
X119746154Y-132434278D02*
X119780493Y-132500254D01*
X119780493Y-132500254D02*
X119810597Y-132570406D01*
X119810597Y-132570406D02*
X119836600Y-132645084D01*
X119836600Y-132645084D02*
X119858302Y-132724064D01*
X119858302Y-132724064D02*
X119875926Y-132809554D01*
X119875926Y-132809554D02*
X119888432Y-132897903D01*
X119888432Y-132897903D02*
X119895976Y-132992147D01*
X119895976Y-132992147D02*
X119898031Y-133074960D01*
X89918503Y-131982834D02*
X89918503Y-131982834D01*
X89918503Y-134392283D02*
X89918503Y-131982834D01*
X90414012Y-132479450D02*
X90405070Y-132573628D01*
X90405070Y-132573628D02*
X90383024Y-132652305D01*
X90383024Y-132652305D02*
X90350946Y-132721535D01*
X90350946Y-132721535D02*
X90308093Y-132785660D01*
X90308093Y-132785660D02*
X90259494Y-132838961D01*
X90259494Y-132838961D02*
X90204506Y-132884128D01*
X90204506Y-132884128D02*
X90139726Y-132922950D01*
X90139726Y-132922950D02*
X90068391Y-132951882D01*
X90068391Y-132951882D02*
X89986637Y-132970310D01*
X89986637Y-132970310D02*
X89918503Y-132974960D01*
X89918503Y-131982834D02*
X90013438Y-131991960D01*
X90013438Y-131991960D02*
X90092067Y-132014220D01*
X90092067Y-132014220D02*
X90160587Y-132046162D01*
X90160587Y-132046162D02*
X90222220Y-132087216D01*
X90222220Y-132087216D02*
X90274868Y-132134628D01*
X90274868Y-132134628D02*
X90320636Y-132189495D01*
X90320636Y-132189495D02*
X90358941Y-132251959D01*
X90358941Y-132251959D02*
X90388820Y-132322929D01*
X90388820Y-132322929D02*
X90408359Y-132404344D01*
X90408359Y-132404344D02*
X90414012Y-132479450D01*
X103645799Y-161061067D02*
X103645799Y-161061067D01*
X103373622Y-161277323D02*
X103373622Y-159860000D01*
X207924017Y-134569449D02*
X207924017Y-132160000D01*
X207924017Y-133152126D02*
X207215354Y-133152126D01*
X207215354Y-134569449D02*
X207215354Y-132160000D01*
X210309056Y-159782834D02*
X211017718Y-159782834D01*
X210309056Y-161182441D02*
X210309056Y-159782834D01*
X209883858Y-161200157D02*
X209883858Y-159782834D01*
X211017718Y-162174567D02*
X210923669Y-162167379D01*
X210923669Y-162167379D02*
X210842102Y-162148601D01*
X210842102Y-162148601D02*
X210769419Y-162120711D01*
X210769419Y-162120711D02*
X210704102Y-162085293D01*
X210704102Y-162085293D02*
X210644855Y-162043205D01*
X210644855Y-162043205D02*
X210591478Y-161995546D01*
X210591478Y-161995546D02*
X210542952Y-161942372D01*
X210542952Y-161942372D02*
X210499147Y-161884184D01*
X210499147Y-161884184D02*
X210460279Y-161821978D01*
X210460279Y-161821978D02*
X210425867Y-161755611D01*
X210425867Y-161755611D02*
X210395916Y-161685524D01*
X210395916Y-161685524D02*
X210369948Y-161610595D01*
X210369948Y-161610595D02*
X210348434Y-161531890D01*
X210348434Y-161531890D02*
X210331186Y-161448024D01*
X210331186Y-161448024D02*
X210318091Y-161354407D01*
X210318091Y-161354407D02*
X210310917Y-161261403D01*
X210310917Y-161261403D02*
X210309056Y-161182441D01*
X209175198Y-159782834D02*
X209175198Y-162192283D01*
X104246667Y-160020335D02*
X104184352Y-160058877D01*
X104184352Y-160058877D02*
X104125429Y-160100449D01*
X104125429Y-160100449D02*
X104068737Y-160145795D01*
X104068737Y-160145795D02*
X104016155Y-160193277D01*
X104016155Y-160193277D02*
X103965826Y-160244471D01*
X103965826Y-160244471D02*
X103915413Y-160302536D01*
X103915413Y-160302536D02*
X103872019Y-160359233D01*
X103872019Y-160359233D02*
X103831632Y-160419096D01*
X103831632Y-160419096D02*
X103793974Y-160482972D01*
X103793974Y-160482972D02*
X103760055Y-160549616D01*
X103760055Y-160549616D02*
X103729079Y-160621438D01*
X103729079Y-160621438D02*
X103702789Y-160695290D01*
X103702789Y-160695290D02*
X103680355Y-160774816D01*
X103680355Y-160774816D02*
X103663117Y-160857599D01*
X103663117Y-160857599D02*
X103651161Y-160947479D01*
X103651161Y-160947479D02*
X103645938Y-161042532D01*
X103645938Y-161042532D02*
X103645799Y-161061067D01*
X105448401Y-160020335D02*
X105381067Y-159984254D01*
X105381067Y-159984254D02*
X105311547Y-159952505D01*
X105311547Y-159952505D02*
X105238861Y-159924801D01*
X105238861Y-159924801D02*
X105161379Y-159901007D01*
X105161379Y-159901007D02*
X105078009Y-159881617D01*
X105078009Y-159881617D02*
X104991322Y-159867953D01*
X104991322Y-159867953D02*
X104896755Y-159860337D01*
X104896755Y-159860337D02*
X104795270Y-159860465D01*
X104795270Y-159860465D02*
X104700717Y-159868322D01*
X104700717Y-159868322D02*
X104614057Y-159882207D01*
X104614057Y-159882207D02*
X104530726Y-159901811D01*
X104530726Y-159901811D02*
X104450962Y-159926618D01*
X104450962Y-159926618D02*
X104377236Y-159955156D01*
X104377236Y-159955156D02*
X104307853Y-159987318D01*
X104307853Y-159987318D02*
X104246667Y-160020335D01*
X103645799Y-161061067D02*
X103649693Y-161157919D01*
X103649693Y-161157919D02*
X103660460Y-161248388D01*
X103660460Y-161248388D02*
X103676796Y-161332385D01*
X103676796Y-161332385D02*
X103697962Y-161411375D01*
X103697962Y-161411375D02*
X103724135Y-161487896D01*
X103724135Y-161487896D02*
X103753795Y-161558983D01*
X103753795Y-161558983D02*
X103786891Y-161626053D01*
X103786891Y-161626053D02*
X103823754Y-161690389D01*
X103823754Y-161690389D02*
X103863826Y-161751358D01*
X103863826Y-161751358D02*
X103906820Y-161808902D01*
X103906820Y-161808902D02*
X103952658Y-161863199D01*
X103952658Y-161863199D02*
X104001556Y-161914619D01*
X104001556Y-161914619D02*
X104053373Y-161963032D01*
X104053373Y-161963032D02*
X104109688Y-162009645D01*
X104109688Y-162009645D02*
X104167809Y-162052108D01*
X104167809Y-162052108D02*
X104232033Y-162093212D01*
X104232033Y-162093212D02*
X104246667Y-162101800D01*
X102664960Y-159860000D02*
X102664960Y-162269449D01*
X97231389Y-132003773D02*
X97138949Y-132012021D01*
X97138949Y-132012021D02*
X97060098Y-132033470D01*
X97060098Y-132033470D02*
X97059437Y-132033712D01*
X95587795Y-131982834D02*
X96296456Y-131982834D01*
X95587795Y-133382441D02*
X95587795Y-131982834D01*
X95162598Y-131982835D02*
X95162598Y-131982835D01*
X63405118Y-159832834D02*
X64113779Y-159832834D01*
X63405118Y-162242283D02*
X63405118Y-159832834D01*
X60711446Y-161038884D02*
X60711446Y-161038884D01*
X64619685Y-143682835D02*
X64619685Y-143682835D01*
X64619685Y-144674960D02*
X64619685Y-143682835D01*
X94453937Y-131982834D02*
X94547090Y-131989876D01*
X94547090Y-131989876D02*
X94629544Y-132008792D01*
X94629544Y-132008792D02*
X94702228Y-132036683D01*
X94702228Y-132036683D02*
X94767543Y-132072100D01*
X94767543Y-132072100D02*
X94826558Y-132114002D01*
X94826558Y-132114002D02*
X94880168Y-132161845D01*
X94880168Y-132161845D02*
X94928496Y-132214782D01*
X94928496Y-132214782D02*
X94972139Y-132272683D01*
X94972139Y-132272683D02*
X95010720Y-132334278D01*
X95010720Y-132334278D02*
X95045059Y-132400254D01*
X95045059Y-132400254D02*
X95075163Y-132470406D01*
X95075163Y-132470406D02*
X95101167Y-132545084D01*
X95101167Y-132545084D02*
X95122869Y-132624064D01*
X95122869Y-132624064D02*
X95140493Y-132709554D01*
X95140493Y-132709554D02*
X95152999Y-132797903D01*
X95152999Y-132797903D02*
X95160543Y-132892147D01*
X95160543Y-132892147D02*
X95162598Y-132974960D01*
X91762798Y-133188884D02*
X91762798Y-133188884D01*
X91477559Y-134392283D02*
X91477559Y-131982834D01*
X92363666Y-132148151D02*
X92301351Y-132186693D01*
X92301351Y-132186693D02*
X92242428Y-132228265D01*
X92242428Y-132228265D02*
X92185737Y-132273611D01*
X92185737Y-132273611D02*
X92133155Y-132321093D01*
X92133155Y-132321093D02*
X92082826Y-132372287D01*
X92082826Y-132372287D02*
X92032413Y-132430352D01*
X92032413Y-132430352D02*
X91989019Y-132487049D01*
X91989019Y-132487049D02*
X91948632Y-132546912D01*
X91948632Y-132546912D02*
X91910974Y-132610788D01*
X91910974Y-132610788D02*
X91877054Y-132677432D01*
X91877054Y-132677432D02*
X91846078Y-132749254D01*
X91846078Y-132749254D02*
X91819788Y-132823106D01*
X91819788Y-132823106D02*
X91797354Y-132902632D01*
X91797354Y-132902632D02*
X91780116Y-132985415D01*
X91780116Y-132985415D02*
X91768160Y-133075295D01*
X91768160Y-133075295D02*
X91762937Y-133170349D01*
X91762937Y-133170349D02*
X91762798Y-133188884D01*
X157443934Y-160329450D02*
X157434992Y-160423628D01*
X157434992Y-160423628D02*
X157412946Y-160502305D01*
X157412946Y-160502305D02*
X157380868Y-160571535D01*
X157380868Y-160571535D02*
X157338015Y-160635660D01*
X157338015Y-160635660D02*
X157289416Y-160688961D01*
X157289416Y-160688961D02*
X157234428Y-160734128D01*
X157234428Y-160734128D02*
X157169648Y-160772950D01*
X157169648Y-160772950D02*
X157098313Y-160801882D01*
X157098313Y-160801882D02*
X157016559Y-160820310D01*
X157016559Y-160820310D02*
X156948425Y-160824960D01*
X156948425Y-159832834D02*
X157043360Y-159841960D01*
X157043360Y-159841960D02*
X157121989Y-159864220D01*
X157121989Y-159864220D02*
X157190509Y-159896162D01*
X157190509Y-159896162D02*
X157252142Y-159937216D01*
X157252142Y-159937216D02*
X157304790Y-159984628D01*
X157304790Y-159984628D02*
X157350558Y-160039495D01*
X157350558Y-160039495D02*
X157388863Y-160101959D01*
X157388863Y-160101959D02*
X157418742Y-160172929D01*
X157418742Y-160172929D02*
X157438281Y-160254344D01*
X157438281Y-160254344D02*
X157443934Y-160329450D01*
X206223227Y-133152126D02*
X206223227Y-133152126D01*
X206461184Y-134501433D02*
X206384124Y-134524566D01*
X206384124Y-134524566D02*
X206298744Y-134539364D01*
X206298744Y-134539364D02*
X206201848Y-134543143D01*
X206201848Y-134543143D02*
X206110462Y-134534228D01*
X206110462Y-134534228D02*
X206028638Y-134515629D01*
X206028638Y-134515629D02*
X205953944Y-134489164D01*
X205953944Y-134489164D02*
X205886526Y-134456521D01*
X205886526Y-134456521D02*
X205824615Y-134417958D01*
X205824615Y-134417958D02*
X205766047Y-134372212D01*
X205766047Y-134372212D02*
X205714853Y-134322753D01*
X205714853Y-134322753D02*
X205669071Y-134268391D01*
X205669071Y-134268391D02*
X205628497Y-134208688D01*
X205628497Y-134208688D02*
X205620707Y-134195525D01*
X110460236Y-159860000D02*
X111168897Y-159860000D01*
X110460236Y-161259606D02*
X110460236Y-159860000D01*
X110035039Y-160852126D02*
X110035039Y-162269449D01*
X160916929Y-162242283D02*
X160916929Y-159832834D01*
X159074409Y-159832834D02*
X158224015Y-159832834D01*
X159289998Y-161040545D02*
X159294024Y-161139673D01*
X159294024Y-161139673D02*
X159304856Y-161230073D01*
X159304856Y-161230073D02*
X159321825Y-161316476D01*
X159321825Y-161316476D02*
X159343338Y-161395695D01*
X159343338Y-161395695D02*
X159369195Y-161470502D01*
X159369195Y-161470502D02*
X159398799Y-161540913D01*
X159398799Y-161540913D02*
X159432016Y-161607763D01*
X159432016Y-161607763D02*
X159469181Y-161672177D01*
X159469181Y-161672177D02*
X159509356Y-161732893D01*
X159509356Y-161732893D02*
X159552470Y-161790253D01*
X159552470Y-161790253D02*
X159600367Y-161846557D01*
X159600367Y-161846557D02*
X159649333Y-161897591D01*
X159649333Y-161897591D02*
X159701880Y-161946272D01*
X159701880Y-161946272D02*
X159757622Y-161992062D01*
X159757622Y-161992062D02*
X159815713Y-162034247D01*
X159815713Y-162034247D02*
X159877124Y-162073437D01*
X159877124Y-162073437D02*
X159942209Y-162109560D01*
X159942209Y-162109560D02*
X160011361Y-162142424D01*
X160011361Y-162142424D02*
X160086525Y-162172249D01*
X160086525Y-162172249D02*
X160162294Y-162196561D01*
X160162294Y-162196561D02*
X160244499Y-162216820D01*
X160244499Y-162216820D02*
X160330691Y-162231581D01*
X160330691Y-162231581D02*
X160423171Y-162240355D01*
X160423171Y-162240355D02*
X160491732Y-162242280D01*
X160491733Y-159838811D02*
X160394501Y-159842682D01*
X160394501Y-159842682D02*
X160304058Y-159853375D01*
X160304058Y-159853375D02*
X160219426Y-159869791D01*
X160219426Y-159869791D02*
X160140109Y-159891066D01*
X160140109Y-159891066D02*
X160065197Y-159916701D01*
X160065197Y-159916701D02*
X159992807Y-159946945D01*
X159992807Y-159946945D02*
X159922907Y-159981688D01*
X159922907Y-159981688D02*
X159858552Y-160018948D01*
X159858552Y-160018948D02*
X159796796Y-160059997D01*
X159796796Y-160059997D02*
X159739727Y-160103116D01*
X159739727Y-160103116D02*
X159685713Y-160149180D01*
X159685713Y-160149180D02*
X159633734Y-160199110D01*
X159633734Y-160199110D02*
X159582451Y-160254777D01*
X159582451Y-160254777D02*
X159535809Y-160312162D01*
X159535809Y-160312162D02*
X159493969Y-160370515D01*
X159493969Y-160370515D02*
X159455136Y-160432177D01*
X159455136Y-160432177D02*
X159419396Y-160497502D01*
X159419396Y-160497502D02*
X159386943Y-160566885D01*
X159386943Y-160566885D02*
X159358172Y-160640537D01*
X159358172Y-160640537D02*
X159333951Y-160717350D01*
X159333951Y-160717350D02*
X159314223Y-160799269D01*
X159314223Y-160799269D02*
X159299740Y-160886779D01*
X159299740Y-160886779D02*
X159291512Y-160979662D01*
X159291512Y-160979662D02*
X159289998Y-161040545D01*
X185069685Y-133169842D02*
X185162838Y-133176884D01*
X185162838Y-133176884D02*
X185245292Y-133195800D01*
X185245292Y-133195800D02*
X185317976Y-133223691D01*
X185317976Y-133223691D02*
X185383292Y-133259108D01*
X185383292Y-133259108D02*
X185442307Y-133301010D01*
X185442307Y-133301010D02*
X185495917Y-133348853D01*
X185495917Y-133348853D02*
X185544245Y-133401790D01*
X185544245Y-133401790D02*
X185587888Y-133459691D01*
X185587888Y-133459691D02*
X185626469Y-133521286D01*
X185626469Y-133521286D02*
X185660808Y-133587262D01*
X185660808Y-133587262D02*
X185690912Y-133657414D01*
X185690912Y-133657414D02*
X185716915Y-133732092D01*
X185716915Y-133732092D02*
X185738617Y-133811072D01*
X185738617Y-133811072D02*
X185756241Y-133896562D01*
X185756241Y-133896562D02*
X185768747Y-133984911D01*
X185768747Y-133984911D02*
X185776291Y-134079155D01*
X185776291Y-134079155D02*
X185778346Y-134161968D01*
X206053753Y-132190990D02*
X205984507Y-132222351D01*
X205984507Y-132222351D02*
X205923247Y-132262140D01*
X205923247Y-132262140D02*
X205869932Y-132309109D01*
X205869932Y-132309109D02*
X205823727Y-132363450D01*
X205823727Y-132363450D02*
X205784808Y-132425699D01*
X205784808Y-132425699D02*
X205754494Y-132495832D01*
X205754494Y-132495832D02*
X205734309Y-132575648D01*
X205734309Y-132575648D02*
X205727860Y-132670099D01*
X205727860Y-132670099D02*
X205735247Y-132742660D01*
X206225706Y-132161050D02*
X206133268Y-132169299D01*
X206133268Y-132169299D02*
X206054414Y-132190748D01*
X206054414Y-132190748D02*
X206053753Y-132190990D01*
X97466865Y-134344155D02*
X97389806Y-134367288D01*
X97389806Y-134367288D02*
X97304426Y-134382085D01*
X97304426Y-134382085D02*
X97207530Y-134385864D01*
X97207530Y-134385864D02*
X97116144Y-134376949D01*
X97116144Y-134376949D02*
X97034320Y-134358350D01*
X97034320Y-134358350D02*
X96959626Y-134331885D01*
X96959626Y-134331885D02*
X96892208Y-134299242D01*
X96892208Y-134299242D02*
X96830297Y-134260679D01*
X96830297Y-134260679D02*
X96771729Y-134214933D01*
X96771729Y-134214933D02*
X96720535Y-134165475D01*
X96720535Y-134165475D02*
X96674753Y-134111112D01*
X96674753Y-134111112D02*
X96634179Y-134051409D01*
X96634179Y-134051409D02*
X96626389Y-134038246D01*
X97914072Y-133569568D02*
X97924036Y-133660342D01*
X97924036Y-133660342D02*
X97921453Y-133757814D01*
X97921453Y-133757814D02*
X97907198Y-133845523D01*
X97907198Y-133845523D02*
X97884061Y-133924612D01*
X97884061Y-133924612D02*
X97854275Y-133995280D01*
X97854275Y-133995280D02*
X97817226Y-134061761D01*
X97817226Y-134061761D02*
X97775724Y-134120570D01*
X97775724Y-134120570D02*
X97727902Y-134175280D01*
X97727902Y-134175280D02*
X97675766Y-134223748D01*
X97675766Y-134223748D02*
X97618644Y-134266806D01*
X97618644Y-134266806D02*
X97555805Y-134304583D01*
X97555805Y-134304583D02*
X97486103Y-134336827D01*
X97486103Y-134336827D02*
X97466865Y-134344155D01*
X102664960Y-162269449D02*
X102763420Y-162261557D01*
X102763420Y-162261557D02*
X102845027Y-162242090D01*
X102845027Y-162242090D02*
X102918501Y-162213130D01*
X102918501Y-162213130D02*
X102983249Y-162177216D01*
X102983249Y-162177216D02*
X103041724Y-162134931D01*
X103041724Y-162134931D02*
X103094607Y-162087016D01*
X103094607Y-162087016D02*
X103142078Y-162034389D01*
X103142078Y-162034389D02*
X103184869Y-161977098D01*
X103184869Y-161977098D02*
X103223685Y-161914580D01*
X103223685Y-161914580D02*
X103257951Y-161848049D01*
X103257951Y-161848049D02*
X103289797Y-161772428D01*
X103289797Y-161772428D02*
X103316530Y-161692913D01*
X103316530Y-161692913D02*
X103337607Y-161612323D01*
X103337607Y-161612323D02*
X103354016Y-161527823D01*
X103354016Y-161527823D02*
X103365680Y-161438700D01*
X103365680Y-161438700D02*
X103372362Y-161342277D01*
X103372362Y-161342277D02*
X103373622Y-161277323D01*
X93759447Y-160970236D02*
X93759447Y-160970236D01*
X99712204Y-160970236D02*
X93759447Y-160970236D01*
X75148121Y-146592920D02*
X75097733Y-146646481D01*
X75097733Y-146646481D02*
X75051521Y-146701998D01*
X75051521Y-146701998D02*
X75009025Y-146759762D01*
X75009025Y-146759762D02*
X74969693Y-146820557D01*
X74969693Y-146820557D02*
X74933210Y-146885297D01*
X74933210Y-146885297D02*
X74900277Y-146953335D01*
X74900277Y-146953335D02*
X74871215Y-147024568D01*
X74871215Y-147024568D02*
X74845710Y-147101072D01*
X74845710Y-147101072D02*
X74824959Y-147181037D01*
X74824959Y-147181037D02*
X74809173Y-147266126D01*
X74809173Y-147266126D02*
X74799250Y-147356207D01*
X74799250Y-147356207D02*
X74796141Y-147442676D01*
X75997876Y-146240940D02*
X75900314Y-146244900D01*
X75900314Y-146244900D02*
X75810384Y-146255647D01*
X75810384Y-146255647D02*
X75725483Y-146272208D01*
X75725483Y-146272208D02*
X75646502Y-146293450D01*
X75646502Y-146293450D02*
X75571192Y-146319234D01*
X75571192Y-146319234D02*
X75500182Y-146348837D01*
X75500182Y-146348837D02*
X75431583Y-146382726D01*
X75431583Y-146382726D02*
X75367525Y-146419519D01*
X75367525Y-146419519D02*
X75306087Y-146460016D01*
X75306087Y-146460016D02*
X75248495Y-146503199D01*
X75248495Y-146503199D02*
X75193713Y-146549644D01*
X75193713Y-146549644D02*
X75148121Y-146592920D01*
X76847631Y-146592920D02*
X76793889Y-146542377D01*
X76793889Y-146542377D02*
X76738544Y-146496320D01*
X76738544Y-146496320D02*
X76680592Y-146453694D01*
X76680592Y-146453694D02*
X76618808Y-146413780D01*
X76618808Y-146413780D02*
X76554635Y-146377689D01*
X76554635Y-146377689D02*
X76487209Y-146345076D01*
X76487209Y-146345076D02*
X76414687Y-146315536D01*
X76414687Y-146315536D02*
X76339581Y-146290540D01*
X76339581Y-146290540D02*
X76259508Y-146269758D01*
X76259508Y-146269758D02*
X76174420Y-146253972D01*
X76174420Y-146253972D02*
X76084339Y-146244049D01*
X76084339Y-146244049D02*
X75997876Y-146240940D01*
X77199611Y-147442676D02*
X77195643Y-147345114D01*
X77195643Y-147345114D02*
X77184897Y-147255184D01*
X77184897Y-147255184D02*
X77168334Y-147170283D01*
X77168334Y-147170283D02*
X77146994Y-147090973D01*
X77146994Y-147090973D02*
X77120820Y-147014707D01*
X77120820Y-147014707D02*
X77090946Y-146943315D01*
X77090946Y-146943315D02*
X77057820Y-146876383D01*
X77057820Y-146876383D02*
X77021024Y-146812325D01*
X77021024Y-146812325D02*
X76980527Y-146750886D01*
X76980527Y-146750886D02*
X76937345Y-146693294D01*
X76937345Y-146693294D02*
X76891055Y-146638684D01*
X76891055Y-146638684D02*
X76847631Y-146592920D01*
X99712204Y-160970236D02*
X100704330Y-161962362D01*
X205751847Y-161012482D02*
X205808960Y-161055621D01*
X205808960Y-161055621D02*
X205871555Y-161093392D01*
X205871555Y-161093392D02*
X205940145Y-161125323D01*
X205940145Y-161125323D02*
X206015221Y-161150545D01*
X206015221Y-161150545D02*
X206098190Y-161167902D01*
X206098190Y-161167902D02*
X206191528Y-161175215D01*
X206191528Y-161175215D02*
X206286840Y-161169715D01*
X206286840Y-161169715D02*
X206371894Y-161153480D01*
X206371894Y-161153480D02*
X206449613Y-161128599D01*
X206449613Y-161128599D02*
X206518838Y-161097407D01*
X206518838Y-161097407D02*
X206546922Y-161082043D01*
X205545281Y-160241567D02*
X205522092Y-160318896D01*
X205522092Y-160318896D02*
X205507340Y-160404440D01*
X205507340Y-160404440D02*
X205503616Y-160500891D01*
X205503616Y-160500891D02*
X205512598Y-160592814D01*
X205512598Y-160592814D02*
X205531677Y-160676125D01*
X205531677Y-160676125D02*
X205558244Y-160750494D01*
X205558244Y-160750494D02*
X205591383Y-160818381D01*
X205591383Y-160818381D02*
X205630764Y-160880953D01*
X205630764Y-160880953D02*
X205674813Y-160936965D01*
X205674813Y-160936965D02*
X205724059Y-160987880D01*
X205724059Y-160987880D02*
X205751847Y-161012482D01*
X206199055Y-159783790D02*
X206103539Y-159790347D01*
X206103539Y-159790347D02*
X206020153Y-159807135D01*
X206020153Y-159807135D02*
X205942163Y-159832914D01*
X205942163Y-159832914D02*
X205873621Y-159864576D01*
X205873621Y-159864576D02*
X205810450Y-159902429D01*
X205810450Y-159902429D02*
X205752586Y-159945925D01*
X205752586Y-159945925D02*
X205700453Y-159994261D01*
X205700453Y-159994261D02*
X205653081Y-160048227D01*
X205653081Y-160048227D02*
X205611488Y-160106868D01*
X205611488Y-160106868D02*
X205575488Y-160170908D01*
X205575488Y-160170908D02*
X205545281Y-160241567D01*
X206198820Y-162192283D02*
X206297280Y-162184391D01*
X206297280Y-162184391D02*
X206378887Y-162164924D01*
X206378887Y-162164924D02*
X206452361Y-162135964D01*
X206452361Y-162135964D02*
X206517108Y-162100050D01*
X206517108Y-162100050D02*
X206575583Y-162057765D01*
X206575583Y-162057765D02*
X206628466Y-162009850D01*
X206628466Y-162009850D02*
X206675937Y-161957223D01*
X206675937Y-161957223D02*
X206718728Y-161899932D01*
X206718728Y-161899932D02*
X206757544Y-161837414D01*
X206757544Y-161837414D02*
X206791810Y-161770883D01*
X206791810Y-161770883D02*
X206821673Y-161700479D01*
X206821673Y-161700479D02*
X206847475Y-161625393D01*
X206847475Y-161625393D02*
X206870135Y-161540951D01*
X206870135Y-161540951D02*
X206887318Y-161454062D01*
X206887318Y-161454062D02*
X206899218Y-161364675D01*
X206899218Y-161364675D02*
X206906022Y-161269990D01*
X206906022Y-161269990D02*
X206907480Y-161200157D01*
X118764173Y-134492283D02*
X118764173Y-132082834D01*
X150952363Y-154592283D02*
X151050823Y-154584391D01*
X151050823Y-154584391D02*
X151132429Y-154564924D01*
X151132429Y-154564924D02*
X151205903Y-154535964D01*
X151205903Y-154535964D02*
X151270650Y-154500050D01*
X151270650Y-154500050D02*
X151329125Y-154457765D01*
X151329125Y-154457765D02*
X151382008Y-154409850D01*
X151382008Y-154409850D02*
X151429479Y-154357223D01*
X151429479Y-154357223D02*
X151472270Y-154299932D01*
X151472270Y-154299932D02*
X151511086Y-154237414D01*
X151511086Y-154237414D02*
X151545352Y-154170883D01*
X151545352Y-154170883D02*
X151577198Y-154095262D01*
X151577198Y-154095262D02*
X151603931Y-154015747D01*
X151603931Y-154015747D02*
X151625008Y-153935157D01*
X151625008Y-153935157D02*
X151641417Y-153850657D01*
X151641417Y-153850657D02*
X151653081Y-153761534D01*
X151653081Y-153761534D02*
X151659763Y-153665111D01*
X151659763Y-153665111D02*
X151661023Y-153600157D01*
X211017718Y-160774960D02*
X210309056Y-160774960D01*
X149819141Y-154240300D02*
X149871311Y-154289448D01*
X149871311Y-154289448D02*
X149926764Y-154335751D01*
X149926764Y-154335751D02*
X149985036Y-154378730D01*
X149985036Y-154378730D02*
X150046384Y-154418480D01*
X150046384Y-154418480D02*
X150110300Y-154454566D01*
X150110300Y-154454566D02*
X150177776Y-154487342D01*
X150177776Y-154487342D02*
X150249499Y-154516720D01*
X150249499Y-154516720D02*
X150325534Y-154542183D01*
X150325534Y-154542183D02*
X150407257Y-154563455D01*
X150407257Y-154563455D02*
X150492346Y-154579243D01*
X150492346Y-154579243D02*
X150582427Y-154589164D01*
X150582427Y-154589164D02*
X150668896Y-154592280D01*
X149467161Y-153390545D02*
X149471009Y-153486717D01*
X149471009Y-153486717D02*
X149481582Y-153576207D01*
X149481582Y-153576207D02*
X149497910Y-153660692D01*
X149497910Y-153660692D02*
X149519371Y-153740926D01*
X149519371Y-153740926D02*
X149544968Y-153815937D01*
X149544968Y-153815937D02*
X149574869Y-153887814D01*
X149574869Y-153887814D02*
X149608947Y-153956832D01*
X149608947Y-153956832D02*
X149645740Y-154020888D01*
X149645740Y-154020888D02*
X149687032Y-154083458D01*
X149687032Y-154083458D02*
X149730574Y-154141363D01*
X149730574Y-154141363D02*
X149778358Y-154197460D01*
X149778358Y-154197460D02*
X149819141Y-154240300D01*
X150668896Y-152188811D02*
X150571664Y-152192682D01*
X150571664Y-152192682D02*
X150481221Y-152203375D01*
X150481221Y-152203375D02*
X150396589Y-152219791D01*
X150396589Y-152219791D02*
X150317272Y-152241066D01*
X150317272Y-152241066D02*
X150242360Y-152266701D01*
X150242360Y-152266701D02*
X150169970Y-152296945D01*
X150169970Y-152296945D02*
X150100070Y-152331688D01*
X150100070Y-152331688D02*
X150035715Y-152368948D01*
X150035715Y-152368948D02*
X149973959Y-152409997D01*
X149973959Y-152409997D02*
X149916890Y-152453116D01*
X149916890Y-152453116D02*
X149862876Y-152499180D01*
X149862876Y-152499180D02*
X149810896Y-152549110D01*
X149810896Y-152549110D02*
X149759613Y-152604777D01*
X149759613Y-152604777D02*
X149712971Y-152662162D01*
X149712971Y-152662162D02*
X149671131Y-152720515D01*
X149671131Y-152720515D02*
X149632298Y-152782177D01*
X149632298Y-152782177D02*
X149596558Y-152847502D01*
X149596558Y-152847502D02*
X149564105Y-152916885D01*
X149564105Y-152916885D02*
X149535335Y-152990537D01*
X149535335Y-152990537D02*
X149511114Y-153067350D01*
X149511114Y-153067350D02*
X149491386Y-153149269D01*
X149491386Y-153149269D02*
X149476903Y-153236779D01*
X149476903Y-153236779D02*
X149468675Y-153329662D01*
X149468675Y-153329662D02*
X149467161Y-153390545D01*
X97228910Y-132994847D02*
X97322911Y-133001171D01*
X97322911Y-133001171D02*
X97411800Y-133019201D01*
X97411800Y-133019201D02*
X97487302Y-133044482D01*
X97487302Y-133044482D02*
X97557603Y-133077276D01*
X97557603Y-133077276D02*
X97620143Y-133115174D01*
X97620143Y-133115174D02*
X97677185Y-133158415D01*
X97677185Y-133158415D02*
X97728927Y-133206677D01*
X97728927Y-133206677D02*
X97776187Y-133260790D01*
X97776187Y-133260790D02*
X97817596Y-133319467D01*
X97817596Y-133319467D02*
X97853673Y-133384068D01*
X97853673Y-133384068D02*
X97883451Y-133454368D01*
X97883451Y-133454368D02*
X97906874Y-133534120D01*
X97906874Y-133534120D02*
X97914072Y-133569568D01*
X96296456Y-132974960D02*
X95587795Y-132974960D01*
X96740929Y-132585382D02*
X96762298Y-132666218D01*
X96762298Y-132666218D02*
X96793218Y-132735491D01*
X96793218Y-132735491D02*
X96832625Y-132796874D01*
X96832625Y-132796874D02*
X96879195Y-132850386D01*
X96879195Y-132850386D02*
X96932896Y-132896713D01*
X96932896Y-132896713D02*
X96994363Y-132935857D01*
X96994363Y-132935857D02*
X97064038Y-132966678D01*
X97064038Y-132966678D02*
X97143727Y-132987515D01*
X97143727Y-132987515D02*
X97228910Y-132994847D01*
X97059437Y-132033712D02*
X96990191Y-132065072D01*
X96990191Y-132065072D02*
X96928929Y-132104861D01*
X96928929Y-132104861D02*
X96875614Y-132151830D01*
X96875614Y-132151830D02*
X96829409Y-132206171D01*
X96829409Y-132206171D02*
X96790489Y-132268420D01*
X96790489Y-132268420D02*
X96760175Y-132338553D01*
X96760175Y-132338553D02*
X96739990Y-132418369D01*
X96739990Y-132418369D02*
X96733542Y-132512821D01*
X96733542Y-132512821D02*
X96740929Y-132585382D01*
X102217985Y-161089648D02*
X102275098Y-161132787D01*
X102275098Y-161132787D02*
X102337693Y-161170558D01*
X102337693Y-161170558D02*
X102406283Y-161202489D01*
X102406283Y-161202489D02*
X102481359Y-161227710D01*
X102481359Y-161227710D02*
X102564328Y-161245067D01*
X102564328Y-161245067D02*
X102657665Y-161252380D01*
X102657665Y-161252380D02*
X102752977Y-161246880D01*
X102752977Y-161246880D02*
X102838030Y-161230645D01*
X102838030Y-161230645D02*
X102915749Y-161205765D01*
X102915749Y-161205765D02*
X102984974Y-161174573D01*
X102984974Y-161174573D02*
X103013058Y-161159209D01*
X161625590Y-162242283D02*
X161625590Y-159832834D01*
X61817002Y-143848151D02*
X61754687Y-143886693D01*
X61754687Y-143886693D02*
X61695764Y-143928265D01*
X61695764Y-143928265D02*
X61639073Y-143973611D01*
X61639073Y-143973611D02*
X61586491Y-144021093D01*
X61586491Y-144021093D02*
X61536162Y-144072287D01*
X61536162Y-144072287D02*
X61485749Y-144130352D01*
X61485749Y-144130352D02*
X61442355Y-144187049D01*
X61442355Y-144187049D02*
X61401968Y-144246912D01*
X61401968Y-144246912D02*
X61364310Y-144310788D01*
X61364310Y-144310788D02*
X61330391Y-144377432D01*
X61330391Y-144377432D02*
X61299415Y-144449254D01*
X61299415Y-144449254D02*
X61273125Y-144523106D01*
X61273125Y-144523106D02*
X61250691Y-144602632D01*
X61250691Y-144602632D02*
X61233453Y-144685415D01*
X61233453Y-144685415D02*
X61221497Y-144775295D01*
X61221497Y-144775295D02*
X61216274Y-144870349D01*
X61216274Y-144870349D02*
X61216135Y-144888884D01*
X63018737Y-143848151D02*
X62951403Y-143812070D01*
X62951403Y-143812070D02*
X62881883Y-143780321D01*
X62881883Y-143780321D02*
X62809197Y-143752617D01*
X62809197Y-143752617D02*
X62731715Y-143728823D01*
X62731715Y-143728823D02*
X62648345Y-143709434D01*
X62648345Y-143709434D02*
X62561658Y-143695770D01*
X62561658Y-143695770D02*
X62467091Y-143688154D01*
X62467091Y-143688154D02*
X62365605Y-143688282D01*
X62365605Y-143688282D02*
X62271052Y-143696139D01*
X62271052Y-143696139D02*
X62184392Y-143710023D01*
X62184392Y-143710023D02*
X62101061Y-143729627D01*
X62101061Y-143729627D02*
X62021297Y-143754434D01*
X62021297Y-143754434D02*
X61947571Y-143782972D01*
X61947571Y-143782972D02*
X61878188Y-143815134D01*
X61878188Y-143815134D02*
X61817002Y-143848151D01*
X63619604Y-144888884D02*
X63615702Y-144792022D01*
X63615702Y-144792022D02*
X63604449Y-144698505D01*
X63604449Y-144698505D02*
X63587973Y-144614866D01*
X63587973Y-144614866D02*
X63566581Y-144535789D01*
X63566581Y-144535789D02*
X63539736Y-144458060D01*
X63539736Y-144458060D02*
X63509447Y-144386257D01*
X63509447Y-144386257D02*
X63476065Y-144319334D01*
X63476065Y-144319334D02*
X63439405Y-144255932D01*
X63439405Y-144255932D02*
X63399291Y-144195348D01*
X63399291Y-144195348D02*
X63356105Y-144137941D01*
X63356105Y-144137941D02*
X63309672Y-144083336D01*
X63309672Y-144083336D02*
X63260570Y-144032092D01*
X63260570Y-144032092D02*
X63208090Y-143983463D01*
X63208090Y-143983463D02*
X63152775Y-143938025D01*
X63152775Y-143938025D02*
X63094502Y-143895727D01*
X63094502Y-143895727D02*
X63033095Y-143856572D01*
X63033095Y-143856572D02*
X63018737Y-143848151D01*
X156483977Y-161061432D02*
X156541090Y-161104571D01*
X156541090Y-161104571D02*
X156603685Y-161142342D01*
X156603685Y-161142342D02*
X156672275Y-161174273D01*
X156672275Y-161174273D02*
X156747351Y-161199494D01*
X156747351Y-161199494D02*
X156830320Y-161216851D01*
X156830320Y-161216851D02*
X156923657Y-161224164D01*
X156923657Y-161224164D02*
X157018969Y-161218664D01*
X157018969Y-161218664D02*
X157104023Y-161202429D01*
X157104023Y-161202429D02*
X157181742Y-161177548D01*
X157181742Y-161177548D02*
X157250967Y-161146356D01*
X157250967Y-161146356D02*
X157279051Y-161130992D01*
X156277410Y-160290516D02*
X156254221Y-160367845D01*
X156254221Y-160367845D02*
X156239469Y-160453389D01*
X156239469Y-160453389D02*
X156235745Y-160549841D01*
X156235745Y-160549841D02*
X156244727Y-160641764D01*
X156244727Y-160641764D02*
X156263806Y-160725075D01*
X156263806Y-160725075D02*
X156290373Y-160799444D01*
X156290373Y-160799444D02*
X156323512Y-160867331D01*
X156323512Y-160867331D02*
X156362893Y-160929903D01*
X156362893Y-160929903D02*
X156406942Y-160985915D01*
X156406942Y-160985915D02*
X156456188Y-161036830D01*
X156456188Y-161036830D02*
X156483977Y-161061432D01*
X156931185Y-159832738D02*
X156835669Y-159839296D01*
X156835669Y-159839296D02*
X156752282Y-159856084D01*
X156752282Y-159856084D02*
X156674292Y-159881863D01*
X156674292Y-159881863D02*
X156605750Y-159913525D01*
X156605750Y-159913525D02*
X156542579Y-159951378D01*
X156542579Y-159951378D02*
X156484715Y-159994874D01*
X156484715Y-159994874D02*
X156432582Y-160043210D01*
X156432582Y-160043210D02*
X156385210Y-160097176D01*
X156385210Y-160097176D02*
X156343617Y-160155817D01*
X156343617Y-160155817D02*
X156307617Y-160219857D01*
X156307617Y-160219857D02*
X156277410Y-160290516D01*
X89453414Y-133211432D02*
X89510527Y-133254571D01*
X89510527Y-133254571D02*
X89573122Y-133292342D01*
X89573122Y-133292342D02*
X89641712Y-133324273D01*
X89641712Y-133324273D02*
X89716788Y-133349494D01*
X89716788Y-133349494D02*
X89799757Y-133366851D01*
X89799757Y-133366851D02*
X89893094Y-133374164D01*
X89893094Y-133374164D02*
X89988406Y-133368664D01*
X89988406Y-133368664D02*
X90073459Y-133352429D01*
X90073459Y-133352429D02*
X90151178Y-133327548D01*
X90151178Y-133327548D02*
X90220403Y-133296356D01*
X90220403Y-133296356D02*
X90248487Y-133280992D01*
X89246847Y-132440516D02*
X89223658Y-132517845D01*
X89223658Y-132517845D02*
X89208906Y-132603389D01*
X89208906Y-132603389D02*
X89205182Y-132699841D01*
X89205182Y-132699841D02*
X89214164Y-132791764D01*
X89214164Y-132791764D02*
X89233243Y-132875075D01*
X89233243Y-132875075D02*
X89259810Y-132949444D01*
X89259810Y-132949444D02*
X89292949Y-133017331D01*
X89292949Y-133017331D02*
X89332330Y-133079903D01*
X89332330Y-133079903D02*
X89376379Y-133135915D01*
X89376379Y-133135915D02*
X89425625Y-133186830D01*
X89425625Y-133186830D02*
X89453414Y-133211432D01*
X89900621Y-131982738D02*
X89805105Y-131989296D01*
X89805105Y-131989296D02*
X89721719Y-132006084D01*
X89721719Y-132006084D02*
X89643729Y-132031863D01*
X89643729Y-132031863D02*
X89575187Y-132063525D01*
X89575187Y-132063525D02*
X89512016Y-132101378D01*
X89512016Y-132101378D02*
X89454152Y-132144874D01*
X89454152Y-132144874D02*
X89402019Y-132193210D01*
X89402019Y-132193210D02*
X89354647Y-132247176D01*
X89354647Y-132247176D02*
X89313054Y-132305817D01*
X89313054Y-132305817D02*
X89277054Y-132369857D01*
X89277054Y-132369857D02*
X89246847Y-132440516D01*
X150952363Y-152182834D02*
X150952363Y-154592283D01*
X209175198Y-162192283D02*
X209273658Y-162184391D01*
X209273658Y-162184391D02*
X209355264Y-162164924D01*
X209355264Y-162164924D02*
X209428738Y-162135964D01*
X209428738Y-162135964D02*
X209493485Y-162100050D01*
X209493485Y-162100050D02*
X209551960Y-162057765D01*
X209551960Y-162057765D02*
X209604843Y-162009850D01*
X209604843Y-162009850D02*
X209652314Y-161957223D01*
X209652314Y-161957223D02*
X209695105Y-161899932D01*
X209695105Y-161899932D02*
X209733921Y-161837414D01*
X209733921Y-161837414D02*
X209768187Y-161770883D01*
X209768187Y-161770883D02*
X209800033Y-161695262D01*
X209800033Y-161695262D02*
X209826766Y-161615747D01*
X209826766Y-161615747D02*
X209847843Y-161535157D01*
X209847843Y-161535157D02*
X209864252Y-161450657D01*
X209864252Y-161450657D02*
X209875916Y-161361534D01*
X209875916Y-161361534D02*
X209882598Y-161265111D01*
X209882598Y-161265111D02*
X209883858Y-161200157D01*
X208750001Y-160774960D02*
X208041340Y-160774960D01*
X208041340Y-160774960D02*
X208041340Y-162192283D01*
X208750001Y-162192283D02*
X208750001Y-159782834D01*
X208750001Y-159782834D02*
X208656247Y-159789967D01*
X208656247Y-159789967D02*
X208574664Y-159808706D01*
X208574664Y-159808706D02*
X208501703Y-159836683D01*
X208501703Y-159836683D02*
X208436386Y-159872100D01*
X208436386Y-159872100D02*
X208377023Y-159914278D01*
X208377023Y-159914278D02*
X208323762Y-159961845D01*
X208323762Y-159961845D02*
X208275236Y-160015020D01*
X208275236Y-160015020D02*
X208231701Y-160072814D01*
X208231701Y-160072814D02*
X208192725Y-160135131D01*
X208192725Y-160135131D02*
X208158439Y-160201169D01*
X208158439Y-160201169D02*
X208128138Y-160272029D01*
X208128138Y-160272029D02*
X208102232Y-160346797D01*
X208102232Y-160346797D02*
X208080718Y-160425504D01*
X208080718Y-160425504D02*
X208063470Y-160509367D01*
X208063470Y-160509367D02*
X208050888Y-160598293D01*
X208050888Y-160598293D02*
X208043417Y-160691540D01*
X208043417Y-160691540D02*
X208041340Y-160774960D01*
X182376771Y-133169844D02*
X182469924Y-133176886D01*
X182469924Y-133176886D02*
X182552378Y-133195802D01*
X182552378Y-133195802D02*
X182625062Y-133223693D01*
X182625062Y-133223693D02*
X182690378Y-133259110D01*
X182690378Y-133259110D02*
X182749393Y-133301012D01*
X182749393Y-133301012D02*
X182803003Y-133348855D01*
X182803003Y-133348855D02*
X182851331Y-133401792D01*
X182851331Y-133401792D02*
X182894974Y-133459693D01*
X182894974Y-133459693D02*
X182933555Y-133521288D01*
X182933555Y-133521288D02*
X182967894Y-133587264D01*
X182967894Y-133587264D02*
X182997998Y-133657416D01*
X182997998Y-133657416D02*
X183024002Y-133732094D01*
X183024002Y-133732094D02*
X183045704Y-133811074D01*
X183045704Y-133811074D02*
X183063328Y-133896564D01*
X183063328Y-133896564D02*
X183075834Y-133984913D01*
X183075834Y-133984913D02*
X183083378Y-134079157D01*
X183083378Y-134079157D02*
X183085433Y-134161970D01*
X182872280Y-132674333D02*
X182863338Y-132768511D01*
X182863338Y-132768511D02*
X182841292Y-132847187D01*
X182841292Y-132847187D02*
X182809214Y-132916417D01*
X182809214Y-132916417D02*
X182766361Y-132980542D01*
X182766361Y-132980542D02*
X182717762Y-133033843D01*
X182717762Y-133033843D02*
X182662774Y-133079010D01*
X182662774Y-133079010D02*
X182597994Y-133117832D01*
X182597994Y-133117832D02*
X182526659Y-133146764D01*
X182526659Y-133146764D02*
X182444905Y-133165192D01*
X182444905Y-133165192D02*
X182376771Y-133169842D01*
X182376771Y-132177718D02*
X182471706Y-132186844D01*
X182471706Y-132186844D02*
X182550335Y-132209104D01*
X182550335Y-132209104D02*
X182618855Y-132241046D01*
X182618855Y-132241046D02*
X182680488Y-132282100D01*
X182680488Y-132282100D02*
X182733136Y-132329512D01*
X182733136Y-132329512D02*
X182778904Y-132384379D01*
X182778904Y-132384379D02*
X182817209Y-132446842D01*
X182817209Y-132446842D02*
X182847088Y-132517812D01*
X182847088Y-132517812D02*
X182866627Y-132599227D01*
X182866627Y-132599227D02*
X182872280Y-132674333D01*
X63018737Y-145929617D02*
X63082085Y-145890378D01*
X63082085Y-145890378D02*
X63140958Y-145848750D01*
X63140958Y-145848750D02*
X63196657Y-145804147D01*
X63196657Y-145804147D02*
X63249794Y-145756133D01*
X63249794Y-145756133D02*
X63299568Y-145705472D01*
X63299568Y-145705472D02*
X63349982Y-145647405D01*
X63349982Y-145647405D02*
X63394352Y-145589350D01*
X63394352Y-145589350D02*
X63434573Y-145529561D01*
X63434573Y-145529561D02*
X63472077Y-145465770D01*
X63472077Y-145465770D02*
X63505987Y-145398950D01*
X63505987Y-145398950D02*
X63536202Y-145328788D01*
X63536202Y-145328788D02*
X63563346Y-145252324D01*
X63563346Y-145252324D02*
X63585478Y-145173340D01*
X63585478Y-145173340D02*
X63602847Y-145088999D01*
X63602847Y-145088999D02*
X63614466Y-144999990D01*
X63614466Y-144999990D02*
X63619516Y-144903333D01*
X63619516Y-144903333D02*
X63619604Y-144888884D01*
X61817002Y-145929617D02*
X61882652Y-145964859D01*
X61882652Y-145964859D02*
X61953848Y-145997438D01*
X61953848Y-145997438D02*
X62028571Y-146025841D01*
X62028571Y-146025841D02*
X62107272Y-146049813D01*
X62107272Y-146049813D02*
X62189184Y-146068676D01*
X62189184Y-146068676D02*
X62280118Y-146082702D01*
X62280118Y-146082702D02*
X62375325Y-146089863D01*
X62375325Y-146089863D02*
X62477416Y-146089141D01*
X62477416Y-146089141D02*
X62569361Y-146081037D01*
X62569361Y-146081037D02*
X62655531Y-146066899D01*
X62655531Y-146066899D02*
X62736445Y-146047647D01*
X62736445Y-146047647D02*
X62813561Y-146023628D01*
X62813561Y-146023628D02*
X62886451Y-145995514D01*
X62886451Y-145995514D02*
X62955312Y-145963745D01*
X62955312Y-145963745D02*
X63018737Y-145929617D01*
X61216135Y-144888884D02*
X61220029Y-144985736D01*
X61220029Y-144985736D02*
X61230796Y-145076205D01*
X61230796Y-145076205D02*
X61247132Y-145160202D01*
X61247132Y-145160202D02*
X61268298Y-145239192D01*
X61268298Y-145239192D02*
X61294471Y-145315713D01*
X61294471Y-145315713D02*
X61324131Y-145386800D01*
X61324131Y-145386800D02*
X61357227Y-145453870D01*
X61357227Y-145453870D02*
X61394090Y-145518206D01*
X61394090Y-145518206D02*
X61434162Y-145579175D01*
X61434162Y-145579175D02*
X61477156Y-145636719D01*
X61477156Y-145636719D02*
X61522994Y-145691016D01*
X61522994Y-145691016D02*
X61571892Y-145742436D01*
X61571892Y-145742436D02*
X61623709Y-145790849D01*
X61623709Y-145790849D02*
X61680024Y-145837462D01*
X61680024Y-145837462D02*
X61738144Y-145879925D01*
X61738144Y-145879925D02*
X61802368Y-145921029D01*
X61802368Y-145921029D02*
X61817002Y-145929617D01*
X161625590Y-160824960D02*
X160916929Y-160824960D01*
X185069685Y-132177716D02*
X185069685Y-132177716D01*
X185069685Y-134587165D02*
X185069685Y-132177716D01*
X185565194Y-132674331D02*
X185556252Y-132768509D01*
X185556252Y-132768509D02*
X185534206Y-132847185D01*
X185534206Y-132847185D02*
X185502128Y-132916415D01*
X185502128Y-132916415D02*
X185459275Y-132980540D01*
X185459275Y-132980540D02*
X185410676Y-133033841D01*
X185410676Y-133033841D02*
X185355688Y-133079008D01*
X185355688Y-133079008D02*
X185290908Y-133117830D01*
X185290908Y-133117830D02*
X185219573Y-133146762D01*
X185219573Y-133146762D02*
X185137819Y-133165190D01*
X185137819Y-133165190D02*
X185069685Y-133169841D01*
X158649212Y-162242283D02*
X158649212Y-159832834D01*
X157798819Y-162242283D02*
X157798819Y-159832834D01*
X156948425Y-159832834D02*
X156948425Y-159832834D01*
X156948425Y-162242283D02*
X156948425Y-159832834D01*
X180817716Y-133595039D02*
X180817716Y-132177716D01*
X181951574Y-134569449D02*
X181857525Y-134562261D01*
X181857525Y-134562261D02*
X181775958Y-134543483D01*
X181775958Y-134543483D02*
X181703276Y-134515593D01*
X181703276Y-134515593D02*
X181637959Y-134480175D01*
X181637959Y-134480175D02*
X181578712Y-134438087D01*
X181578712Y-134438087D02*
X181525335Y-134390428D01*
X181525335Y-134390428D02*
X181476809Y-134337254D01*
X181476809Y-134337254D02*
X181433004Y-134279066D01*
X181433004Y-134279066D02*
X181394136Y-134216860D01*
X181394136Y-134216860D02*
X181359724Y-134150493D01*
X181359724Y-134150493D02*
X181329773Y-134080406D01*
X181329773Y-134080406D02*
X181303805Y-134005477D01*
X181303805Y-134005477D02*
X181282291Y-133926772D01*
X181282291Y-133926772D02*
X181265043Y-133842906D01*
X181265043Y-133842906D02*
X181251948Y-133749289D01*
X181251948Y-133749289D02*
X181244774Y-133656285D01*
X181244774Y-133656285D02*
X181242913Y-133577323D01*
X180109055Y-132177716D02*
X180109055Y-134587165D01*
X178622346Y-132184025D02*
X178525114Y-132187896D01*
X178525114Y-132187896D02*
X178434671Y-132198589D01*
X178434671Y-132198589D02*
X178350039Y-132215005D01*
X178350039Y-132215005D02*
X178270722Y-132236280D01*
X178270722Y-132236280D02*
X178195810Y-132261915D01*
X178195810Y-132261915D02*
X178123420Y-132292159D01*
X178123420Y-132292159D02*
X178053520Y-132326902D01*
X178053520Y-132326902D02*
X177989165Y-132364162D01*
X177989165Y-132364162D02*
X177927409Y-132405211D01*
X177927409Y-132405211D02*
X177870340Y-132448330D01*
X177870340Y-132448330D02*
X177816326Y-132494394D01*
X177816326Y-132494394D02*
X177764346Y-132544325D01*
X177764346Y-132544325D02*
X177713063Y-132599992D01*
X177713063Y-132599992D02*
X177666421Y-132657377D01*
X177666421Y-132657377D02*
X177624581Y-132715730D01*
X177624581Y-132715730D02*
X177585748Y-132777392D01*
X177585748Y-132777392D02*
X177550008Y-132842717D01*
X177550008Y-132842717D02*
X177517555Y-132912100D01*
X177517555Y-132912100D02*
X177488785Y-132985752D01*
X177488785Y-132985752D02*
X177464564Y-133062565D01*
X177464564Y-133062565D02*
X177444836Y-133144484D01*
X177444836Y-133144484D02*
X177430353Y-133231994D01*
X177430353Y-133231994D02*
X177422125Y-133324877D01*
X177422125Y-133324877D02*
X177420611Y-133385760D01*
X179824081Y-133385760D02*
X179820201Y-133288528D01*
X179820201Y-133288528D02*
X179809511Y-133198085D01*
X179809511Y-133198085D02*
X179793095Y-133113453D01*
X179793095Y-133113453D02*
X179771954Y-133034579D01*
X179771954Y-133034579D02*
X179746182Y-132959224D01*
X179746182Y-132959224D02*
X179716032Y-132887042D01*
X179716032Y-132887042D02*
X179682912Y-132820137D01*
X179682912Y-132820137D02*
X179646077Y-132756044D01*
X179646077Y-132756044D02*
X179606015Y-132695251D01*
X179606015Y-132695251D02*
X179563005Y-132637805D01*
X179563005Y-132637805D02*
X179514912Y-132581077D01*
X179514912Y-132581077D02*
X179462487Y-132526499D01*
X179462487Y-132526499D02*
X179408106Y-132476477D01*
X179408106Y-132476477D02*
X179352156Y-132430932D01*
X179352156Y-132430932D02*
X179293871Y-132389006D01*
X179293871Y-132389006D02*
X179232267Y-132350083D01*
X179232267Y-132350083D02*
X179167408Y-132314454D01*
X179167408Y-132314454D02*
X179098939Y-132282234D01*
X179098939Y-132282234D02*
X179026028Y-132253506D01*
X179026028Y-132253506D02*
X178949102Y-132228979D01*
X178949102Y-132228979D02*
X178867283Y-132209003D01*
X178867283Y-132209003D02*
X178778217Y-132194038D01*
X178778217Y-132194038D02*
X178685624Y-132185660D01*
X178685624Y-132185660D02*
X178622346Y-132184025D01*
X179223213Y-134426493D02*
X179286561Y-134387254D01*
X179286561Y-134387254D02*
X179345434Y-134345626D01*
X179345434Y-134345626D02*
X179401133Y-134301023D01*
X179401133Y-134301023D02*
X179454270Y-134253009D01*
X179454270Y-134253009D02*
X179504044Y-134202348D01*
X179504044Y-134202348D02*
X179554458Y-134144281D01*
X179554458Y-134144281D02*
X179598828Y-134086226D01*
X179598828Y-134086226D02*
X179639050Y-134026437D01*
X179639050Y-134026437D02*
X179676554Y-133962646D01*
X179676554Y-133962646D02*
X179710464Y-133895826D01*
X179710464Y-133895826D02*
X179740679Y-133825664D01*
X179740679Y-133825664D02*
X179767823Y-133749200D01*
X179767823Y-133749200D02*
X179789955Y-133670216D01*
X179789955Y-133670216D02*
X179807324Y-133585875D01*
X179807324Y-133585875D02*
X179818943Y-133496866D01*
X179818943Y-133496866D02*
X179823993Y-133400209D01*
X179823993Y-133400209D02*
X179824081Y-133385760D01*
X184712365Y-133383369D02*
X184708463Y-133480830D01*
X184708463Y-133480830D02*
X184697756Y-133571267D01*
X184697756Y-133571267D02*
X184681378Y-133655669D01*
X184681378Y-133655669D02*
X184659899Y-133735646D01*
X184659899Y-133735646D02*
X184633976Y-133811183D01*
X184633976Y-133811183D02*
X184603745Y-133883322D01*
X184603745Y-133883322D02*
X184567752Y-133955385D01*
X184567752Y-133955385D02*
X184527410Y-134024214D01*
X184527410Y-134024214D02*
X184486968Y-134084177D01*
X184486968Y-134084177D02*
X184442943Y-134141677D01*
X184442943Y-134141677D02*
X184395001Y-134197037D01*
X184395001Y-134197037D02*
X184345277Y-134247959D01*
X184345277Y-134247959D02*
X184292290Y-134296172D01*
X184292290Y-134296172D02*
X184235052Y-134342286D01*
X184235052Y-134342286D02*
X184172752Y-134386396D01*
X184172752Y-134386396D02*
X184110956Y-134424636D01*
X184110956Y-134424636D02*
X184043901Y-134460594D01*
X184043901Y-134460594D02*
X183974179Y-134492436D01*
X183974179Y-134492436D02*
X183896928Y-134521663D01*
X183896928Y-134521663D02*
X183819046Y-134545154D01*
X183819046Y-134545154D02*
X183736733Y-134563860D01*
X183736733Y-134563860D02*
X183649560Y-134577155D01*
X183649560Y-134577155D02*
X183556116Y-134584255D01*
X183556116Y-134584255D02*
X183510629Y-134585103D01*
X184360385Y-132533614D02*
X184409533Y-132585784D01*
X184409533Y-132585784D02*
X184455836Y-132641237D01*
X184455836Y-132641237D02*
X184498815Y-132699509D01*
X184498815Y-132699509D02*
X184538565Y-132760857D01*
X184538565Y-132760857D02*
X184574651Y-132824773D01*
X184574651Y-132824773D02*
X184607427Y-132892249D01*
X184607427Y-132892249D02*
X184636805Y-132963972D01*
X184636805Y-132963972D02*
X184662268Y-133040007D01*
X184662268Y-133040007D02*
X184683540Y-133121730D01*
X184683540Y-133121730D02*
X184699328Y-133206819D01*
X184699328Y-133206819D02*
X184709249Y-133296900D01*
X184709249Y-133296900D02*
X184712365Y-133383369D01*
X183510629Y-132181634D02*
X183606801Y-132185482D01*
X183606801Y-132185482D02*
X183696291Y-132196055D01*
X183696291Y-132196055D02*
X183780776Y-132212383D01*
X183780776Y-132212383D02*
X183861011Y-132233844D01*
X183861011Y-132233844D02*
X183936022Y-132259441D01*
X183936022Y-132259441D02*
X184007899Y-132289342D01*
X184007899Y-132289342D02*
X184076917Y-132323420D01*
X184076917Y-132323420D02*
X184140973Y-132360213D01*
X184140973Y-132360213D02*
X184203543Y-132401505D01*
X184203543Y-132401505D02*
X184261448Y-132445047D01*
X184261448Y-132445047D02*
X184317545Y-132492831D01*
X184317545Y-132492831D02*
X184360385Y-132533614D01*
X235154724Y-133152126D02*
X235154724Y-134569449D01*
X234446063Y-134569449D02*
X234446063Y-132160000D01*
X234446063Y-132160000D02*
X234539216Y-132167042D01*
X234539216Y-132167042D02*
X234621670Y-132185958D01*
X234621670Y-132185958D02*
X234694354Y-132213849D01*
X234694354Y-132213849D02*
X234759669Y-132249266D01*
X234759669Y-132249266D02*
X234818684Y-132291168D01*
X234818684Y-132291168D02*
X234872294Y-132339011D01*
X234872294Y-132339011D02*
X234920622Y-132391948D01*
X234920622Y-132391948D02*
X234964265Y-132449849D01*
X234964265Y-132449849D02*
X235002846Y-132511444D01*
X235002846Y-132511444D02*
X235037185Y-132577420D01*
X235037185Y-132577420D02*
X235067289Y-132647572D01*
X235067289Y-132647572D02*
X235093293Y-132722250D01*
X235093293Y-132722250D02*
X235114995Y-132801230D01*
X235114995Y-132801230D02*
X235132619Y-132886720D01*
X235132619Y-132886720D02*
X235145125Y-132975069D01*
X235145125Y-132975069D02*
X235152669Y-133069313D01*
X235152669Y-133069313D02*
X235154724Y-133152126D01*
X107661067Y-162226524D02*
X107732291Y-162255465D01*
X107732291Y-162255465D02*
X107819891Y-162270009D01*
X107819891Y-162270009D02*
X107914018Y-162262842D01*
X107914018Y-162262842D02*
X107990783Y-162238446D01*
X107990783Y-162238446D02*
X108015256Y-162226524D01*
X107483971Y-161942590D02*
X107496897Y-162030386D01*
X107496897Y-162030386D02*
X107527468Y-162100010D01*
X107527468Y-162100010D02*
X107570542Y-162157364D01*
X107570542Y-162157364D02*
X107624603Y-162204155D01*
X107624603Y-162204155D02*
X107661067Y-162226524D01*
X231731256Y-133389648D02*
X231788369Y-133432787D01*
X231788369Y-133432787D02*
X231850964Y-133470558D01*
X231850964Y-133470558D02*
X231919554Y-133502489D01*
X231919554Y-133502489D02*
X231994630Y-133527711D01*
X231994630Y-133527711D02*
X232077599Y-133545068D01*
X232077599Y-133545068D02*
X232170936Y-133552381D01*
X232170936Y-133552381D02*
X232266248Y-133546881D01*
X232266248Y-133546881D02*
X232351302Y-133530646D01*
X232351302Y-133530646D02*
X232429021Y-133505765D01*
X232429021Y-133505765D02*
X232498246Y-133474573D01*
X232498246Y-133474573D02*
X232526330Y-133459209D01*
X231524690Y-132618732D02*
X231501501Y-132696061D01*
X231501501Y-132696061D02*
X231486749Y-132781605D01*
X231486749Y-132781605D02*
X231483025Y-132878056D01*
X231483025Y-132878056D02*
X231492007Y-132969979D01*
X231492007Y-132969979D02*
X231511086Y-133053291D01*
X231511086Y-133053291D02*
X231537653Y-133127660D01*
X231537653Y-133127660D02*
X231570792Y-133195547D01*
X231570792Y-133195547D02*
X231610173Y-133258119D01*
X231610173Y-133258119D02*
X231654222Y-133314131D01*
X231654222Y-133314131D02*
X231703468Y-133365046D01*
X231703468Y-133365046D02*
X231731256Y-133389648D01*
X232178464Y-132160955D02*
X232082948Y-132167513D01*
X232082948Y-132167513D02*
X231999561Y-132184301D01*
X231999561Y-132184301D02*
X231921571Y-132210080D01*
X231921571Y-132210080D02*
X231853029Y-132241742D01*
X231853029Y-132241742D02*
X231789858Y-132279595D01*
X231789858Y-132279595D02*
X231731994Y-132323091D01*
X231731994Y-132323091D02*
X231679861Y-132371427D01*
X231679861Y-132371427D02*
X231632489Y-132425393D01*
X231632489Y-132425393D02*
X231590896Y-132484033D01*
X231590896Y-132484033D02*
X231554897Y-132548073D01*
X231554897Y-132548073D02*
X231524690Y-132618732D01*
X104246667Y-162101800D02*
X104312317Y-162137042D01*
X104312317Y-162137042D02*
X104383513Y-162169621D01*
X104383513Y-162169621D02*
X104458236Y-162198025D01*
X104458236Y-162198025D02*
X104536937Y-162221997D01*
X104536937Y-162221997D02*
X104618849Y-162240860D01*
X104618849Y-162240860D02*
X104709783Y-162254886D01*
X104709783Y-162254886D02*
X104804990Y-162262047D01*
X104804990Y-162262047D02*
X104907080Y-162261325D01*
X104907080Y-162261325D02*
X104999025Y-162253221D01*
X104999025Y-162253221D02*
X105085195Y-162239083D01*
X105085195Y-162239083D02*
X105166109Y-162219831D01*
X105166109Y-162219831D02*
X105243225Y-162195812D01*
X105243225Y-162195812D02*
X105316115Y-162167697D01*
X105316115Y-162167697D02*
X105384976Y-162135928D01*
X105384976Y-162135928D02*
X105448401Y-162101800D01*
X107483858Y-159860000D02*
X107483858Y-161943724D01*
X108015256Y-162226524D02*
X108075133Y-162186261D01*
X108075133Y-162186261D02*
X108124805Y-162135170D01*
X108124805Y-162135170D02*
X108163104Y-162073044D01*
X108163104Y-162073044D02*
X108187442Y-161997018D01*
X108187442Y-161997018D02*
X108192352Y-161942590D01*
X106049269Y-161061067D02*
X106045367Y-160964206D01*
X106045367Y-160964206D02*
X106034114Y-160870689D01*
X106034114Y-160870689D02*
X106017638Y-160787050D01*
X106017638Y-160787050D02*
X105996246Y-160707973D01*
X105996246Y-160707973D02*
X105969401Y-160630244D01*
X105969401Y-160630244D02*
X105939112Y-160558441D01*
X105939112Y-160558441D02*
X105905730Y-160491518D01*
X105905730Y-160491518D02*
X105869070Y-160428116D01*
X105869070Y-160428116D02*
X105828955Y-160367532D01*
X105828955Y-160367532D02*
X105785769Y-160310125D01*
X105785769Y-160310125D02*
X105739336Y-160255520D01*
X105739336Y-160255520D02*
X105690234Y-160204276D01*
X105690234Y-160204276D02*
X105637754Y-160155647D01*
X105637754Y-160155647D02*
X105582439Y-160110209D01*
X105582439Y-160110209D02*
X105524166Y-160067911D01*
X105524166Y-160067911D02*
X105462759Y-160028756D01*
X105462759Y-160028756D02*
X105448401Y-160020335D01*
X105448401Y-162101800D02*
X105511749Y-162062561D01*
X105511749Y-162062561D02*
X105570622Y-162020933D01*
X105570622Y-162020933D02*
X105626321Y-161976330D01*
X105626321Y-161976330D02*
X105679458Y-161928316D01*
X105679458Y-161928316D02*
X105729232Y-161877655D01*
X105729232Y-161877655D02*
X105779646Y-161819588D01*
X105779646Y-161819588D02*
X105824016Y-161761533D01*
X105824016Y-161761533D02*
X105864238Y-161701744D01*
X105864238Y-161701744D02*
X105901742Y-161637953D01*
X105901742Y-161637953D02*
X105935652Y-161571133D01*
X105935652Y-161571133D02*
X105965867Y-161500971D01*
X105965867Y-161500971D02*
X105993011Y-161424507D01*
X105993011Y-161424507D02*
X106015143Y-161345523D01*
X106015143Y-161345523D02*
X106032512Y-161261182D01*
X106032512Y-161261182D02*
X106044131Y-161172173D01*
X106044131Y-161172173D02*
X106049181Y-161075516D01*
X106049181Y-161075516D02*
X106049269Y-161061067D01*
X102011419Y-160318732D02*
X101988230Y-160396061D01*
X101988230Y-160396061D02*
X101973478Y-160481605D01*
X101973478Y-160481605D02*
X101969754Y-160578056D01*
X101969754Y-160578056D02*
X101978736Y-160669979D01*
X101978736Y-160669979D02*
X101997815Y-160753291D01*
X101997815Y-160753291D02*
X102024382Y-160827660D01*
X102024382Y-160827660D02*
X102057521Y-160895547D01*
X102057521Y-160895547D02*
X102096902Y-160958119D01*
X102096902Y-160958119D02*
X102140951Y-161014131D01*
X102140951Y-161014131D02*
X102190197Y-161065046D01*
X102190197Y-161065046D02*
X102217985Y-161089648D01*
X106350000Y-162269449D02*
X107058661Y-162269449D01*
X106350000Y-159860000D02*
X106350000Y-162269449D01*
D12*
X146700501Y-136265134D02*
X147012514Y-136313187D01*
X147012514Y-136313187D02*
X147258076Y-136428683D01*
X147258076Y-136428683D02*
X147456149Y-136594390D01*
X147456149Y-136594390D02*
X147608576Y-136806526D01*
X147608576Y-136806526D02*
X147707049Y-137069144D01*
X147707049Y-137069144D02*
X147731957Y-137294638D01*
X145815407Y-138321846D02*
X144340251Y-138321846D01*
X147731957Y-137294638D02*
X147683560Y-137606492D01*
X147683560Y-137606492D02*
X147567247Y-137851699D01*
X147567247Y-137851699D02*
X147400298Y-138049265D01*
X147400298Y-138049265D02*
X147185972Y-138201177D01*
X147185972Y-138201177D02*
X146921718Y-138298162D01*
X146921718Y-138298162D02*
X146700501Y-138321846D01*
D13*
X150987134Y-133326970D02*
X152307748Y-133326970D01*
X149666518Y-133326970D02*
X150987134Y-133326970D01*
D12*
X151580180Y-137470833D02*
X151669712Y-137744729D01*
X151669712Y-137744729D02*
X151814308Y-137962745D01*
X151814308Y-137962745D02*
X152005551Y-138134753D01*
X152005551Y-138134753D02*
X152242892Y-138257750D01*
X152242892Y-138257750D02*
X152545626Y-138318454D01*
X152545626Y-138318454D02*
X152595966Y-138319667D01*
X152243189Y-136327199D02*
X152005073Y-136450345D01*
X152005073Y-136450345D02*
X151814860Y-136621503D01*
X151814860Y-136621503D02*
X151670648Y-136838575D01*
X151670648Y-136838575D02*
X151580582Y-137111061D01*
X151580582Y-137111061D02*
X151580180Y-137470833D01*
X152601126Y-136265134D02*
X152286741Y-136312488D01*
X152286741Y-136312488D02*
X152243189Y-136327199D01*
D13*
X155846470Y-132445526D02*
X153908968Y-132445526D01*
X155256408Y-133914604D02*
X155846470Y-132445526D01*
X153486220Y-133914604D02*
X155256408Y-133914604D01*
X155608363Y-133033155D02*
X157026595Y-133033155D01*
X156731565Y-133914604D02*
X155256408Y-133914604D01*
X157026595Y-133033155D02*
X156731565Y-133914604D01*
X157911689Y-133914604D02*
X162632189Y-133914604D01*
X146110438Y-132445526D02*
X148047941Y-132445526D01*
X146700501Y-133914604D02*
X146110438Y-132445526D01*
X148470688Y-133914604D02*
X146700501Y-133914604D01*
X147880626Y-131857887D02*
X148470688Y-133914604D01*
X154076283Y-131857887D02*
X147880626Y-131857887D01*
X153486220Y-133914604D02*
X154076283Y-131857887D01*
X150978454Y-133914604D02*
X153486220Y-133914604D01*
X148470688Y-133914604D02*
X150978454Y-133914604D01*
X146348546Y-133033155D02*
X144930313Y-133033155D01*
X145225345Y-133914604D02*
X146700501Y-133914604D01*
X144930313Y-133033155D02*
X145225345Y-133914604D01*
X139324719Y-133914604D02*
X144045219Y-133914604D01*
D12*
X160566972Y-136265134D02*
X158796783Y-136265134D01*
X159681877Y-141260000D02*
X159681877Y-136265134D01*
X161157033Y-141260000D02*
X161157033Y-136265134D01*
X162649857Y-138322851D02*
X162962147Y-138370915D01*
X162962147Y-138370915D02*
X163207546Y-138485905D01*
X163207546Y-138485905D02*
X163405435Y-138650767D01*
X163405435Y-138650767D02*
X163556785Y-138860490D01*
X163556785Y-138860490D02*
X163655622Y-139122170D01*
X163655622Y-139122170D02*
X163665644Y-139171685D01*
X162632189Y-141260000D02*
X162632189Y-136265134D01*
X155256408Y-141260000D02*
X155256408Y-138321846D01*
X155757085Y-136265134D02*
X155256408Y-138321846D01*
X154753979Y-136265134D02*
X155256408Y-138321846D01*
X150535908Y-138321846D02*
X149060751Y-138321846D01*
X146700501Y-141260010D02*
X146700501Y-136265134D01*
X146700501Y-138321846D02*
X147021545Y-138362946D01*
X147021545Y-138362946D02*
X147280553Y-138464883D01*
X147280553Y-138464883D02*
X147497154Y-138610835D01*
X147497154Y-138610835D02*
X147677841Y-138790178D01*
X147677841Y-138790178D02*
X147830910Y-139002210D01*
X147830910Y-139002210D02*
X147955179Y-139239934D01*
X147955179Y-139239934D02*
X148052615Y-139503072D01*
X148052615Y-139503072D02*
X148123497Y-139794233D01*
X148123497Y-139794233D02*
X148165416Y-140114126D01*
X148165416Y-140114126D02*
X148175657Y-140378562D01*
X153091295Y-141116828D02*
X152802473Y-141189228D01*
X152802473Y-141189228D02*
X152449562Y-141196544D01*
X152449562Y-141196544D02*
X152151520Y-141134211D01*
X152151520Y-141134211D02*
X151898494Y-141025592D01*
X151898494Y-141025592D02*
X151682818Y-140881210D01*
X151682818Y-140881210D02*
X151499163Y-140703601D01*
X151499163Y-140703601D02*
X151347707Y-140492846D01*
X151347707Y-140492846D02*
X151341753Y-140482670D01*
X154022207Y-139511084D02*
X154041536Y-139851915D01*
X154041536Y-139851915D02*
X153988329Y-140158734D01*
X153988329Y-140158734D02*
X153885823Y-140417365D01*
X153885823Y-140417365D02*
X153746125Y-140638047D01*
X153746125Y-140638047D02*
X153572985Y-140826383D01*
X153572985Y-140826383D02*
X153367508Y-140982287D01*
X153367508Y-140982287D02*
X153127299Y-141103237D01*
X153127299Y-141103237D02*
X153091295Y-141116828D01*
X158206721Y-136265134D02*
X158206721Y-136265134D01*
X158206721Y-138321846D02*
X158206721Y-136265134D01*
X158206721Y-138321846D02*
X158206721Y-141260000D01*
X156731565Y-141260000D02*
X156731565Y-136265134D01*
X156731565Y-136265134D02*
X157052608Y-136306234D01*
X157052608Y-136306234D02*
X157311616Y-136408171D01*
X157311616Y-136408171D02*
X157528217Y-136554123D01*
X157528217Y-136554123D02*
X157708904Y-136733466D01*
X157708904Y-136733466D02*
X157861973Y-136945498D01*
X157861973Y-136945498D02*
X157986242Y-137183222D01*
X157986242Y-137183222D02*
X158083678Y-137446359D01*
X158083678Y-137446359D02*
X158154560Y-137737519D01*
X158154560Y-137737519D02*
X158196480Y-138057411D01*
X158196480Y-138057411D02*
X158206721Y-138321846D01*
X152595966Y-138319667D02*
X152595966Y-138319667D01*
D13*
X161747096Y-144491979D02*
X151716033Y-144491979D01*
X149945845Y-144491979D02*
X140209813Y-144491979D01*
X151421001Y-142729087D02*
X150830939Y-143316716D01*
X150830939Y-142141453D02*
X151421001Y-142729087D01*
X150240876Y-142729087D02*
X150830939Y-142141453D01*
X150830939Y-143316716D02*
X150240876Y-142729087D01*
X162632186Y-143610531D02*
X152601126Y-143610531D01*
X139324719Y-143610531D02*
X149060751Y-143610531D01*
D12*
X163517280Y-142729087D02*
X163517280Y-142729087D01*
X163517280Y-142729087D02*
X163517280Y-142729087D01*
X163517280Y-142729087D02*
X163517280Y-142729087D01*
X152306093Y-142729087D02*
X163517280Y-142729087D01*
X150830939Y-144198165D02*
X152306093Y-142729087D01*
X149355783Y-142729087D02*
X150830939Y-144198165D01*
X138439625Y-142729087D02*
X149355783Y-142729087D01*
X138439625Y-134796052D02*
X163517280Y-134796052D01*
X152595966Y-138319667D02*
X152920657Y-138356171D01*
X152920657Y-138356171D02*
X153193223Y-138447773D01*
X153193223Y-138447773D02*
X153423353Y-138578020D01*
X153423353Y-138578020D02*
X153620484Y-138742280D01*
X153620484Y-138742280D02*
X153787285Y-138941258D01*
X153787285Y-138941258D02*
X153917601Y-139171369D01*
X153917601Y-139171369D02*
X154008306Y-139442308D01*
X154008306Y-139442308D02*
X154022207Y-139511084D01*
D13*
X149355783Y-132445521D02*
X149666518Y-133326970D01*
X152618483Y-132445521D02*
X149355783Y-132445521D01*
X152307748Y-133326970D02*
X152618483Y-132445521D01*
D12*
X145815407Y-141223273D02*
X145494357Y-141182167D01*
X145494357Y-141182167D02*
X145233482Y-141079231D01*
X145233482Y-141079231D02*
X145017799Y-140933493D01*
X145017799Y-140933493D02*
X144835783Y-140752249D01*
X144835783Y-140752249D02*
X144683586Y-140540613D01*
X144683586Y-140540613D02*
X144558294Y-140299672D01*
X144558294Y-140299672D02*
X144460796Y-140033830D01*
X144460796Y-140033830D02*
X144390758Y-139741986D01*
X144390758Y-139741986D02*
X144349815Y-139422321D01*
X144349815Y-139422321D02*
X144340251Y-139166567D01*
X149060751Y-136265134D02*
X150535908Y-136265134D01*
X149060751Y-139166567D02*
X149060751Y-136265134D01*
X148175657Y-140378562D02*
X148175657Y-141260010D01*
X150535908Y-141223273D02*
X150214857Y-141182167D01*
X150214857Y-141182167D02*
X149953982Y-141079231D01*
X149953982Y-141079231D02*
X149738299Y-140933493D01*
X149738299Y-140933493D02*
X149556283Y-140752249D01*
X149556283Y-140752249D02*
X149404086Y-140540613D01*
X149404086Y-140540613D02*
X149278794Y-140299672D01*
X149278794Y-140299672D02*
X149181296Y-140033830D01*
X149181296Y-140033830D02*
X149111258Y-139741986D01*
X149111258Y-139741986D02*
X149070315Y-139422321D01*
X149070315Y-139422321D02*
X149060751Y-139166567D01*
X146700501Y-136265134D02*
X146700501Y-136265134D01*
X161157033Y-138321846D02*
X162632189Y-138321846D01*
X163002636Y-140315318D02*
X162701429Y-140376116D01*
X162701429Y-140376116D02*
X162376654Y-140340589D01*
X162376654Y-140340589D02*
X162123042Y-140233248D01*
X162123042Y-140233248D02*
X161919963Y-140076051D01*
X161919963Y-140076051D02*
X161762409Y-139873577D01*
X161762409Y-139873577D02*
X161756589Y-139863662D01*
X163665644Y-139171685D02*
X163665235Y-139531451D01*
X163665235Y-139531451D02*
X163575929Y-139802389D01*
X163575929Y-139802389D02*
X163431747Y-140020087D01*
X163431747Y-140020087D02*
X163241900Y-140191360D01*
X163241900Y-140191360D02*
X163004700Y-140314565D01*
X163004700Y-140314565D02*
X163002636Y-140315318D01*
X143455157Y-138321846D02*
X141980000Y-138321846D01*
X143455157Y-141260000D02*
X143455157Y-136265134D01*
X144340251Y-136265134D02*
X145815407Y-136265134D01*
X144340251Y-139166567D02*
X144340251Y-136265134D01*
X139915024Y-136267109D02*
X139590444Y-136303667D01*
X139590444Y-136303667D02*
X139320056Y-136394338D01*
X139320056Y-136394338D02*
X139088527Y-136525024D01*
X139088527Y-136525024D02*
X138890333Y-136690112D01*
X138890333Y-136690112D02*
X138725013Y-136887167D01*
X138725013Y-136887167D02*
X138594385Y-137117195D01*
X138594385Y-137117195D02*
X138516130Y-137336100D01*
X138516130Y-137336100D02*
X138467946Y-137648530D01*
X138467946Y-137648530D02*
X138493280Y-137984407D01*
X138493280Y-137984407D02*
X138576847Y-138260903D01*
X138576847Y-138260903D02*
X138702047Y-138497503D01*
X138702047Y-138497503D02*
X138862075Y-138699821D01*
X138862075Y-138699821D02*
X139053363Y-138868687D01*
X139053363Y-138868687D02*
X139190903Y-138958437D01*
X139190903Y-138958437D02*
X139440768Y-139072252D01*
X139440768Y-139072252D02*
X139733609Y-139140402D01*
X139733609Y-139140402D02*
X140095925Y-139140366D01*
X140095925Y-139140366D02*
X140388240Y-139072569D01*
X140388240Y-139072569D02*
X140636875Y-138959881D01*
X140636875Y-138959881D02*
X140854357Y-138807185D01*
X140854357Y-138807185D02*
X140939085Y-138729233D01*
X140504844Y-141260000D02*
X140504844Y-136265134D01*
X141389938Y-136265134D02*
X139914781Y-136265134D01*
X141980000Y-141260000D02*
X141980000Y-136265134D01*
M02*
