G04 #@! TF.GenerationSoftware,KiCad,Pcbnew,5.1.5-5.1.5*
G04 #@! TF.CreationDate,2020-10-27T19:01:29+01:00*
G04 #@! TF.ProjectId,theresynth-frontpanel,74686572-6573-4796-9e74-682d66726f6e,rev?*
G04 #@! TF.SameCoordinates,Original*
G04 #@! TF.FileFunction,Legend,Bot*
G04 #@! TF.FilePolarity,Positive*
%FSLAX46Y46*%
G04 Gerber Fmt 4.6, Leading zero omitted, Abs format (unit mm)*
G04 Created by KiCad (PCBNEW 5.1.5-5.1.5) date 2020-10-27 19:01:29*
%MOMM*%
%LPD*%
G04 APERTURE LIST*
%ADD10C,0.150000*%
G04 APERTURE END LIST*
D10*
X67419047Y-137222380D02*
X67419047Y-137936666D01*
X67466666Y-138079523D01*
X67561904Y-138174761D01*
X67704761Y-138222380D01*
X67800000Y-138222380D01*
X66466666Y-138222380D02*
X66942857Y-138222380D01*
X66942857Y-137222380D01*
X65561904Y-138127142D02*
X65609523Y-138174761D01*
X65752380Y-138222380D01*
X65847619Y-138222380D01*
X65990476Y-138174761D01*
X66085714Y-138079523D01*
X66133333Y-137984285D01*
X66180952Y-137793809D01*
X66180952Y-137650952D01*
X66133333Y-137460476D01*
X66085714Y-137365238D01*
X65990476Y-137270000D01*
X65847619Y-137222380D01*
X65752380Y-137222380D01*
X65609523Y-137270000D01*
X65561904Y-137317619D01*
X64847619Y-137222380D02*
X64847619Y-137936666D01*
X64895238Y-138079523D01*
X64990476Y-138174761D01*
X65133333Y-138222380D01*
X65228571Y-138222380D01*
X63895238Y-138222380D02*
X64371428Y-138222380D01*
X64371428Y-137222380D01*
X62990476Y-138127142D02*
X63038095Y-138174761D01*
X63180952Y-138222380D01*
X63276190Y-138222380D01*
X63419047Y-138174761D01*
X63514285Y-138079523D01*
X63561904Y-137984285D01*
X63609523Y-137793809D01*
X63609523Y-137650952D01*
X63561904Y-137460476D01*
X63514285Y-137365238D01*
X63419047Y-137270000D01*
X63276190Y-137222380D01*
X63180952Y-137222380D01*
X63038095Y-137270000D01*
X62990476Y-137317619D01*
X62276190Y-137222380D02*
X62276190Y-137936666D01*
X62323809Y-138079523D01*
X62419047Y-138174761D01*
X62561904Y-138222380D01*
X62657142Y-138222380D01*
X61323809Y-138222380D02*
X61800000Y-138222380D01*
X61800000Y-137222380D01*
X60419047Y-138127142D02*
X60466666Y-138174761D01*
X60609523Y-138222380D01*
X60704761Y-138222380D01*
X60847619Y-138174761D01*
X60942857Y-138079523D01*
X60990476Y-137984285D01*
X61038095Y-137793809D01*
X61038095Y-137650952D01*
X60990476Y-137460476D01*
X60942857Y-137365238D01*
X60847619Y-137270000D01*
X60704761Y-137222380D01*
X60609523Y-137222380D01*
X60466666Y-137270000D01*
X60419047Y-137317619D01*
X59704761Y-137222380D02*
X59704761Y-137936666D01*
X59752380Y-138079523D01*
X59847619Y-138174761D01*
X59990476Y-138222380D01*
X60085714Y-138222380D01*
X58752380Y-138222380D02*
X59228571Y-138222380D01*
X59228571Y-137222380D01*
X57847619Y-138127142D02*
X57895238Y-138174761D01*
X58038095Y-138222380D01*
X58133333Y-138222380D01*
X58276190Y-138174761D01*
X58371428Y-138079523D01*
X58419047Y-137984285D01*
X58466666Y-137793809D01*
X58466666Y-137650952D01*
X58419047Y-137460476D01*
X58371428Y-137365238D01*
X58276190Y-137270000D01*
X58133333Y-137222380D01*
X58038095Y-137222380D01*
X57895238Y-137270000D01*
X57847619Y-137317619D01*
M02*
