G04 #@! TF.GenerationSoftware,KiCad,Pcbnew,5.1.5-5.1.5*
G04 #@! TF.CreationDate,2020-10-27T19:01:29+01:00*
G04 #@! TF.ProjectId,theresynth-frontpanel,74686572-6573-4796-9e74-682d66726f6e,rev?*
G04 #@! TF.SameCoordinates,Original*
G04 #@! TF.FileFunction,Soldermask,Top*
G04 #@! TF.FilePolarity,Negative*
%FSLAX46Y46*%
G04 Gerber Fmt 4.6, Leading zero omitted, Abs format (unit mm)*
G04 Created by KiCad (PCBNEW 5.1.5-5.1.5) date 2020-10-27 19:01:29*
%MOMM*%
%LPD*%
G04 APERTURE LIST*
%ADD10C,0.100000*%
G04 APERTURE END LIST*
D10*
G36*
X59400000Y-154270000D02*
G01*
X57800000Y-154270000D01*
X57800000Y-152070000D01*
X59400000Y-152070000D01*
X59400000Y-154270000D01*
G37*
X59400000Y-154270000D02*
X57800000Y-154270000D01*
X57800000Y-152070000D01*
X59400000Y-152070000D01*
X59400000Y-154270000D01*
G36*
X77227477Y-152123892D02*
G01*
X77570541Y-152265994D01*
X78055707Y-152466956D01*
X78801093Y-152965008D01*
X79434992Y-153598907D01*
X79933044Y-154344293D01*
X80134006Y-154829459D01*
X80276108Y-155172523D01*
X80451000Y-156051764D01*
X80451000Y-156948236D01*
X80276108Y-157827477D01*
X80134006Y-158170541D01*
X79933044Y-158655707D01*
X79434992Y-159401093D01*
X78801093Y-160034992D01*
X78055707Y-160533044D01*
X77570541Y-160734006D01*
X77227477Y-160876108D01*
X76348236Y-161051000D01*
X75451764Y-161051000D01*
X74572523Y-160876108D01*
X74229459Y-160734006D01*
X73744293Y-160533044D01*
X72998907Y-160034992D01*
X72365008Y-159401093D01*
X71866956Y-158655707D01*
X71665994Y-158170541D01*
X71523892Y-157827477D01*
X71349000Y-156948236D01*
X71349000Y-156051764D01*
X71523892Y-155172523D01*
X71665994Y-154829459D01*
X71866956Y-154344293D01*
X72365008Y-153598907D01*
X72998907Y-152965008D01*
X73744293Y-152466956D01*
X74229459Y-152265994D01*
X74572523Y-152123892D01*
X75451764Y-151949000D01*
X76348236Y-151949000D01*
X77227477Y-152123892D01*
G37*
G36*
X64652477Y-148773892D02*
G01*
X64995541Y-148915994D01*
X65480707Y-149116956D01*
X66226093Y-149615008D01*
X66859992Y-150248907D01*
X67358044Y-150994293D01*
X67511374Y-151364466D01*
X67701108Y-151822523D01*
X67876000Y-152701764D01*
X67876000Y-153598236D01*
X67701108Y-154477477D01*
X67559006Y-154820541D01*
X67358044Y-155305707D01*
X66859992Y-156051093D01*
X66226093Y-156684992D01*
X65480707Y-157183044D01*
X64995541Y-157384006D01*
X64652477Y-157526108D01*
X63773236Y-157701000D01*
X62876764Y-157701000D01*
X61997523Y-157526108D01*
X61654459Y-157384006D01*
X61169293Y-157183044D01*
X60423907Y-156684992D01*
X59790008Y-156051093D01*
X59291956Y-155305707D01*
X59090994Y-154820541D01*
X58948892Y-154477477D01*
X58774000Y-153598236D01*
X58774000Y-152701764D01*
X58948892Y-151822523D01*
X59138626Y-151364466D01*
X59291956Y-150994293D01*
X59790008Y-150248907D01*
X60423907Y-149615008D01*
X61169293Y-149116956D01*
X61654459Y-148915994D01*
X61997523Y-148773892D01*
X62876764Y-148599000D01*
X63773236Y-148599000D01*
X64652477Y-148773892D01*
G37*
G36*
X159957021Y-150456640D02*
G01*
X160466769Y-150667785D01*
X160466771Y-150667786D01*
X160925534Y-150974321D01*
X161315679Y-151364466D01*
X161621742Y-151822523D01*
X161622215Y-151823231D01*
X161833360Y-152332979D01*
X161941000Y-152874124D01*
X161941000Y-153425876D01*
X161833360Y-153967021D01*
X161622215Y-154476769D01*
X161622214Y-154476771D01*
X161315679Y-154935534D01*
X160925534Y-155325679D01*
X160466771Y-155632214D01*
X160466770Y-155632215D01*
X160466769Y-155632215D01*
X159957021Y-155843360D01*
X159415876Y-155951000D01*
X158864124Y-155951000D01*
X158322979Y-155843360D01*
X157813231Y-155632215D01*
X157813230Y-155632215D01*
X157813229Y-155632214D01*
X157354466Y-155325679D01*
X156964321Y-154935534D01*
X156657786Y-154476771D01*
X156657785Y-154476769D01*
X156446640Y-153967021D01*
X156339000Y-153425876D01*
X156339000Y-152874124D01*
X156446640Y-152332979D01*
X156657785Y-151823231D01*
X156658258Y-151822523D01*
X156964321Y-151364466D01*
X157354466Y-150974321D01*
X157813229Y-150667786D01*
X157813231Y-150667785D01*
X158322979Y-150456640D01*
X158864124Y-150349000D01*
X159415876Y-150349000D01*
X159957021Y-150456640D01*
G37*
G36*
X56317021Y-150456640D02*
G01*
X56826769Y-150667785D01*
X56826771Y-150667786D01*
X57285534Y-150974321D01*
X57675679Y-151364466D01*
X57981742Y-151822523D01*
X57982215Y-151823231D01*
X58193360Y-152332979D01*
X58301000Y-152874124D01*
X58301000Y-153425876D01*
X58193360Y-153967021D01*
X57982215Y-154476769D01*
X57982214Y-154476771D01*
X57675679Y-154935534D01*
X57285534Y-155325679D01*
X56826771Y-155632214D01*
X56826770Y-155632215D01*
X56826769Y-155632215D01*
X56317021Y-155843360D01*
X55775876Y-155951000D01*
X55224124Y-155951000D01*
X54682979Y-155843360D01*
X54173231Y-155632215D01*
X54173230Y-155632215D01*
X54173229Y-155632214D01*
X53714466Y-155325679D01*
X53324321Y-154935534D01*
X53017786Y-154476771D01*
X53017785Y-154476769D01*
X52806640Y-153967021D01*
X52699000Y-153425876D01*
X52699000Y-152874124D01*
X52806640Y-152332979D01*
X53017785Y-151823231D01*
X53018258Y-151822523D01*
X53324321Y-151364466D01*
X53714466Y-150974321D01*
X54173229Y-150667786D01*
X54173231Y-150667785D01*
X54682979Y-150456640D01*
X55224124Y-150349000D01*
X55775876Y-150349000D01*
X56317021Y-150456640D01*
G37*
G36*
X143637021Y-150456640D02*
G01*
X144146769Y-150667785D01*
X144146771Y-150667786D01*
X144605534Y-150974321D01*
X144995679Y-151364466D01*
X145301742Y-151822523D01*
X145302215Y-151823231D01*
X145513360Y-152332979D01*
X145621000Y-152874124D01*
X145621000Y-153425876D01*
X145513360Y-153967021D01*
X145302215Y-154476769D01*
X145302214Y-154476771D01*
X144995679Y-154935534D01*
X144605534Y-155325679D01*
X144146771Y-155632214D01*
X144146770Y-155632215D01*
X144146769Y-155632215D01*
X143637021Y-155843360D01*
X143095876Y-155951000D01*
X142544124Y-155951000D01*
X142002979Y-155843360D01*
X141493231Y-155632215D01*
X141493230Y-155632215D01*
X141493229Y-155632214D01*
X141034466Y-155325679D01*
X140644321Y-154935534D01*
X140337786Y-154476771D01*
X140337785Y-154476769D01*
X140126640Y-153967021D01*
X140019000Y-153425876D01*
X140019000Y-152874124D01*
X140126640Y-152332979D01*
X140337785Y-151823231D01*
X140338258Y-151822523D01*
X140644321Y-151364466D01*
X141034466Y-150974321D01*
X141493229Y-150667786D01*
X141493231Y-150667785D01*
X142002979Y-150456640D01*
X142544124Y-150349000D01*
X143095876Y-150349000D01*
X143637021Y-150456640D01*
G37*
G36*
X183705401Y-142546053D02*
G01*
X184193322Y-142643107D01*
X185112546Y-143023862D01*
X185939825Y-143576632D01*
X186643368Y-144280175D01*
X187196138Y-145107454D01*
X187576893Y-146026678D01*
X187771000Y-147002520D01*
X187771000Y-147997480D01*
X187576893Y-148973322D01*
X187196138Y-149892546D01*
X186643368Y-150719825D01*
X185939825Y-151423368D01*
X185112546Y-151976138D01*
X184193322Y-152356893D01*
X183705401Y-152453946D01*
X183217481Y-152551000D01*
X182222519Y-152551000D01*
X181734599Y-152453946D01*
X181246678Y-152356893D01*
X180327454Y-151976138D01*
X179500175Y-151423368D01*
X178796632Y-150719825D01*
X178243862Y-149892546D01*
X177863107Y-148973322D01*
X177669000Y-147997480D01*
X177669000Y-147002520D01*
X177863107Y-146026678D01*
X178243862Y-145107454D01*
X178796632Y-144280175D01*
X179500175Y-143576632D01*
X180327454Y-143023862D01*
X181246678Y-142643107D01*
X181734599Y-142546053D01*
X182222519Y-142449000D01*
X183217481Y-142449000D01*
X183705401Y-142546053D01*
G37*
G36*
X120305401Y-142546053D02*
G01*
X120793322Y-142643107D01*
X121712546Y-143023862D01*
X122539825Y-143576632D01*
X123243368Y-144280175D01*
X123796138Y-145107454D01*
X124176893Y-146026678D01*
X124371000Y-147002520D01*
X124371000Y-147997480D01*
X124176893Y-148973322D01*
X123796138Y-149892546D01*
X123243368Y-150719825D01*
X122539825Y-151423368D01*
X121712546Y-151976138D01*
X120793322Y-152356893D01*
X120305401Y-152453946D01*
X119817481Y-152551000D01*
X118822519Y-152551000D01*
X118334599Y-152453946D01*
X117846678Y-152356893D01*
X116927454Y-151976138D01*
X116100175Y-151423368D01*
X115396632Y-150719825D01*
X114843862Y-149892546D01*
X114463107Y-148973322D01*
X114269000Y-147997480D01*
X114269000Y-147002520D01*
X114463107Y-146026678D01*
X114843862Y-145107454D01*
X115396632Y-144280175D01*
X116100175Y-143576632D01*
X116927454Y-143023862D01*
X117846678Y-142643107D01*
X118334599Y-142546053D01*
X118822519Y-142449000D01*
X119817481Y-142449000D01*
X120305401Y-142546053D01*
G37*
G36*
X94485401Y-142546053D02*
G01*
X94973322Y-142643107D01*
X95892546Y-143023862D01*
X96719825Y-143576632D01*
X97423368Y-144280175D01*
X97976138Y-145107454D01*
X98356893Y-146026678D01*
X98551000Y-147002520D01*
X98551000Y-147997480D01*
X98356893Y-148973322D01*
X97976138Y-149892546D01*
X97423368Y-150719825D01*
X96719825Y-151423368D01*
X95892546Y-151976138D01*
X94973322Y-152356893D01*
X94485401Y-152453946D01*
X93997481Y-152551000D01*
X93002519Y-152551000D01*
X92514599Y-152453946D01*
X92026678Y-152356893D01*
X91107454Y-151976138D01*
X90280175Y-151423368D01*
X89576632Y-150719825D01*
X89023862Y-149892546D01*
X88643107Y-148973322D01*
X88449000Y-147997480D01*
X88449000Y-147002520D01*
X88643107Y-146026678D01*
X89023862Y-145107454D01*
X89576632Y-144280175D01*
X90280175Y-143576632D01*
X91107454Y-143023862D01*
X92026678Y-142643107D01*
X92514599Y-142546053D01*
X93002519Y-142449000D01*
X93997481Y-142449000D01*
X94485401Y-142546053D01*
G37*
G36*
X209435401Y-142546053D02*
G01*
X209923322Y-142643107D01*
X210842546Y-143023862D01*
X211669825Y-143576632D01*
X212373368Y-144280175D01*
X212926138Y-145107454D01*
X213306893Y-146026678D01*
X213501000Y-147002520D01*
X213501000Y-147997480D01*
X213306893Y-148973322D01*
X212926138Y-149892546D01*
X212373368Y-150719825D01*
X211669825Y-151423368D01*
X210842546Y-151976138D01*
X209923322Y-152356893D01*
X209435401Y-152453946D01*
X208947481Y-152551000D01*
X207952519Y-152551000D01*
X207464599Y-152453946D01*
X206976678Y-152356893D01*
X206057454Y-151976138D01*
X205230175Y-151423368D01*
X204526632Y-150719825D01*
X203973862Y-149892546D01*
X203593107Y-148973322D01*
X203399000Y-147997480D01*
X203399000Y-147002520D01*
X203593107Y-146026678D01*
X203973862Y-145107454D01*
X204526632Y-144280175D01*
X205230175Y-143576632D01*
X206057454Y-143023862D01*
X206976678Y-142643107D01*
X207464599Y-142546053D01*
X207952519Y-142449000D01*
X208947481Y-142449000D01*
X209435401Y-142546053D01*
G37*
G36*
X235215401Y-142546053D02*
G01*
X235703322Y-142643107D01*
X236622546Y-143023862D01*
X237449825Y-143576632D01*
X238153368Y-144280175D01*
X238706138Y-145107454D01*
X239086893Y-146026678D01*
X239281000Y-147002520D01*
X239281000Y-147997480D01*
X239086893Y-148973322D01*
X238706138Y-149892546D01*
X238153368Y-150719825D01*
X237449825Y-151423368D01*
X236622546Y-151976138D01*
X235703322Y-152356893D01*
X235215401Y-152453946D01*
X234727481Y-152551000D01*
X233732519Y-152551000D01*
X233244599Y-152453946D01*
X232756678Y-152356893D01*
X231837454Y-151976138D01*
X231010175Y-151423368D01*
X230306632Y-150719825D01*
X229753862Y-149892546D01*
X229373107Y-148973322D01*
X229179000Y-147997480D01*
X229179000Y-147002520D01*
X229373107Y-146026678D01*
X229753862Y-145107454D01*
X230306632Y-144280175D01*
X231010175Y-143576632D01*
X231837454Y-143023862D01*
X232756678Y-142643107D01*
X233244599Y-142546053D01*
X233732519Y-142449000D01*
X234727481Y-142449000D01*
X235215401Y-142546053D01*
G37*
M02*
