G04 #@! TF.GenerationSoftware,KiCad,Pcbnew,5.1.5-5.1.5*
G04 #@! TF.CreationDate,2020-10-28T11:58:53+01:00*
G04 #@! TF.ProjectId,theresynth-backpanel,74686572-6573-4796-9e74-682d6261636b,rev?*
G04 #@! TF.SameCoordinates,Original*
G04 #@! TF.FileFunction,Soldermask,Bot*
G04 #@! TF.FilePolarity,Negative*
%FSLAX46Y46*%
G04 Gerber Fmt 4.6, Leading zero omitted, Abs format (unit mm)*
G04 Created by KiCad (PCBNEW 5.1.5-5.1.5) date 2020-10-28 11:58:53*
%MOMM*%
%LPD*%
G04 APERTURE LIST*
%ADD10C,0.100000*%
G04 APERTURE END LIST*
D10*
G36*
X58556700Y-44719965D02*
G01*
X59839899Y-45251484D01*
X59839901Y-45251485D01*
X60994751Y-46023130D01*
X61976870Y-47005249D01*
X62748515Y-48160099D01*
X62748516Y-48160101D01*
X63280035Y-49443300D01*
X63551000Y-50805536D01*
X63551000Y-52194464D01*
X63280035Y-53556700D01*
X62960768Y-54327477D01*
X62748515Y-54839901D01*
X61976870Y-55994751D01*
X60994751Y-56976870D01*
X59839901Y-57748515D01*
X59839900Y-57748516D01*
X59839899Y-57748516D01*
X58556700Y-58280035D01*
X57194464Y-58551000D01*
X55805536Y-58551000D01*
X54443300Y-58280035D01*
X53160101Y-57748516D01*
X53160100Y-57748516D01*
X53160099Y-57748515D01*
X52005249Y-56976870D01*
X51023130Y-55994751D01*
X50251485Y-54839901D01*
X50039232Y-54327477D01*
X49719965Y-53556700D01*
X49449000Y-52194464D01*
X49449000Y-50805536D01*
X49719965Y-49443300D01*
X50251484Y-48160101D01*
X50251485Y-48160099D01*
X51023130Y-47005249D01*
X52005249Y-46023130D01*
X53160099Y-45251485D01*
X53160101Y-45251484D01*
X54443300Y-44719965D01*
X55805536Y-44449000D01*
X57194464Y-44449000D01*
X58556700Y-44719965D01*
G37*
G36*
X227627477Y-48623892D02*
G01*
X227970541Y-48765994D01*
X228455707Y-48966956D01*
X229201093Y-49465008D01*
X229834992Y-50098907D01*
X230333044Y-50844293D01*
X230486374Y-51214466D01*
X230676108Y-51672523D01*
X230851000Y-52551764D01*
X230851000Y-53448236D01*
X230676108Y-54327477D01*
X230534006Y-54670541D01*
X230333044Y-55155707D01*
X229834992Y-55901093D01*
X229201093Y-56534992D01*
X228455707Y-57033044D01*
X227970541Y-57234006D01*
X227627477Y-57376108D01*
X226748236Y-57551000D01*
X225851764Y-57551000D01*
X224972523Y-57376108D01*
X224629459Y-57234006D01*
X224144293Y-57033044D01*
X223398907Y-56534992D01*
X222765008Y-55901093D01*
X222266956Y-55155707D01*
X222065994Y-54670541D01*
X221923892Y-54327477D01*
X221749000Y-53448236D01*
X221749000Y-52551764D01*
X221923892Y-51672523D01*
X222113626Y-51214466D01*
X222266956Y-50844293D01*
X222765008Y-50098907D01*
X223398907Y-49465008D01*
X224144293Y-48966956D01*
X224629459Y-48765994D01*
X224972523Y-48623892D01*
X225851764Y-48449000D01*
X226748236Y-48449000D01*
X227627477Y-48623892D01*
G37*
G36*
X188277477Y-48623892D02*
G01*
X188620541Y-48765994D01*
X189105707Y-48966956D01*
X189851093Y-49465008D01*
X190484992Y-50098907D01*
X190983044Y-50844293D01*
X191136374Y-51214466D01*
X191326108Y-51672523D01*
X191501000Y-52551764D01*
X191501000Y-53448236D01*
X191326108Y-54327477D01*
X191184006Y-54670541D01*
X190983044Y-55155707D01*
X190484992Y-55901093D01*
X189851093Y-56534992D01*
X189105707Y-57033044D01*
X188620541Y-57234006D01*
X188277477Y-57376108D01*
X187398236Y-57551000D01*
X186501764Y-57551000D01*
X185622523Y-57376108D01*
X185279459Y-57234006D01*
X184794293Y-57033044D01*
X184048907Y-56534992D01*
X183415008Y-55901093D01*
X182916956Y-55155707D01*
X182715994Y-54670541D01*
X182573892Y-54327477D01*
X182399000Y-53448236D01*
X182399000Y-52551764D01*
X182573892Y-51672523D01*
X182763626Y-51214466D01*
X182916956Y-50844293D01*
X183415008Y-50098907D01*
X184048907Y-49465008D01*
X184794293Y-48966956D01*
X185279459Y-48765994D01*
X185622523Y-48623892D01*
X186501764Y-48449000D01*
X187398236Y-48449000D01*
X188277477Y-48623892D01*
G37*
G36*
X144177477Y-48623892D02*
G01*
X144520541Y-48765994D01*
X145005707Y-48966956D01*
X145751093Y-49465008D01*
X146384992Y-50098907D01*
X146883044Y-50844293D01*
X147036374Y-51214466D01*
X147226108Y-51672523D01*
X147401000Y-52551764D01*
X147401000Y-53448236D01*
X147226108Y-54327477D01*
X147084006Y-54670541D01*
X146883044Y-55155707D01*
X146384992Y-55901093D01*
X145751093Y-56534992D01*
X145005707Y-57033044D01*
X144520541Y-57234006D01*
X144177477Y-57376108D01*
X143298236Y-57551000D01*
X142401764Y-57551000D01*
X141522523Y-57376108D01*
X141179459Y-57234006D01*
X140694293Y-57033044D01*
X139948907Y-56534992D01*
X139315008Y-55901093D01*
X138816956Y-55155707D01*
X138615994Y-54670541D01*
X138473892Y-54327477D01*
X138299000Y-53448236D01*
X138299000Y-52551764D01*
X138473892Y-51672523D01*
X138663626Y-51214466D01*
X138816956Y-50844293D01*
X139315008Y-50098907D01*
X139948907Y-49465008D01*
X140694293Y-48966956D01*
X141179459Y-48765994D01*
X141522523Y-48623892D01*
X142401764Y-48449000D01*
X143298236Y-48449000D01*
X144177477Y-48623892D01*
G37*
G36*
X86017021Y-50306640D02*
G01*
X86526769Y-50517785D01*
X86526771Y-50517786D01*
X86985534Y-50824321D01*
X87375679Y-51214466D01*
X87681742Y-51672523D01*
X87682215Y-51673231D01*
X87893360Y-52182979D01*
X88001000Y-52724124D01*
X88001000Y-53275876D01*
X87893360Y-53817021D01*
X87682215Y-54326769D01*
X87682214Y-54326771D01*
X87375679Y-54785534D01*
X86985534Y-55175679D01*
X86526771Y-55482214D01*
X86526770Y-55482215D01*
X86526769Y-55482215D01*
X86017021Y-55693360D01*
X85475876Y-55801000D01*
X84924124Y-55801000D01*
X84382979Y-55693360D01*
X83873231Y-55482215D01*
X83873230Y-55482215D01*
X83873229Y-55482214D01*
X83414466Y-55175679D01*
X83024321Y-54785534D01*
X82717786Y-54326771D01*
X82717785Y-54326769D01*
X82506640Y-53817021D01*
X82399000Y-53275876D01*
X82399000Y-52724124D01*
X82506640Y-52182979D01*
X82717785Y-51673231D01*
X82718258Y-51672523D01*
X83024321Y-51214466D01*
X83414466Y-50824321D01*
X83873229Y-50517786D01*
X83873231Y-50517785D01*
X84382979Y-50306640D01*
X84924124Y-50199000D01*
X85475876Y-50199000D01*
X86017021Y-50306640D01*
G37*
M02*
