G04 #@! TF.GenerationSoftware,KiCad,Pcbnew,5.1.5-5.1.5*
G04 #@! TF.CreationDate,2020-10-28T11:58:53+01:00*
G04 #@! TF.ProjectId,theresynth-backpanel,74686572-6573-4796-9e74-682d6261636b,rev?*
G04 #@! TF.SameCoordinates,Original*
G04 #@! TF.FileFunction,Legend,Top*
G04 #@! TF.FilePolarity,Positive*
%FSLAX46Y46*%
G04 Gerber Fmt 4.6, Leading zero omitted, Abs format (unit mm)*
G04 Created by KiCad (PCBNEW 5.1.5-5.1.5) date 2020-10-28 11:58:53*
%MOMM*%
%LPD*%
G04 APERTURE LIST*
%ADD10C,0.150000*%
G04 APERTURE END LIST*
D10*
X241080952Y-52822380D02*
X241080952Y-53536666D01*
X241033333Y-53679523D01*
X240938095Y-53774761D01*
X240795238Y-53822380D01*
X240700000Y-53822380D01*
X242033333Y-53822380D02*
X241557142Y-53822380D01*
X241557142Y-52822380D01*
X242938095Y-53727142D02*
X242890476Y-53774761D01*
X242747619Y-53822380D01*
X242652380Y-53822380D01*
X242509523Y-53774761D01*
X242414285Y-53679523D01*
X242366666Y-53584285D01*
X242319047Y-53393809D01*
X242319047Y-53250952D01*
X242366666Y-53060476D01*
X242414285Y-52965238D01*
X242509523Y-52870000D01*
X242652380Y-52822380D01*
X242747619Y-52822380D01*
X242890476Y-52870000D01*
X242938095Y-52917619D01*
X243652380Y-52822380D02*
X243652380Y-53536666D01*
X243604761Y-53679523D01*
X243509523Y-53774761D01*
X243366666Y-53822380D01*
X243271428Y-53822380D01*
X244604761Y-53822380D02*
X244128571Y-53822380D01*
X244128571Y-52822380D01*
X245509523Y-53727142D02*
X245461904Y-53774761D01*
X245319047Y-53822380D01*
X245223809Y-53822380D01*
X245080952Y-53774761D01*
X244985714Y-53679523D01*
X244938095Y-53584285D01*
X244890476Y-53393809D01*
X244890476Y-53250952D01*
X244938095Y-53060476D01*
X244985714Y-52965238D01*
X245080952Y-52870000D01*
X245223809Y-52822380D01*
X245319047Y-52822380D01*
X245461904Y-52870000D01*
X245509523Y-52917619D01*
X246223809Y-52822380D02*
X246223809Y-53536666D01*
X246176190Y-53679523D01*
X246080952Y-53774761D01*
X245938095Y-53822380D01*
X245842857Y-53822380D01*
X247176190Y-53822380D02*
X246700000Y-53822380D01*
X246700000Y-52822380D01*
X248080952Y-53727142D02*
X248033333Y-53774761D01*
X247890476Y-53822380D01*
X247795238Y-53822380D01*
X247652380Y-53774761D01*
X247557142Y-53679523D01*
X247509523Y-53584285D01*
X247461904Y-53393809D01*
X247461904Y-53250952D01*
X247509523Y-53060476D01*
X247557142Y-52965238D01*
X247652380Y-52870000D01*
X247795238Y-52822380D01*
X247890476Y-52822380D01*
X248033333Y-52870000D01*
X248080952Y-52917619D01*
X248795238Y-52822380D02*
X248795238Y-53536666D01*
X248747619Y-53679523D01*
X248652380Y-53774761D01*
X248509523Y-53822380D01*
X248414285Y-53822380D01*
X249747619Y-53822380D02*
X249271428Y-53822380D01*
X249271428Y-52822380D01*
X250652380Y-53727142D02*
X250604761Y-53774761D01*
X250461904Y-53822380D01*
X250366666Y-53822380D01*
X250223809Y-53774761D01*
X250128571Y-53679523D01*
X250080952Y-53584285D01*
X250033333Y-53393809D01*
X250033333Y-53250952D01*
X250080952Y-53060476D01*
X250128571Y-52965238D01*
X250223809Y-52870000D01*
X250366666Y-52822380D01*
X250461904Y-52822380D01*
X250604761Y-52870000D01*
X250652380Y-52917619D01*
M02*
