G04 #@! TF.GenerationSoftware,KiCad,Pcbnew,5.1.5-5.1.5*
G04 #@! TF.CreationDate,2020-10-27T19:45:11+01:00*
G04 #@! TF.ProjectId,theresynth,74686572-6573-4796-9e74-682e6b696361,rev?*
G04 #@! TF.SameCoordinates,Original*
G04 #@! TF.FileFunction,Legend,Bot*
G04 #@! TF.FilePolarity,Positive*
%FSLAX46Y46*%
G04 Gerber Fmt 4.6, Leading zero omitted, Abs format (unit mm)*
G04 Created by KiCad (PCBNEW 5.1.5-5.1.5) date 2020-10-27 19:45:11*
%MOMM*%
%LPD*%
G04 APERTURE LIST*
%ADD10C,0.150000*%
G04 APERTURE END LIST*
D10*
X115119047Y-65022380D02*
X115119047Y-65736666D01*
X115166666Y-65879523D01*
X115261904Y-65974761D01*
X115404761Y-66022380D01*
X115500000Y-66022380D01*
X114166666Y-66022380D02*
X114642857Y-66022380D01*
X114642857Y-65022380D01*
X113261904Y-65927142D02*
X113309523Y-65974761D01*
X113452380Y-66022380D01*
X113547619Y-66022380D01*
X113690476Y-65974761D01*
X113785714Y-65879523D01*
X113833333Y-65784285D01*
X113880952Y-65593809D01*
X113880952Y-65450952D01*
X113833333Y-65260476D01*
X113785714Y-65165238D01*
X113690476Y-65070000D01*
X113547619Y-65022380D01*
X113452380Y-65022380D01*
X113309523Y-65070000D01*
X113261904Y-65117619D01*
X112547619Y-65022380D02*
X112547619Y-65736666D01*
X112595238Y-65879523D01*
X112690476Y-65974761D01*
X112833333Y-66022380D01*
X112928571Y-66022380D01*
X111595238Y-66022380D02*
X112071428Y-66022380D01*
X112071428Y-65022380D01*
X110690476Y-65927142D02*
X110738095Y-65974761D01*
X110880952Y-66022380D01*
X110976190Y-66022380D01*
X111119047Y-65974761D01*
X111214285Y-65879523D01*
X111261904Y-65784285D01*
X111309523Y-65593809D01*
X111309523Y-65450952D01*
X111261904Y-65260476D01*
X111214285Y-65165238D01*
X111119047Y-65070000D01*
X110976190Y-65022380D01*
X110880952Y-65022380D01*
X110738095Y-65070000D01*
X110690476Y-65117619D01*
X109976190Y-65022380D02*
X109976190Y-65736666D01*
X110023809Y-65879523D01*
X110119047Y-65974761D01*
X110261904Y-66022380D01*
X110357142Y-66022380D01*
X109023809Y-66022380D02*
X109500000Y-66022380D01*
X109500000Y-65022380D01*
X108119047Y-65927142D02*
X108166666Y-65974761D01*
X108309523Y-66022380D01*
X108404761Y-66022380D01*
X108547619Y-65974761D01*
X108642857Y-65879523D01*
X108690476Y-65784285D01*
X108738095Y-65593809D01*
X108738095Y-65450952D01*
X108690476Y-65260476D01*
X108642857Y-65165238D01*
X108547619Y-65070000D01*
X108404761Y-65022380D01*
X108309523Y-65022380D01*
X108166666Y-65070000D01*
X108119047Y-65117619D01*
X107404761Y-65022380D02*
X107404761Y-65736666D01*
X107452380Y-65879523D01*
X107547619Y-65974761D01*
X107690476Y-66022380D01*
X107785714Y-66022380D01*
X106452380Y-66022380D02*
X106928571Y-66022380D01*
X106928571Y-65022380D01*
X105547619Y-65927142D02*
X105595238Y-65974761D01*
X105738095Y-66022380D01*
X105833333Y-66022380D01*
X105976190Y-65974761D01*
X106071428Y-65879523D01*
X106119047Y-65784285D01*
X106166666Y-65593809D01*
X106166666Y-65450952D01*
X106119047Y-65260476D01*
X106071428Y-65165238D01*
X105976190Y-65070000D01*
X105833333Y-65022380D01*
X105738095Y-65022380D01*
X105595238Y-65070000D01*
X105547619Y-65117619D01*
M02*
