M48
; DRILL file {KiCad 5.1.5-5.1.5} date Tue Oct 27 19:45:13 2020
; FORMAT={-:-/ absolute / inch / decimal}
; #@! TF.CreationDate,2020-10-27T19:45:13+01:00
; #@! TF.GenerationSoftware,Kicad,Pcbnew,5.1.5-5.1.5
; #@! TF.FileFunction,Plated,1,2,PTH
FMAT,2
INCH
T1C0.0157
T2C0.0197
T3C0.0276
T4C0.0295
T5C0.0300
T6C0.0315
T7C0.0354
T8C0.0394
T9C0.0433
T10C0.0472
T11C0.0512
T12C0.0551
T13C0.0728
T14C0.0787
T15C0.1181
%
G90
G05
T1
X5.7728Y-3.1248
X5.9449Y-4.9476
X6.2559Y-3.1248
X6.2835Y-4.5579
X8.1693Y-3.3138
T2
X7.7795Y-4.935
X9.9114Y-4.9409
X9.9374Y-4.8783
X9.9374Y-5.0036
X10.0Y-4.8524
X10.0Y-5.0295
X10.0626Y-4.8783
X10.0626Y-5.0036
X10.0886Y-4.9409
X6.7996Y-4.3047
X9.9114Y-2.5118
X9.9374Y-2.4492
X9.9374Y-2.5744
X10.0Y-2.4232
X10.0Y-2.6004
X10.0626Y-2.4492
X10.0626Y-2.5744
X10.0886Y-2.5118
X4.2374Y-4.5071
X1.8012Y-4.9409
X1.8271Y-4.8783
X1.8271Y-5.0036
X1.8898Y-4.8524
X1.8898Y-5.0295
X1.9524Y-4.8783
X1.9524Y-5.0036
X1.9783Y-4.9409
X7.7512Y-3.6693
X3.5996Y-3.348
X1.8012Y-2.5118
X1.8271Y-2.4492
X1.8271Y-2.5744
X1.8898Y-2.4232
X1.8898Y-2.6004
X1.9524Y-2.4492
X1.9524Y-2.5744
X1.9783Y-2.5118
T3
X6.1299Y-4.3701
X6.1299Y-4.6701
X5.9764Y-3.8622
X6.2764Y-3.8622
X4.6969Y-4.0622
X4.6969Y-4.3622
X5.976Y-3.552
X6.276Y-3.552
X2.8346Y-4.4398
X3.1346Y-4.4398
X5.6181Y-4.2598
X5.9181Y-4.2598
X6.0354Y-4.3693
X6.0354Y-4.6693
X8.7087Y-4.7429
X8.7087Y-5.0429
X5.9756Y-3.6496
X6.2756Y-3.6496
X7.2323Y-4.2118
X7.2323Y-4.5118
X2.8339Y-3.8543
X3.1339Y-3.8543
X7.4449Y-4.2118
X7.4449Y-4.5118
X8.7126Y-4.1339
X8.7126Y-4.4339
X7.2315Y-3.4252
X7.5315Y-3.4252
X8.9094Y-4.1331
X8.9094Y-4.4331
X7.6213Y-4.752
X7.6213Y-5.052
X3.6378Y-3.9665
X3.9378Y-3.9665
X7.6252Y-3.763
X7.6252Y-4.063
X2.8346Y-3.9528
X3.1346Y-3.9528
X8.2717Y-4.3701
X8.5717Y-4.3701
X6.3335Y-2.5276
X6.6335Y-2.5276
X8.4094Y-2.565
X8.4094Y-2.865
X3.248Y-4.3925
X3.548Y-4.3925
X5.1614Y-3.4504
X5.4614Y-3.4504
X7.8071Y-4.3386
X8.1071Y-4.3386
X4.7992Y-4.0622
X4.7992Y-4.3622
X3.6409Y-4.0591
X3.9409Y-4.0591
X2.8346Y-4.0512
X3.1346Y-4.0512
X2.8354Y-3.4591
X3.1354Y-3.4591
X5.1567Y-3.9555
X5.4567Y-3.9555
X5.1567Y-3.8622
X5.4567Y-3.8622
X7.878Y-2.565
X7.878Y-2.865
X5.9768Y-3.4535
X6.2768Y-3.4535
X7.8063Y-4.2362
X8.1063Y-4.2362
X8.811Y-4.1339
X8.811Y-4.4339
X5.3232Y-3.1406
X5.6232Y-3.1406
X5.1618Y-3.5508
X5.4618Y-3.5508
X4.1969Y-4.2874
X4.4969Y-4.2874
X2.835Y-3.6476
X3.135Y-3.6476
X2.8354Y-3.553
X3.1354Y-3.553
X5.9409Y-4.3701
X5.9409Y-4.6701
X8.2717Y-4.1339
X8.5717Y-4.1339
X7.0598Y-3.1406
X7.3598Y-3.1406
X8.6094Y-3.1406
X8.9094Y-3.1406
X4.5945Y-4.063
X4.5945Y-4.363
X6.7602Y-4.7567
X6.7602Y-5.0567
X7.3386Y-4.2118
X7.3386Y-4.5118
X7.2323Y-3.763
X7.2323Y-4.063
X7.2323Y-3.5276
X7.5323Y-3.5276
X1.9323Y-4.7323
X2.2323Y-4.7323
X7.2323Y-3.6299
X7.5323Y-3.6299
X4.1969Y-4.0669
X4.4969Y-4.0669
X7.8071Y-4.1339
X8.1071Y-4.1339
T4
X2.5276Y-3.7677
X2.5276Y-4.0677
X3.2472Y-4.298
X3.5472Y-4.298
X6.7272Y-2.5276
X7.0272Y-2.5276
T5
X1.9843Y-3.7717
X9.9173Y-3.7717
T6
X7.5079Y-3.8189
X7.5079Y-4.0157
X5.752Y-4.5126
X5.752Y-4.6126
X5.752Y-4.7126
X7.0157Y-3.9024
X7.0157Y-4.0024
X7.0157Y-4.1024
X4.252Y-4.3976
X4.4488Y-4.3976
X5.0551Y-4.0559
X5.0551Y-4.1559
X5.0551Y-4.2559
X3.75Y-3.4701
X3.85Y-3.5701
X3.95Y-3.4701
X4.1831Y-3.2122
X4.3799Y-3.2122
X3.2795Y-4.1811
X3.4764Y-4.1811
X5.2126Y-4.1457
X5.4094Y-4.1457
X5.2126Y-3.752
X5.4094Y-3.752
X5.9665Y-2.7283
X6.0665Y-2.8283
X6.1665Y-2.7283
X7.7598Y-3.9173
X7.8598Y-3.9173
X7.9598Y-3.9173
X6.9252Y-3.7835
X7.122Y-3.7835
X3.685Y-3.7362
X3.8819Y-3.7362
X2.8819Y-3.752
X3.0787Y-3.752
X4.5906Y-3.6299
X4.7874Y-3.6299
X3.685Y-3.8583
X3.8819Y-3.8583
X7.0197Y-4.3551
X7.0197Y-4.4551
X7.0197Y-4.5551
X2.5374Y-2.9303
X2.5374Y-3.2303
X4.811Y-3.2134
X5.0079Y-3.2134
X3.2366Y-3.4528
X3.2366Y-3.5528
X3.2366Y-3.6528
X3.2366Y-3.7528
X3.2366Y-3.8528
X3.2366Y-3.9528
X3.2366Y-4.0528
X3.5366Y-3.4528
X3.5366Y-3.5528
X3.5366Y-3.6528
X3.5366Y-3.7528
X3.5366Y-3.8528
X3.5366Y-3.9528
X3.5366Y-4.0528
X7.3583Y-3.8189
X7.3583Y-4.0157
X6.0197Y-4.0906
X6.2165Y-4.0906
X5.2177Y-4.5441
X5.3177Y-4.6441
X5.4177Y-4.5441
X6.0197Y-3.7559
X6.2165Y-3.7559
X7.9921Y-2.5657
X7.9921Y-2.6657
X7.9921Y-2.7657
X7.9921Y-2.8657
X8.2921Y-2.5657
X8.2921Y-2.6657
X8.2921Y-2.7657
X8.2921Y-2.8657
X8.5512Y-3.8228
X8.5512Y-4.0197
X4.1614Y-3.874
X4.2614Y-3.874
X4.3614Y-3.874
X4.1575Y-3.6299
X4.3543Y-3.6299
X2.8331Y-3.1646
X3.0299Y-3.1646
X8.3307Y-4.252
X8.5276Y-4.252
X6.0197Y-3.9685
X6.2165Y-3.9685
X8.3307Y-4.4882
X8.5276Y-4.4882
X8.7126Y-3.6673
X8.9094Y-3.6673
X6.7358Y-2.7165
X6.9327Y-2.7165
X6.7874Y-3.8622
X6.7874Y-4.0591
X7.8701Y-4.4882
X8.0669Y-4.4882
X4.4764Y-3.7559
X4.4764Y-3.9528
X5.5693Y-3.4512
X5.5693Y-3.5512
X5.5693Y-3.6512
X5.5693Y-3.7512
X5.5693Y-3.8512
X5.5693Y-3.9512
X5.5693Y-4.0512
X5.8693Y-3.4512
X5.8693Y-3.5512
X5.8693Y-3.6512
X5.8693Y-3.7512
X5.8693Y-3.8512
X5.8693Y-3.9512
X5.8693Y-4.0512
X8.2323Y-3.9055
X8.3323Y-3.9055
X8.4323Y-3.9055
X2.5394Y-2.4559
X2.5394Y-2.7559
X8.0827Y-3.811
X8.0827Y-4.0079
X2.5276Y-3.4528
X2.5276Y-3.6496
X6.9094Y-4.2362
X7.1063Y-4.2362
X7.5866Y-4.2756
X7.5866Y-4.4724
X6.4201Y-2.6465
X6.6169Y-2.6465
X4.252Y-4.1772
X4.4488Y-4.1772
X5.6339Y-4.3937
X5.8307Y-4.3937
X6.3717Y-2.8189
X6.4717Y-2.8189
X6.5717Y-2.8189
X2.8748Y-4.2126
X2.9748Y-4.2126
X3.0748Y-4.2126
X3.7394Y-4.3433
X3.8394Y-4.4433
X3.9394Y-4.3433
X6.7874Y-3.4228
X6.7874Y-3.6197
X6.0197Y-4.2598
X6.2165Y-4.2598
X8.2795Y-3.6654
X8.4764Y-3.6654
X6.5866Y-4.4937
X6.7835Y-4.4937
T7
X5.5748Y-4.9508
X5.6748Y-4.9508
X6.2142Y-4.9508
X6.3142Y-4.9508
X2.1339Y-4.9508
X2.2339Y-4.9508
T8
X4.1811Y-4.7106
X4.1811Y-4.8106
X4.1811Y-4.9106
X4.1811Y-5.0106
X3.5638Y-2.7724
X3.5638Y-3.0677
X2.9299Y-2.548
X2.9299Y-2.8433
T9
X4.1272Y-3.0819
X4.2272Y-3.0819
X4.3272Y-3.0819
X4.7547Y-3.0819
X4.8547Y-3.0819
X4.9547Y-3.0819
T10
X7.0118Y-3.4252
X7.0118Y-3.622
X1.8858Y-4.3661
X2.1614Y-4.3661
X6.5945Y-3.4394
X6.5945Y-4.0394
X9.3268Y-3.6417
X9.3268Y-3.9173
X9.3268Y-3.0827
X9.3268Y-3.3583
X2.3268Y-3.4669
X2.3268Y-4.0669
X4.1732Y-3.4449
X4.7732Y-3.4449
X4.5984Y-3.8504
X4.7953Y-3.8504
X9.3268Y-4.2008
X9.3268Y-4.4764
X9.878Y-4.2008
X9.878Y-4.4764
X8.2953Y-3.4803
X8.8953Y-3.4803
T11
X6.9969Y-4.9311
X7.1937Y-4.9311
X7.3906Y-4.9311
X9.0244Y-4.9311
X9.2213Y-4.9311
X9.4181Y-4.9311
X2.7839Y-4.7
X2.8902Y-4.7472
X2.9886Y-5.015
X3.15Y-4.574
X3.1697Y-4.8614
X8.0106Y-4.9311
X8.2075Y-4.9311
X8.4043Y-4.9311
X4.5008Y-4.9311
X4.6976Y-4.9311
X4.8945Y-4.9311
X3.4854Y-4.9311
X3.6823Y-4.9311
X3.8791Y-4.9311
T12
X3.3528Y-2.4996
T13
X2.3937Y-5.0343
X2.4937Y-4.2343
X2.4937Y-4.3843
X2.4937Y-4.5343
X2.5937Y-5.0343
T14
X1.8268Y-3.6142
X1.8268Y-3.9291
X2.1417Y-3.6142
X2.1417Y-3.9291
X9.7598Y-3.6142
X9.7598Y-3.9291
X10.0748Y-3.6142
X10.0748Y-3.9291
T15
X10.0Y-4.9409
X10.0Y-2.5118
X1.8898Y-4.9409
X1.8898Y-2.5118
T6
G00X7.1619Y-2.8638
M15
G01X7.1619Y-2.9197
M16
G05
G00X7.3874Y-2.4587
M15
G01X7.3315Y-2.4587
M16
G05
G00X7.3874Y-2.9744
M15
G01X7.3315Y-2.9744
M16
G05
G00X8.7123Y-2.8638
M15
G01X8.7123Y-2.9197
M16
G05
G00X8.9378Y-2.4587
M15
G01X8.8819Y-2.4587
M16
G05
G00X8.9378Y-2.9744
M15
G01X8.8819Y-2.9744
M16
G05
G00X5.4261Y-2.8638
M15
G01X5.4261Y-2.9197
M16
G05
G00X5.6516Y-2.4587
M15
G01X5.5957Y-2.4587
M16
G05
G00X5.6516Y-2.9744
M15
G01X5.5957Y-2.9744
M16
G05
T8
G00X2.0394Y-2.75
M15
G01X2.0394Y-2.8287
M16
G05
G00X2.2638Y-2.6713
M15
G01X2.185Y-2.6713
M16
G05
G00X2.2638Y-2.9075
M15
G01X2.185Y-2.9075
M16
G05
T0
M30
